<?xml version="1.0" encoding="utf-8"?>
<!-- Generator: Adobe Illustrator 25.0.0, SVG Export Plug-In . SVG Version: 6.00 Build 0)  -->
<svg version="1.1" xmlns="http://www.w3.org/2000/svg" xmlns:xlink="http://www.w3.org/1999/xlink" x="0px" y="0px"
	 viewBox="0 0 720 720" style="enable-background:new 0 0 720 720;" xml:space="preserve">
<g id="Capa_1">
</g>
<g id="Capa_2">
	<g>
		<path d="M375.6,444.9c-0.2,14.8-0.3,29.7-0.5,44.5c0,3.9,0,7.7-0.1,11.6c-0.1,2.8-0.5,5.6-0.8,8.4c-0.5,4.6-1.3,9.2-1.6,13.9
			c-0.4,6.3-2.1,12.2-3.9,18.1c-2.4,7.8-4.7,15.7-7.9,23.2c-3.8,8.8-7.9,17.4-14.2,24.8c-4.5,5.3-9.3,10.1-14.7,14.4
			c-3,2.4-6.5,3.6-10.1,4.6c-5.8,1.7-11.7,3.2-17.6,4.8c-2.3,0.6-4.6,1-6.9,1.4c-8.6,1.6-17.2,3.3-25.8,4.7c-4.9,0.8-10,1-15,1.4
			c-4.3,0.3-8.6,0.6-12.9,0.9c-2.7,0.2-5.4,0.4-8,0.5c-13.4,0.8-26.8,1.6-40.2,2.3c-9.8,0.5-19.6,0.1-29.4-0.1
			c-9.5-0.2-18.7-2.5-27.9-4.5c-1.1-0.2-2.3-0.6-3.4-0.7c-8.5-1.2-16.6-4-24.3-7.7c-4-1.9-7.8-4.2-10.6-7.8
			c-3.3-4.1-4.7-8.9-5.4-13.9c-1-7.3-1.6-14.6-2.6-21.9c-0.9-6.7-2-13.4-3-20.1c-0.1-0.8-0.3-1.6-0.3-2.4c-0.1-10-0.3-20.1-0.1-30.1
			c0.1-6.5,1.1-13,1.3-19.6c0.3-8.5,2.3-16.6,3.6-24.9c0.7-4.4,1.9-8.7,2.9-13c0.6-2.5,0.9-5.1,1.7-7.5c2-6.3,4.2-12.6,6.2-18.9
			c1.8-6,4.5-11.5,7.9-16.7c4.4-6.8,9.4-13.1,15.2-18.7c5-4.9,10-9.8,15.1-14.5c6.9-6.5,13.9-12.6,22.9-16.3
			c7.3-3,14.7-5.1,22.4-6.8c2.4-0.5,4.7-1.3,7.1-1.8c9.7-1.7,19.5-2.4,29.3-2.9c7.4-0.3,14.9-0.7,22.4-0.6c6.2,0,12.3,0.7,18.5,0.7
			c10.1,0.1,20.3,1.5,30.4-0.7c7.9-1.7,15.8-0.3,23.7,0.9c5.9,0.9,11.6,2.3,17.2,4.4c4.5,1.7,8.8,3.6,12.8,6.2
			c3.6,2.3,6.1,5.4,7.9,9.1c1.6,3.3,3.4,6.3,5.8,9.1c3.6,4.4,5.4,9.8,6.8,15.2c1.2,4.5,1.8,9.2,2.4,13.8c1.1,7.9,2.2,15.7,3,23.6
			c0.3,3.2,0.1,6.5,0.1,9.8C375,444.9,375.3,444.9,375.6,444.9z M358.7,452.7c-0.2,0-0.3,0-0.5,0c0-4.2,0.3-8.4-0.1-12.6
			c-0.6-7-1.4-13.9-2.4-20.9c-0.9-6.2-2-12.5-3.3-18.6c-0.8-3.8-2.2-7.4-5.3-10.1c-2.2-1.9-4.4-3.8-6.8-5.5c-4.5-3.3-9-6.7-13.6-9.8
			c-2.3-1.6-4.6-3.3-7.2-4.1c-3.4-1.1-7-1.7-10.6-2c-6.8-0.7-13.8-1.9-20.6-1.2c-12,1.2-24,0.3-36.1,0.7
			c-10.4,0.3-20.8,0.2-31.1,0.8c-11.2,0.7-22.3,2.2-33.2,4.9c-1.6,0.4-3.2,0.6-4.8,1.1c-4.1,1.4-8.1,2.9-12.1,4.5
			c-2,0.8-4.1,1.8-5.9,3c-4.6,2.8-8.5,6.5-12.2,10.4c-4.5,4.6-8.8,9.4-13.5,13.7c-6.6,6-11.8,12.9-15.8,20.8
			c-2.3,4.4-4.1,9.2-5.6,13.9c-2,6.3-3.6,12.8-5.1,19.2c-1.4,5.9-2.8,11.8-3.8,17.8c-1.3,8.1-2,16.2-3.1,24.3
			c-0.9,6.7-0.3,13.5-0.6,20.3c-0.6,12.8,0.6,25.4,2.4,38c0.9,6.7,2.6,13.3,2.3,20.1c-0.1,2.4,0.1,4.9,0.6,7.3
			c0.4,1.9,1.1,4,2.4,5.2c2.2,2,4.8,3.8,7.6,4.9c4.2,1.7,8.6,2.9,13,4.1c8.8,2.4,17.7,4.4,26.8,5.1c11,0.9,22.1,1.3,33.2,0.6
			c11.3-0.7,22.6-1.3,33.9-2c4-0.2,7.9-0.2,11.9-0.5c5.9-0.4,11.9-0.9,17.8-1.6c3.6-0.4,7.1-1.3,10.7-1.8c6.5-0.9,13-1.5,19.4-2.6
			c9.4-1.6,18.5-3.9,27.5-6.7c2.5-0.8,5.1-1.7,7.4-3c5.4-3.2,9.1-8.3,12.9-13.1c5.2-6.6,8.2-14.4,11.3-22c0.8-2,1.4-4.2,2-6.3
			c1.7-5.3,3.6-10.6,4.9-16c1.4-5.5,2.4-11.2,3.2-16.8c0.8-6.4,1.3-12.8,1.7-19.2c0.3-4.8,0.2-9.6,0.2-14.4
			C358.5,472.5,358.6,462.6,358.7,452.7z"/>
		<path d="M646.5,438c0,5.5,0.1,11,0,16.5c-0.3,7.7-0.7,15.4-1.2,23.1c-0.5,7.8-0.9,15.6-1.6,23.4c-1,10.7-2,21.4-3.5,32
			c-1.4,9.6-3.1,19.1-5.3,28.6c-1.8,7.8-4,15.6-6.9,23.1c-2.8,7.3-6.7,14.1-13.1,19.1c-0.8,0.6-1.7,1.2-2.6,1.8
			c-2.9,1.9-5.8,3.9-8.8,5.7c-1.6,1-3.4,1.6-5,2.6c-7.4,4.6-16.1,5.4-24,8.3c-8.6,3.1-17.6,4.5-26.6,6.1
			c-13.6,2.4-27.3,3.6-41.1,0.5c-7.7-1.7-15.5-3.3-23.2-5.3c-6.2-1.6-12.3-3.5-18.3-5.6c-2.1-0.7-4-2.3-5.9-3.6
			c-5.3-3.4-9.6-7.8-12.9-13.1c-2.2-3.6-4.6-7-6.8-10.6c-1.2-1.9-2.2-3.9-3-5.9c-1.9-4.9-3.6-9.9-5.3-14.8
			c-3.3-9.4-5.1-19.1-5.9-29.1c-0.7-8.1-0.3-16.1,0.2-24.2c0.4-5.5,1.2-10.9,1.8-16.4c0.1-0.8,0.2-1.6,0.3-2.4
			c0.9-9.1,1.7-18.1,2.7-27.2c0.7-6.4,1.8-12.7,2.6-19.1c0.7-5.4,1.2-10.9,2.1-16.3c1.7-9.9,3.2-19.8,6.6-29.3
			c2.9-8.2,5.6-16.6,9.1-24.6c3.2-7.5,7-14.8,13.1-20.5c2.6-2.5,5.6-4.6,8.4-6.8c2-1.6,3.9-3.4,6.1-4.6c8.2-4.8,16.9-8.3,26.3-10.2
			c5.6-1.1,11.2-2.1,16.7-3.5c10.3-2.5,20.8-2.8,31.3-3.6c1.5-0.1,3-0.4,4.5-0.6c7.2-0.8,14.4,0.3,21.6,0.7
			c7.1,0.4,14.3,0.5,21.3,1.7c6,1,12.3,1.4,17.9,4.3c0.8,0.4,1.8,0.7,2.7,0.7c7.7,0.6,12.7,5.1,16.1,11.4c2.3,4.2,3.7,8.8,4.4,13.6
			c0.7,5.7,2.1,11.2,3,16.9c0.7,4.5,1.1,9,1.5,13.6c0.5,5.5,1,10.9,1.1,16.4c0.2,9,0.1,18,0.1,27C646.8,438,646.6,438,646.5,438z
			 M522.1,615.5c4.4-0.3,8.8-0.7,13.3-0.9c10.9-0.7,21.4-3.3,31.9-5.9c5.7-1.4,11.3-3,16.9-4.6c1.4-0.4,2.8-1,4.2-1.6
			c6-2.6,11.3-6.5,16.7-10.1c2.9-1.9,5.3-4.5,6.3-7.7c3.1-9.5,6.1-19.1,8.7-28.8c1.6-6.2,2.4-12.6,3.3-18.9c1.4-9.8,3-19.6,3.6-29.5
			c0.6-10.5,1.9-20.9,2.5-31.4c0.8-13.6,1.3-27.3,1.8-41c0.2-5.2,0.3-10.5,0.2-15.8c-0.2-6.2-0.9-12.4-1-18.5
			c-0.2-10.8-1.6-21.4-3.7-32c-0.8-3.9-1.8-7.8-3.4-11.4c-1.7-3.5-4.3-6.6-6.7-9.8c-0.4-0.6-1.6-0.8-2.5-0.8c-3.3,0-6.5,0.4-9.8,0.3
			c-9.2-0.3-18.4-0.8-27.6-1.1c-5.1-0.2-10.3-0.3-15.4-0.2c-5,0.1-10,0.9-15,1c-9.6,0.2-19,2.1-28.4,3.7c-4.4,0.8-8.7,1.8-12.9,3.1
			c-3.7,1.1-7.8,1.5-11,4.3c-0.5,0.4-1.3,0.5-1.9,0.8c-8.7,3.2-15.4,9.3-21.1,16.2c-3.2,3.8-5.3,8.8-7.3,13.5
			c-4.7,11.2-8.9,22.6-10.8,34.7c-1.4,9-2.9,18-4.1,27c-1.2,9.4-2.2,18.8-3.3,28.2c-0.5,4.4-1.1,8.8-1.6,13.2
			c-0.5,4.6-0.8,9.3-1.2,13.9c-0.7,8.3-1.8,16.5-1.9,24.8c-0.1,6.4,1.1,12.8,1.6,19.2c0.7,9.4,4.3,17.9,7.6,26.5
			c2,5.4,4.7,10.5,8.1,15.1c3,4.1,5.7,8.5,10.3,11.3c3.1,1.9,6.2,3.4,9.9,4.3c6.1,1.5,12.1,3.6,18.2,5.1
			C504.8,613.4,513.3,615.1,522.1,615.5z"/>
		<path d="M433.3,76.7c7.2,0.3,14.5,0.6,21.7,1c4.8,0.2,9.6,0.3,14.3,0.7c7.9,0.6,15.8,1.4,23.6,2c4.6,0.3,8.6,2.1,12.6,4
			c1.2,0.6,2.3,0.8,3.6,0.5c9.9-2.2,19.9-2,30-1.5c1.7,0.1,3.5,0,5.3,0.1c7.5,0.4,14.3,3.5,20.8,6.7c3.4,1.6,6,5.1,8.7,8
			c3.7,4.1,6.4,8.8,8.5,14c2.3,5.6,5.1,11,7.4,16.6c1.5,3.5,2.6,7.3,3.4,11c3,12.7,5.8,25.5,8.6,38.3c0.6,2.6,0.7,5.3,0.9,8
			c0.5,7.8,0.7,15.6-0.5,23.4c-1.6,10.5-4,20.9-8.5,30.6c-5.7,12.2-12.7,23.8-22.3,33.3c-5.6,5.5-12.5,9.3-20.3,11.3
			c-3.6,0.9-7.2,1.8-10.8,2.9c-8.5,2.7-17.3,3.8-26.1,5c-13,1.9-26.2,3.3-39.2,4.9c-6.8,0.8-13.7,1.7-20.5,2.5
			c-3.1,0.4-6.3,0.5-9.4,0.7c-6.5,0.4-13.1,0.7-19.6,1.3c-15.7,1.5-31.2,0.4-45.4-6.9c-9.7-5-18.7-11.4-23.8-21.5
			c-3.5-6.9-6.7-14.1-8.1-21.9c-1.6-8.8-3.3-17.7-4.7-26.6c-0.6-3.9-0.4-7.9-0.8-11.9c-1.1-8.8-1.1-17.7-0.6-26.6
			c0.2-3.8,0.1-7.7,0.3-11.5c0.5-8.2,1.1-16.3,1.8-24.5c0.4-5.3,0.6-10.7,1.5-16c1.5-8.5,2.2-17.2,5.1-25.4
			c1.6-4.5,4.2-8.4,7.8-11.5c8.8-7.9,18.9-13.2,30.4-15.7c9.7-2.1,19.4-4.5,29.4-4.8c4.9-0.2,9.8,0,14.7,0
			C433.3,77,433.3,76.8,433.3,76.7z M358.6,174.5c0.1,0,0.2,0,0.2,0c0,2.7,0,5.4,0,8.1c0,7.6,0,15.2,0,22.7c0,2.1,0.3,4.2,0.5,6.3
			c0.4,4.9,0.7,9.8,1.4,14.6c0.6,4.5,1.7,8.9,2.5,13.4c0.8,4,1.4,8.1,2.6,12c2.6,8.1,5.1,16.3,12.7,21.6c4.7,3.3,9.3,6.7,14.8,8.6
			c5.5,1.9,11.2,2.5,16.9,2.6c7,0.1,14-0.4,21-0.7c2.7-0.1,5.4-0.3,8-0.5c5-0.3,10-0.4,15-0.9c10-1,20-2.1,30-3.3
			c8.5-1,16.9-2,25.3-3.3c6.3-1,12.6-2.6,18.9-3.4c7.1-1,13.8-3.6,20.7-5.3c0.7-0.2,1.3-0.6,1.9-0.9c6.5-3.2,11.7-7.9,15.9-13.8
			c7.2-10.2,13.5-20.7,16.1-33.1c0.3-1.4,0.6-2.7,0.9-4.1c3.2-12.8,2.8-25.7,0.8-38.6c-0.8-5.2-2.1-10.3-3.4-15.4
			c-2-8.2-4.1-16.3-6.3-24.4c-0.6-2.1-2-4-2.5-6.1c-1.6-6.2-4.5-11.7-7.6-17.3c-4.2-7.6-10.8-11.9-19.2-13
			c-8.1-1.1-16.1-2.4-24.1-4.1c-1.8-0.4-3.6-1-5.4-1.6c-3.7-1.2-7.3-3.3-11.4-1.4c-0.3,0.1-0.7,0.1-1,0.1c-3.5,0-7-0.1-10.5-0.1
			c-12-0.2-24.1-0.4-36.1-0.8c-5.8-0.2-11.6-0.9-17.4-1c-6.5-0.1-13.1-0.1-19.6,0.4c-7.2,0.6-14.3,1.8-21.5,3
			c-11,1.8-20.7,6.1-28.9,13.9c-2.5,2.4-3.8,5.3-4.9,8.3c-0.9,2.6-1.5,5.4-1.9,8.2c-0.9,6.6-1.8,13.2-2.4,19.8
			C359.9,154.7,359.3,164.6,358.6,174.5z"/>
		<path d="M290.2,197.6c-0.5,10.6-0.7,21.3-1.6,31.9c-0.6,7.3-2.2,14.5-3.2,21.8c-0.5,3.2-0.8,6.5-1.3,9.7
			c-0.7,4.3-1.5,8.5-2.2,12.7c-0.4,2.5-0.9,5.1-1.4,7.6c-1,5.6-4,9.8-9.3,11.9c-6.5,2.7-13,5.4-19.7,7.3c-6.3,1.8-12.8,2.7-19.3,3.6
			c-8.7,1.2-17.4,2-26.1,2.8c-3.9,0.4-7.9,0.6-11.9,0.7c-10.7,0.3-21.5,0.7-32.2,0.8c-5.9,0.1-11.9-0.4-17.8-0.6
			c-1.6-0.1-3.3-0.2-4.9-0.1c-9.3,0.5-18.4-0.7-27.4-3c-4.9-1.2-9.6-2.7-14.4-4.2c-1.4-0.4-2.8-1.2-4.2-1.7
			c-3.1-1.1-6.1-2.1-9.2-3.2c-5.8-2-11.1-4.8-15.1-9.7c-4.5-5.5-6.5-11.9-7.5-18.9c-2.4-15.6-1.3-31.2-0.1-46.8
			c0.8-10.8,1.7-21.6,2.6-32.4c0.4-4.1,1.1-8.1,1.6-12.1c1.3-12.2,2.4-24.4,5-36.4c2-9.6,4.5-19.1,8.8-28
			c3.7-7.5,9.1-13.1,17.1-16.1c5.3-2,10.4-4.8,15.9-6.2c9.2-2.3,18.3-4.9,27.5-6.6c8.6-1.6,17.3-2.5,26-3.2c8.5-0.7,17-1.1,25.5-0.9
			c8.4,0.2,16.7,1.4,25.1,2.1c1.7,0.2,3.5,0.3,5.2,0.4c7.1,0.3,14.2,1.5,21.1,3.3c2.3,0.6,4.5,1.9,6.4,3.3c1.4,1,2.6,1.8,4.3,2
			c6.7,0.7,12.5,3.6,17.9,7.3c2.9,2,5.1,4.7,6.8,7.9c6.4,12,8.9,25,9.8,38.4c0.5,7.3,0.9,14.7,1.4,22c0,0.7,0.1,1.4,0.1,2.1
			c0,10.2,0,20.3,0,30.5C289.9,197.6,290.1,197.6,290.2,197.6z M195.7,290c0,0.2,0,0.3,0,0.5c4.2-0.4,8.4-0.7,12.5-1.1
			c5.3-0.5,10.7-0.9,16-1.6c4.8-0.6,9.7-1.5,14.5-2.5c3.8-0.7,7.6-1.4,11.3-2.5c4.2-1.3,8.3-3,12.4-4.8c0.9-0.4,1.7-1.6,1.9-2.6
			c1.1-5.3,2.1-10.5,2.9-15.8c1.5-10.4,3.1-20.8,4.2-31.2c0.9-8.5,1.1-17,1.4-25.5c0.2-6.1-0.1-12.1-0.1-18.2
			c0-5.1,0.3-10.3,0.2-15.4c-0.2-7.3-0.5-14.7-1-22c-0.6-10-2-20-6-29.3c-2.1-4.8-4.3-9.4-9.4-12.2c-2.8-1.5-5.3-3.9-7.3-6.4
			c-1.7-2.1-3.4-2.6-5.9-2.6c-8.8-0.1-17.5-0.3-26.2-0.6c-8.6-0.3-17.3-1-25.9-1.2c-6.1-0.1-12.1,0.4-18.2,0.5
			c-11.2,0.1-22.3,1.3-33.3,3.7c-10,2.2-20.1,4.1-29.6,8.2c-2.7,1.1-5.5,1.9-8.2,3.1c-1.8,0.8-3.8,1.7-5,3.1
			c-2.5,3.2-4.7,6.7-5.7,10.8c-0.4,1.9-1,3.8-1.5,5.7c-1.4,5.6-3.3,11.2-4.2,17c-1.5,9.8-2.3,19.7-3.4,29.6
			c-0.4,4.1-0.8,8.1-1.2,12.2c-0.4,4.5-0.7,9.1-1.1,13.6c-0.9,12.6-2,25.1-2.7,37.7c-0.3,5.5-0.4,11,0.1,16.4
			c0.4,4.6,1.3,9.3,2.4,13.7c1,3.7,3.6,6.5,7.3,8c5.5,2.1,11.2,4.1,16.7,6.2c9,3.6,18.2,5.8,27.9,5.9c3.6,0,7.2-0.1,10.9,0
			c9.9,0.2,19.8,0.6,29.8,0.8c4.4,0.1,8.9-0.2,13.3-0.4C189,290.6,192.4,290.2,195.7,290z"/>
	</g>
	<path d="M617.9,0.7c-4.2-0.5-8.4-0.7-12.7-0.7c-2.4,0-4.8,0-7.3,0c-46.4,0-92.8,0-139.2,0c-0.5,0-0.9,0-1.4,0c-5,0-10.1,0-15.1,0
		c-1.3,0-2.6,0-3.9,0C394.7,0,351,0,307.3,0c-5.5,0-11,0-16.5,0C247.9,0,205,0,162.1,0c-5.3,0-10.5,0-15.8,0c-10.5,0-21,0-31.5,0
		c-12.6,0-24.8,2.1-36.2,5.9c-5.4,1.8-10.6,4-15.7,6.6c-10.3,5.3-19.7,12-27.9,20c-3.3,3.2-6.5,6.7-9.4,10.3
		C9.6,62.5,0,87.5,0,114.7c0,22.6,0,45.2,0,67.7c0,4,0,8,0,12v410.9c0,0,0,0,0,0c0,48.3,30.3,89.9,72.8,106.7
		c7.2,2.9,14.8,5,22.6,6.3c6.3,1.1,12.7,1.6,19.3,1.6c112.8,0,225.6,0,338.4,0c5.4,0,10.8,0,16.2,0c45.3,0,90.6,0,135.9,0
		c63.1,0,114.7-51.6,114.7-114.7c0-137.1,0-274.1,0-411.2c0-3.9,0-7.7,0-11.6c0-13.4,0-26.7,0-40.1c0-7.6,0-15.2,0-22.9
		c0-1.6,0-3.2,0-4.8C720,55.9,675.1,7.1,617.9,0.7z M705.8,126.1v56.3v11.7v411.2c0,26.7-10.5,52-29.6,71
		c-19.1,19.1-44.3,29.6-71,29.6H481.5h-16H130.8h-16.1c-5.1,0-10.1-0.4-15.1-1.1c-21-3.2-40.5-13-55.9-28.4
		c-19.1-19.1-29.6-44.3-29.6-71V194.4v-12.2v-67.5c0-22.1,7.2-43.1,20.4-60.5c2.8-3.6,5.8-7.1,9-10.4c0,0,0.1-0.1,0.1-0.1
		c11.6-11.6,25.6-20.1,40.8-24.9c6.5-2.1,13.2-3.4,20-4.1c3.4-0.3,6.8-0.5,10.2-0.5h42.2h16.3h128.9H319h130.8h7.8h11.7h4.3h131.7
		c1.5,0,3.1,0,4.6,0.1c8,0.4,15.9,1.7,23.5,3.9c16,4.7,30.7,13.4,42.9,25.5c16.1,16.1,26.1,36.7,28.8,58.8c0.5,4,0.7,8.1,0.7,12.2
		V126.1z"/>
</g>
</svg>
