<?xml version="1.0" encoding="utf-8"?>
<!-- Generator: Adobe Illustrator 25.0.0, SVG Export Plug-In . SVG Version: 6.00 Build 0)  -->
<svg version="1.1" xmlns="http://www.w3.org/2000/svg" xmlns:xlink="http://www.w3.org/1999/xlink" x="0px" y="0px"
	 viewBox="0 0 720 720" style="enable-background:new 0 0 720 720;" xml:space="preserve">
<style type="text/css">
	.st0{fill:none;}
</style>
<g id="Capa_1">
</g>
<g id="Capa_2">
	<path class="st0" d="M295,96.8c1.1-3.3,2.4-6.6,3.6-10.1c3.3,2.1,6.8,2.6,10.1,4.5c6.9,4,14.3,7.4,21.7,10.2
		c30.5,11.6,62,16.2,94.5,12.1c9.8-1.2,19.3-3.6,28.2-8.1c1-0.5,1.4-1.1,1.4-2.3c-0.3-8.4-0.5-16.7-0.8-25.1c0-0.3-0.1-0.6-0.2-1.1
		c-0.6,0.2-1.1,0.4-1.6,0.5c-6.2,2.5-12.7,4.1-19.3,5.2c-18.2,3-36.3,2.1-54.4-0.9c-31.9-5.2-61.6-16.2-89.7-32
		c-0.5-0.3-1-0.5-1.6-0.9c-0.6,1.7-1.2,3.2-1.8,4.7c-10.5,28.7-20.8,57.4-31.4,86c-20.6,56-41.2,112-61.9,168
		c-3,8.1-6.7,16-10.3,24.5c-0.6-1.1-1-1.7-1.3-2.3c-6-10.9-13.8-20.3-23.6-28c-13.1-10.4-27.9-16.3-44.6-17.7
		c-17.1-1.4-32.9,3.2-47.6,11.4c-4.5,2.5-8.6,5.8-12.4,9.2c-37.5,33.9-40.2,93.9-5.5,131.2c22.1,23.8,49.6,32.9,81.4,25
		c27.5-6.9,45.8-25.1,56.8-51c1.7-4,3.2-8,4.7-12.1c2.5-6.9,4.8-13.8,7.4-20.6c1.8-4.8,4.2-9.4,5.9-14.3c3.4-9.6,6.5-19.4,9.9-29
		c3.4-9.8,7.2-19.6,10.5-29.4c5.9-17.5,11.6-35,17.5-52.5c9.8-28.7,19.7-57.4,29.5-86.1c1.6-4.8,2.9-9.7,4.7-14.4
		c3.1-7.9,6.8-15.6,9.7-23.6C288.4,117.5,291.5,107.1,295,96.8z"/>
	<path class="st0" d="M600,411c10.1-85.7-1.4-168.4-36.4-247.5c-21-47.6-49.6-90.3-85-128.3c-6.7-7.2-13.7-14.2-20.9-21h-7.8H319
		h-16.8H173.2h-16.3h-42.2c-3.4,0-6.9,0.2-10.2,0.5c56,21.4,104.3,55.4,145.4,100.8c0.9,1,1.9,2,2.9,3.2c0.3-0.8,0.6-1.3,0.8-1.8
		c8.5-23.3,16.9-46.6,25.4-69.8c0.1-0.4,0.2-0.8,0.5-1.1c1-1.3,1.7-2.7,2.1-4.4c0.4-1.9,2.7-2.8,4.8-2c1.1,0.4,2.2,1,3.3,1.7
		c28,16.5,58,27.3,90.1,32.4c17.9,2.8,35.8,3.5,53.7,0.2c9-1.7,17.6-4.5,25.4-9.5c0.2-0.1,0.5-0.2,1-0.5c0.2,1.3,0.4,2.5,0.5,3.7
		c1,9.6,2,19.2,3.1,28.8c0.3,3.1,0.8,6.1,1.2,9.1c0.3,2.5-1.9,5.1-4.4,5.7c-1.2,0.3-2.4,0.6-3.4,1.2c-10.7,5.2-22.1,8.1-33.9,9.1
		c-38.9,3.4-75.9-3.5-111-20.7c-2.4-1.1-4.6-2.5-7-3.8c-0.2,0.5-0.4,0.8-0.5,1.2c-2.3,7.1-4.4,14.2-6.9,21.2
		c-2.8,7.9-6,15.7-9.1,23.6c-1.6,4.1-3.1,8.3-4.8,12.4c-0.7,1.7-0.4,2.9,0.6,4.3c19.1,28.9,34.1,59.8,44.8,92.8
		c16.7,51.4,22.8,104,17.2,157.8c-7.7,74.6-35,141.2-83.5,198.7c-36.6,43.4-80.6,75.6-131.8,96.7h334.8
		c35.9-41.1,65.8-86.4,88.9-136.1C578,519.2,593.5,466.4,600,411z"/>
	<path class="st0" d="M296.5,537.4c20.7-39.9,33.3-82.2,37.8-126.9c8.6-85.3-10.1-164.3-54.8-237.4c-0.4-0.6-0.8-1.2-1.2-1.9
		c-0.2,0.4-0.4,0.6-0.5,0.9c-11.6,33.5-23.9,66.7-34.7,100.5c-11.5,35.8-25.2,70.8-37.1,106.5c-2.7,8.1-5.5,16-7.9,24.2
		c-9.3,31.7-28.8,54.8-60.4,65.5c-35.9,12.2-67.9,3.6-94.4-22.9C4.1,406.7,5.5,339.7,45.8,301.7c4.4-4.1,9.3-7.7,14.3-11.1
		c17.5-12,37.1-16,57.9-13.7c26,2.9,47,15.1,63,35.7c0.4,0.5,0.8,1,1.3,1.6c0.2-0.4,0.4-0.7,0.5-1c21.7-60.3,43.4-120.6,65.2-181
		c0.5-1.4,0.3-2.3-0.6-3.4c-44.8-52.3-99-89.1-162.9-110.1c-15.2,4.8-29.1,13.2-40.8,24.9c0,0-0.1,0.1-0.1,0.1
		c-3.3,3.3-6.3,6.7-9,10.4c-13.2,17.4-20.4,38.4-20.4,60.5v67.5v12.2v410.8c0,26.7,10.5,52,29.6,71c15.4,15.4,34.9,25.2,55.9,28.4
		C183.9,677.9,254.5,618.4,296.5,537.4z"/>
	<path class="st0" d="M676.3,43.7c-12.2-12.2-26.9-20.9-42.9-25.5c-7.6-2.2-15.5-3.5-23.5-3.9c-1.5-0.1-3.1-0.1-4.6-0.1H473.6
		c40.6,40,73.2,85.8,97.5,137.7c19.6,42,32.7,85.9,39.3,131.7c12.1,84.4,2.5,166.6-26.5,246.6c-23.5,64.9-58.1,123.1-102.3,175.6
		h123.7c26.7,0,52-10.5,71-29.6c19.1-19.1,29.6-44.3,29.6-71V194.1v-11.7v-56.3v-11.4c0-4.1-0.3-8.2-0.7-12.2
		C702.4,80.4,692.4,59.8,676.3,43.7z"/>
	<path d="M262.6,609.1c48.4-57.4,75.7-124,83.5-198.7c5.6-53.8-0.5-106.4-17.2-157.8c-10.7-32.9-25.8-63.8-44.8-92.8
		c-1-1.5-1.3-2.7-0.6-4.3c1.7-4.1,3.2-8.3,4.8-12.4c3-7.9,6.2-15.7,9.1-23.6c2.5-7,4.6-14.1,6.9-21.2c0.1-0.4,0.3-0.7,0.5-1.2
		c2.4,1.3,4.6,2.7,7,3.8c35.1,17.1,72.1,24.1,111,20.7c11.8-1,23.2-3.9,33.9-9.1c1.1-0.5,2.3-0.9,3.4-1.2c2.5-0.6,4.6-3.2,4.4-5.7
		c-0.3-3.1-0.8-6.1-1.2-9.1c-1-9.6-2-19.2-3.1-28.8c-0.1-1.2-0.3-2.4-0.5-3.7c-0.5,0.2-0.7,0.3-1,0.5c-7.8,5-16.4,7.8-25.4,9.5
		c-17.9,3.3-35.8,2.6-53.7-0.2c-32.1-5.1-62.1-15.9-90.1-32.4c-1.1-0.6-2.1-1.2-3.3-1.7c-2.1-0.7-4.4,0.1-4.8,2
		c-0.4,1.7-1.1,3.1-2.1,4.4c-0.2,0.3-0.3,0.7-0.5,1.1c-8.5,23.3-16.9,46.6-25.4,69.8c-0.2,0.5-0.4,1-0.8,1.8c-1.1-1.2-2-2.2-2.9-3.2
		c-41.1-45.5-89.4-79.5-145.4-100.8c-6.8,0.7-13.5,2.1-20,4.1c63.8,21,118,57.8,162.9,110.1c1,1.1,1.2,2,0.6,3.4
		c-21.8,60.3-43.5,120.6-65.2,181c-0.1,0.3-0.3,0.6-0.5,1c-0.5-0.6-0.9-1.1-1.3-1.6c-16.1-20.6-37.1-32.8-63-35.7
		c-20.8-2.3-40.4,1.7-57.9,13.7c-5,3.4-9.9,6.9-14.3,11.1c-40.3,38-41.7,105-2.5,144.2c26.6,26.5,58.6,35.1,94.4,22.9
		c31.6-10.8,51.1-33.8,60.4-65.5c2.4-8.2,5.2-16.1,7.9-24.2c11.8-35.7,25.6-70.7,37.1-106.5c10.8-33.7,23.1-67,34.7-100.5
		c0.1-0.3,0.3-0.5,0.5-0.9c0.5,0.7,0.9,1.3,1.2,1.9c44.7,73,63.4,152.1,54.8,237.4c-4.5,44.7-17.2,87-37.8,126.9
		c-42,81-112.6,140.5-196.9,167.3c5,0.8,10,1.1,15.1,1.1h16.1C181.9,684.7,226,652.5,262.6,609.1z M274.9,151.3
		c-1.8,4.7-3.1,9.6-4.7,14.4c-9.8,28.7-19.8,57.4-29.5,86.1c-5.9,17.5-11.6,35-17.5,52.5c-3.3,9.9-7.1,19.6-10.5,29.4
		c-3.4,9.7-6.5,19.4-9.9,29c-1.7,4.8-4.1,9.5-5.9,14.3c-2.6,6.8-4.9,13.8-7.4,20.6c-1.5,4.1-3,8.1-4.7,12.1
		c-10.9,25.9-29.2,44.1-56.8,51c-31.8,8-59.2-1.1-81.4-25c-34.7-37.3-32-97.3,5.5-131.2c3.8-3.4,7.9-6.7,12.4-9.2
		c14.8-8.2,30.5-12.8,47.6-11.4c16.7,1.4,31.5,7.3,44.6,17.7c9.8,7.7,17.6,17.1,23.6,28c0.3,0.6,0.7,1.2,1.3,2.3
		c3.6-8.5,7.3-16.3,10.3-24.5c20.7-56,41.3-112,61.9-168c10.5-28.6,20.9-57.3,31.4-86c0.6-1.5,1.2-3,1.8-4.7
		c0.6,0.3,1.1,0.6,1.6,0.9c28,15.9,57.8,26.9,89.7,32c18.1,2.9,36.2,3.8,54.4,0.9c6.6-1.1,13.1-2.7,19.3-5.2c0.5-0.2,1-0.3,1.6-0.5
		c0.1,0.5,0.2,0.8,0.2,1.1c0.3,8.4,0.5,16.7,0.8,25.1c0,1.2-0.3,1.8-1.4,2.3c-8.9,4.5-18.4,6.8-28.2,8.1c-32.5,4.1-64-0.5-94.5-12.1
		c-7.5-2.8-14.8-6.2-21.7-10.2c-3.2-1.8-6.8-2.4-10.1-4.5c-1.3,3.5-2.5,6.8-3.6,10.1c-3.4,10.3-6.6,20.7-10.3,30.8
		C281.8,135.6,278,143.3,274.9,151.3z"/>
	<path d="M610.3,283.6c-6.6-45.8-19.7-89.7-39.3-131.7c-24.3-52-56.9-97.8-97.5-137.7h-4.3h-11.7c7.2,6.8,14.2,13.8,20.9,21
		c35.5,38.1,64,80.7,85,128.3C598.5,242.6,610,325.3,600,411c-6.5,55.3-21.9,108.2-45.4,158.6c-23.1,49.8-53,95-88.9,136.1h16
		c44.2-52.4,78.8-110.7,102.3-175.6C612.8,450.2,622.4,368.1,610.3,283.6z"/>
	<path d="M617.9,0.7c-4.2-0.5-8.4-0.7-12.7-0.7c-2.4,0-4.8,0-7.3,0c-46.4,0-92.8,0-139.2,0c-0.5,0-0.9,0-1.4,0c-5,0-10.1,0-15.1,0
		c-1.3,0-2.6,0-3.9,0C394.7,0,351,0,307.3,0c-5.5,0-11,0-16.5,0C247.9,0,205,0,162.1,0c-5.3,0-10.5,0-15.8,0c-10.5,0-21,0-31.5,0
		c-12.6,0-24.8,2.1-36.2,5.9c-5.4,1.8-10.6,4-15.7,6.6c-10.3,5.3-19.7,12-27.9,20c-3.3,3.2-6.5,6.7-9.4,10.3
		C9.6,62.5,0,87.5,0,114.7c0,22.6,0,45.2,0,67.7c0,4,0,8,0,12v410.9c0,0,0,0,0,0c0,48.3,30.3,89.9,72.8,106.7
		c7.2,2.9,14.8,5,22.6,6.3c6.3,1.1,12.7,1.6,19.3,1.6c112.8,0,225.6,0,338.4,0c5.4,0,10.8,0,16.2,0c45.3,0,90.6,0,135.9,0
		c63.1,0,114.7-51.6,114.7-114.7c0-137.1,0-274.1,0-411.2c0-3.9,0-7.7,0-11.6c0-13.4,0-26.7,0-40.1c0-7.6,0-15.2,0-22.9
		c0-1.6,0-3.2,0-4.8C720,55.9,675.1,7.1,617.9,0.7z M705.8,126.1v56.3v11.7v411.2c0,26.7-10.5,52-29.6,71
		c-19.1,19.1-44.3,29.6-71,29.6H481.5h-16H130.8h-16.1c-5.1,0-10.1-0.4-15.1-1.1c-21-3.2-40.5-13-55.9-28.4
		c-19.1-19.1-29.6-44.3-29.6-71V194.4v-12.2v-67.5c0-22.1,7.2-43.1,20.4-60.5c2.8-3.6,5.8-7.1,9-10.4c0,0,0.1-0.1,0.1-0.1
		c11.6-11.6,25.6-20.1,40.8-24.9c6.5-2.1,13.2-3.4,20-4.1c3.4-0.3,6.8-0.5,10.2-0.5h42.2h16.3h128.9H319h130.8h7.8h11.7h4.3h131.7
		c1.5,0,3.1,0,4.6,0.1c8,0.4,15.9,1.7,23.5,3.9c16,4.7,30.7,13.4,42.9,25.5c16.1,16.1,26.1,36.7,28.8,58.8c0.5,4,0.7,8.1,0.7,12.2
		V126.1z"/>
</g>
</svg>
