<?xml version="1.0" encoding="utf-8"?>
<!-- Generator: Adobe Illustrator 25.0.0, SVG Export Plug-In . SVG Version: 6.00 Build 0)  -->
<svg version="1.1" xmlns="http://www.w3.org/2000/svg" xmlns:xlink="http://www.w3.org/1999/xlink" x="0px" y="0px"
	 viewBox="0 0 720 720" style="enable-background:new 0 0 720 720;" xml:space="preserve">
<g id="Capa_1">
</g>
<g id="Capa_2">
	<g>
		<path d="M0,319.9c5.8-0.2,11.6-0.7,17.4-0.7c12,0,24.1,0.2,36.1,0.5c6,0.2,12,1,18,1.3c8.1,0.5,16.1,0.8,24.2,1.2
			c4.6,0.2,9.2,0.5,13.8,0.7c4.6,0.2,9.2,0.2,13.8,0.4c7,0.2,13.9,0.4,20.9,0.8c6.1,0.3,12.1,0.8,18.2,1.2c2.6,0.2,5.2,0.5,7.9,0.8
			c0-1.6,0-2.9,0-4.2c0.1-6.9-0.8-13.6-2.7-20.4c-2.7-9.8-7-19-10.7-28.4c-3-7.6-6.6-15-9.2-22.7c-2.8-8.2-5.8-16.4-7-25.2
			c-1.1-7.7-2.9-15.3-3.8-23c-0.6-5-0.5-10.1-0.2-15.1c0.3-5.5,0.8-11,1.7-16.4c1.3-7.8,4.4-15,9-21.5c1.8-2.6,3.8-5.1,5.9-7.6
			c3.8-4.6,9.1-7.1,14.5-9.3c5.5-2.2,11.5-2.9,17.4-2.8c4.8,0,9.6,0.5,14.3,1.5c6.8,1.4,13.7,2.9,20.2,5.2
			c10.4,3.8,20.3,8.8,28.4,16.7c3.1,3.1,6.4,6,9.4,9.2c5.6,6.1,9.9,13,12.9,20.7c2.3,5.8,4,11.8,4.6,17.9c0.4,4.1,0.4,8.2,0,12.3
			c-0.6,6.5-1.1,13-2.5,19.3c-1.4,6.4-3.6,12.6-5.8,18.8c-2.1,5.8-4.5,11.6-6.9,17.3c-2.7,6.2-5.8,12.1-8.5,18.3
			c-2.2,4.9-4,10-5.9,15c-0.7,1.9-1.3,3.8-1.8,5.7c-0.3,1-0.4,2-0.6,3.5c2-0.1,3.8-0.3,5.6-0.3c4.7,0,9.3,0,14,0
			c3.5,0,6.9,0,10.3-0.1c5.9-0.1,11.8-0.3,17.7-0.4c7.7-0.2,15.4-0.4,23.2-0.4c6.5-0.1,13,0,19.5,0c1,0,1.4-0.2,1.5-1.2
			c0.1-6.6,0.3-13.2,0.4-19.8c0.1-4.3-0.1-8.5,0-12.8c0.2-9.2,0.6-18.5,0.9-27.7c0.3-7.8,0.5-15.7,1-23.5c0.2-2.9,0.7-5.8,1.3-8.7
			c0.9-3.6,6.4-7,10.5-6.5c1.9,0.2,3.9,0.8,5.7,1.5c8.3,3.5,16,8,23.1,13.6c5.6,4.4,11.9,8.1,19,9.5c4.4,0.9,8.8,2.1,13.3,1.6
			c0.3,0,0.7-0.1,1.1,0c4,1,8.2,0.4,12-0.4c6.6-1.3,13.5-1.6,19.7-4.8c2.9-1.5,6.3-2.3,9.2-3.9c3.3-1.8,6.4-4,9.6-6.1
			c7.2-4.8,12.5-11.5,17.8-18.1c3.1-3.8,6.2-7.8,7.9-12.6c1.4-3.8,3.3-7.3,5-11c0.3-0.6,0.5-1.3,0.7-2c1.2-5.8,2.2-11.6,3.6-17.3
			c1.3-5.3,1.5-10.7,0.9-16c-0.5-4.5-1.5-8.8-2.3-13.3c-0.1-0.8-0.5-1.6-0.6-2.4c-1.2-6.8-5.2-11.6-10.6-15.5
			c-0.9-0.7-2.1-1.1-3.2-1.3c-7-1.6-14-2.7-21.1-0.3c-5.9,2-11.8,4-17.8,6c-0.8,0.3-1.5,0.6-2.2,1c-5.6,3.2-11.3,6.1-16.7,9.6
			c-5,3.2-9.5,7-14.3,10.5c-2.7,2-5.5,4-8.2,6c-3.8,2.8-7.5,5.8-11.3,8.5c-2.1,1.5-4.3,2.9-6.6,3.9c-3.4,1.5-6.9,3.3-10.5,3.9
			c-7.3,1.3-14.8,2.6-22.2-0.5c-0.4-0.2-1-0.2-1.5-0.1c-4,0.6-7.3-1.4-8-5.3c-0.5-3.1-0.4-6.3-0.7-9.4c-0.1-1.6-0.4-3.2-0.5-4.9
			c-0.7-8.5-1.6-16.9-2-25.4c-0.5-11-0.7-22-0.9-33c-0.1-7,0-13.9,0-20.9c0-7.7-0.1-15.3,0-23c0.1-5.7,0.4-11.3,0.5-17
			c0.1-6.9-0.1-13.8-0.1-20.7c3.6,0,7.3,0,10.9,0c0.4,10.4,0.8,20.8,1.1,31.2c0.3,11,0.5,22,0.6,33c0.1,9,0.1,18,0.3,27
			c0.1,5.8,0.5,11.6,0.8,17.4c0.4,6.7,0.7,13.3,1.2,20c0.3,4.7,0.9,9.3,1.3,14c0.2,2,0.2,4.1,0.2,6.1c0,1.2,0.3,1.8,1.6,1.7
			c7.5-0.5,14.8-1.7,21.5-5.7c7-4.3,13.3-9.5,19.8-14.5c6.3-4.8,12.6-9.7,19.2-14.2c9.9-6.7,20.7-11.9,31.8-16.3
			c6.4-2.6,13.2-4.1,20.2-4.2c7.1-0.1,14.2,0.2,20.9,2.9c5.7,2.3,10.1,6.5,14.2,11c3,3.3,4.6,7.2,6.1,11.3c3.2,9,5.2,18.1,5.5,27.6
			c0.2,6.3-0.5,12.6-1.8,18.8c-1.1,4.9-1.9,9.9-3.4,14.7c-2.3,7.1-5.1,14-9.1,20.3c-1.4,2.2-2.5,4.5-4.1,6.6
			c-6.5,8.7-13.7,16.7-22.4,23.4c-5.1,3.9-10.4,7.4-16.2,10c-6.5,2.9-13.2,5.6-20.3,7.2c-9.5,2.1-19,3.1-28.7,2.6
			c-10-0.4-19.4-2.6-28.3-7.3c-5.4-2.8-10.3-6.1-15.1-9.9c-4.2-3.3-9.1-5.7-13.7-8.5c-0.4-0.2-0.9-0.3-1.5-0.5c0.1,1.1,0.1,2,0.1,3
			c0.2,6.7,0.5,13.3,0.7,20c0.1,4.3,0.2,8.6,0.2,13c0,6.3-0.1,12.6-0.2,18.9c0,5.4-0.1,10.9-0.1,16.3c-0.1,3.4-0.2,6.9-0.3,10.3
			c0,0.2,0,0.5,0,0.7c0,3.1,0.5,3.7,3.5,4.5c6.2,1.7,12.6,1.8,19,2.2c6.7,0.5,13.4,1,20.1,1.5c5.8,0.4,11.5,0.9,17.3,1.3
			c5.5,0.4,11,0.7,16.5,0.9c4,0.1,7.9-0.1,11.9-0.1c3.3,0,6.6,0.3,9.8,0.2c4.3,0,8.6-0.2,13-0.4c7.3-0.3,14.5-0.6,21.8-0.9
			c2.1-0.1,4.2-0.4,6.3-0.5c3.8-0.1,6.3,2,7.1,5.7c0.1,0.7,0.3,1.4,0.8,1.9c2.8,3,3.2,6.8,3.5,10.6c0.7,7.7-1.4,14.9-4.1,21.9
			c-1.8,4.7-4.4,9.3-5.8,14.1c-1.7,5.6-4,11.1-4.7,17c-0.6,4.5-1.4,9-1.3,13.6c0.1,4.2-0.1,8.4,0.5,12.4c0.9,5.7,2.6,11.3,6,16.2
			c2.6,3.7,5,7.7,8.1,10.9c5.5,5.8,11.8,10.8,19.2,14.3c4.1,2,8.2,3.8,12.8,4.2c5.7,0.5,11.2,0.7,16.8-1c5.4-1.6,9.9-4.3,13.2-8.7
			c2-2.7,3.3-5.9,4.8-8.9c2.8-5.6,3.6-11.7,4.5-17.8c1.4-9,1.9-18.1,2-27.3c0.1-6.2-0.2-12.3-1.1-18.4c-0.4-3-0.5-6-0.8-9
			c-0.7-7.7-2-15.3-3.8-22.8c-1.9-8.2-5.5-15.7-8-23.6c-0.2-0.7-0.7-1.2-1-1.8c-2.7-4.2-3-9.2,1.7-12.9c4.3-3.3,8.9-5,14-5.9
			c3.8-0.6,7.5-1.7,11.3-2.6c0.6-0.1,1.2-0.4,1.9-0.5c7-1.2,14.1-2.4,21.1-3.4c5.6-0.8,11.2-1.3,16.7-1.9c7.3-0.8,14.6-1.5,22-2.3
			c3.6-0.3,7.1-0.6,10.7-0.8c5.2-0.3,10.4-0.6,15.6-0.6c9.4,0,18.7,0.2,28.1,0.3c2.5,0,4.9-0.2,7.4-0.2c4,0.1,7.9,0.4,11.9,0.6
			c0,5,0,10.1,0,15.1c-1.9-0.1-3.7-0.2-5.6-0.2c-5.9-0.2-11.8-0.4-17.7-0.4c-8.7-0.1-17.4-0.2-26.2-0.1c-6.1,0.1-12.2,0.6-18.2,1
			c-7.5,0.5-15.1,1-22.6,1.7c-7.4,0.7-14.8,1.5-22.1,2.5c-6.1,0.8-12.2,1.7-18.2,2.6c-2.2,0.3-4.3,1-6.5,1.4
			c-3.3,0.6-6.6,1.1-9.9,1.6c-0.4,0.1-0.7,0.2-1.2,0.4c1.4,3.6,2.8,7.2,4,10.8c2.2,7.2,4.4,14.4,6.3,21.7c2.8,10.3,3.6,21,4.7,31.6
			c1.2,11.9,0.8,23.8-0.4,35.8c-0.9,8.6-2.1,17.1-4.7,25.3c-2.4,7.5-6,14.3-11,20.4c-5.2,6.3-11.9,9.7-19.5,11.7
			c-11.1,3-22,2.3-32.8-1.1c-7.9-2.5-14.9-6.7-21.2-12c-0.5-0.5-1-1-1.6-1.4c-8.8-6.2-14.5-14.8-19.5-24c-5.1-9.4-7-19.5-6.7-30.2
			c0.1-3.7,0-7.5,0.4-11.2c0.7-5.1,1.5-10.2,2.8-15.2c2.6-9.6,6.6-18.7,11-27.7c3.1-6.4,5.5-13.1,4.6-20.4c0-0.3-0.1-0.7-0.1-1.2
			c-0.6,0-1.1,0-1.6,0c-6.4,0.3-12.7,0.5-19.1,0.8c-5.5,0.3-11.1,0.7-16.6,0.8c-5.4,0.1-10.8,0-16.1,0c-2,0-4.1,0.1-6.1,0.1
			c-1,0-2,0.2-3,0.1c-6-0.2-12.1-0.4-18.1-0.8c-6.5-0.5-12.9-1.4-19.4-2c-2.6-0.3-5.3-0.4-7.9-0.6c-3.8-0.3-7.6-0.6-11.4-0.8
			c-2.1-0.2-4.2-0.2-6.3-0.5c-3.4-0.5-6.8-1.2-10.2-1.8c-0.7-0.1-1.5-0.3-2.4-0.5c-0.3,2.1-0.8,4.1-0.8,6.1
			c-0.5,13.6-1,27.1-1.5,40.7c-0.2,5.4-0.5,10.8-0.7,16.1c-0.1,3.3,0,6.5,0,9.8c-0.1,2.6-0.4,5.3-0.4,7.9c0,10.7,0.2,21.4,0.2,32.1
			c0,2.2-0.8,4.3-1.2,6.5c-0.1,0.7-0.2,1.6,0.1,2.2c0.8,1.6,0.9,3.1,0.1,4.6c-0.8,1.4-1.7,2.8-2.9,3.7c-2.7,2.1-5.7,3.9-9.2,4.4
			c-6.6,0.9-13.1,1.5-19.7,0.7c-5.8-0.6-11.7-0.7-17.5-0.6c-6.2,0.1-12.4,0.6-18.5,1.2c-2,0.2-3.9,0.9-5.8,1.3
			c-3.9,0.9-8,1.5-11.8,2.8c-6,2-11.7,4.6-16.8,8.6c-5.6,4.4-9.5,10.1-12.8,16.1c-2.2,4-3.6,8.6-4.6,13c-1.3,5.6-2.2,11.3-2.7,16.9
			c-0.5,5.5,0.9,10.9,2.2,16.3c1,4.3,3.1,8.1,5.2,11.8c3.4,6,8.3,10.7,14.1,14.4c5.1,3.2,10.7,5.1,16.7,5.6c2.9,0.2,5.8-0.3,8.7-0.9
			c2.9-0.6,5.8-1.6,8.5-2.7c6.1-2.4,11.7-5.8,17.1-9.5c8.2-5.6,16.5-11,24.7-16.5c2.3-1.5,4.3-3.5,6.7-4.8
			c6.8-3.9,13.7-7.7,20.6-11.3c3.4-1.8,7-2.3,10.6-0.1c0.4,0.2,0.9,0.3,1.3,0.3c2.7-0.2,4.6,1.1,5.2,3.5c1.2,4.6,2.7,9.2,3,13.9
			c0.6,9.9,0.6,19.8,0.6,29.7c0,8.6-0.1,17.2-0.3,25.8c-0.1,8.2-0.4,16.4-0.5,24.6c-0.2,9.2-0.4,18.5-0.6,27.7
			c-0.2,6.4-0.6,12.8-0.7,19.1c-0.1,10.3-0.1,20.6-0.1,30.9c0,4.7-0.2,9.4-0.3,14.1c0,3.5,0,7,0,10.5c-4.5,0-8.9,0-13.4,0
			c0-7.7,0-15.4-0.1-23.2c0-5.4-0.1-10.9-0.1-16.3c0-5.1,0.1-10.2,0.1-15.3c0-2.6-0.2-5.3-0.1-7.9c0.1-3.7,0.3-7.4,0.4-11
			c0.1-6.8,0.2-13.6,0.3-20.3c0.1-5.9,0.1-11.8,0.2-17.7c0.1-6.1,0.2-12.3,0.4-18.4c0.3-9.5,0.6-19.1,0.9-28.6c0.1-2.9,0-5.7,0-8.6
			c0-1,0.1-2.1,0.2-3.1c0.5-4.8,0.2-9.5-0.8-14.2c-0.1-0.3-0.2-0.5-0.4-1.1c-2.5,1.3-5,2.5-7.4,3.8c-2.7,1.5-5.5,2.9-8.1,4.5
			c-5,3.1-9.8,6.3-14.7,9.5c-6.3,4.1-12.5,8.2-18.8,12.3c-1.3,0.8-2.4,1.8-3.7,2.6c-6.5,4.1-13.3,7.5-20.7,9.4
			c-3.3,0.9-6.7,1.8-10,2.6c-6.6,1.4-13.1,0.6-19.6-0.8c-6-1.3-11.2-4.2-16.1-7.5c-3.4-2.3-6.4-5.5-9.4-8.4
			c-4.7-4.7-7.7-10.6-10.6-16.5c-1.3-2.6-2.3-5.4-3-8.2c-1.3-5.7-2.5-11.4-2.5-17.3c-0.1-10.1,2.1-19.8,5.2-29.3
			c3-9,7.4-17.1,13.9-24.1c6.5-6.9,14.1-11.9,22.9-15.4c8.3-3.2,17-4.2,25.6-6c11.2-2.4,22.6-1.5,33.9-0.9
			c6.9,0.3,13.8,0.5,20.6,0.7c1.5,0,3-0.3,4.5-0.5c-0.7-2.2-1.5-4.2-1.8-6.2c-1.3-9.3-1.4-18.7-1-28c0.2-3.7-0.1-7.5,0.1-11.2
			c0.3-7.3,0.9-14.6,1.2-21.9c0.2-5.1,0.2-10.3,0.4-15.4c0.1-2.7,0.4-5.5,0.6-8.2c0.6-7.5,1.2-15,1.8-22.6c0.1-1.6,0.6-3.2,0.8-4.9
			c0.1-1,0-2.1,0-3.1c-0.6,0-0.9-0.1-1.3-0.1c-4.6,0.3-9.1,0.7-13.7,0.9c-4.3,0.2-8.7,0.1-13,0.1c-10.5,0.2-20.9,0.4-31.4,0.5
			c-5.8,0.1-11.6,0-17.4,0c-4.6,0-9.2-0.3-13.7,0.3c-10.1,1.3-15.7-8.9-15.2-15.8c0.6-8.6,3.6-16.3,7-23.9c1.8-4.2,3.6-8.4,5.5-12.5
			c1.6-3.6,3.4-7.2,5-10.8c0.8-1.7,1.1-3.6,1.8-5.3c1.9-5.1,4.1-10.1,5.7-15.3c2.2-7.2,3.7-14.6,4.4-22.2c0.4-4.6,0.9-9.3,0.6-13.8
			c-0.3-4.9-1.3-9.7-2.6-14.5c-1.7-6.7-5.3-12.6-9.6-18c-2.7-3.4-5.8-6.6-9.1-9.5c-3.3-3-6.8-5.8-10.5-8.2c-3-2-6.3-3.3-9.5-4.9
			c-2-1-4-2.2-6.2-3c-6.7-2.2-13.4-4.6-20.5-5.4c-6.6-0.8-13.3-1.2-19.9,0.5c-6.8,1.7-12,5.6-16.3,11.2c-6.4,8.4-8.6,18-8.9,28.3
			c-0.1,4.6-0.5,9.2-0.2,13.8c0.4,7.9,2.1,15.6,4.1,23.3c1.4,5.7,2.8,11.4,4.5,17c1,3.3,2.5,6.5,3.8,9.8c0.3,0.7,0.6,1.4,0.9,2.1
			c2.3,5.6,4.5,11.3,6.9,16.9c2.3,5.5,5.2,10.8,7.1,16.4c3.2,9.3,7.3,18.3,8.7,28.1c0.9,6.1,1.7,12.2,1.1,18.4c-0.3,3-1.5,5.7-3.4,8
			c-0.9,1.1-2.3,2.1-3.6,2.2c-2.7,0.4-5.6,0.3-8.4,0.2c-3.3-0.1-6.7-0.3-10-0.6c-4.3-0.3-8.6-0.8-12.9-1.1
			c-4.2-0.3-8.4-0.5-12.6-0.7c-5.6-0.2-11.2-0.4-16.8-0.6c-8.2-0.4-16.4-0.8-24.5-1.2c-7.8-0.5-15.6-1.1-23.5-1.6
			c-11.6-0.8-23.1-1.7-34.7-2.1c-7.9-0.3-15.8,0.7-23.7,0.5c-4.2-0.1-8,1.3-12.1,1.8C0,328.1,0,324,0,319.9z"/>
	</g>
	<path d="M617.9,0.7c-4.2-0.5-8.4-0.7-12.7-0.7c-2.4,0-4.8,0-7.3,0c-46.4,0-92.8,0-139.2,0c-0.5,0-0.9,0-1.4,0c-5,0-10.1,0-15.1,0
		c-1.3,0-2.6,0-3.9,0C394.7,0,351,0,307.3,0c-5.5,0-11,0-16.5,0C247.9,0,205,0,162.1,0c-5.3,0-10.5,0-15.8,0c-10.5,0-21,0-31.5,0
		c-12.6,0-24.8,2.1-36.2,5.9c-5.4,1.8-10.6,4-15.7,6.6c-10.3,5.3-19.7,12-27.9,20c-3.3,3.2-6.5,6.7-9.4,10.3
		C9.6,62.5,0,87.5,0,114.7c0,22.6,0,45.2,0,67.7c0,4,0,8,0,12v410.9c0,0,0,0,0,0c0,48.3,30.3,89.9,72.8,106.7
		c7.2,2.9,14.8,5,22.6,6.3c6.3,1.1,12.7,1.6,19.3,1.6c112.8,0,225.6,0,338.4,0c5.4,0,10.8,0,16.2,0c45.3,0,90.6,0,135.9,0
		c63.1,0,114.7-51.6,114.7-114.7c0-137.1,0-274.1,0-411.2c0-3.9,0-7.7,0-11.6c0-13.4,0-26.7,0-40.1c0-7.6,0-15.2,0-22.9
		c0-1.6,0-3.2,0-4.8C720,55.9,675.1,7.1,617.9,0.7z M705.8,126.1v56.3v11.7v411.2c0,26.7-10.5,52-29.6,71
		c-19.1,19.1-44.3,29.6-71,29.6H481.5h-16H130.8h-16.1c-5.1,0-10.1-0.4-15.1-1.1c-21-3.2-40.5-13-55.9-28.4
		c-19.1-19.1-29.6-44.3-29.6-71V194.4v-12.2v-67.5c0-22.1,7.2-43.1,20.4-60.5c2.8-3.6,5.8-7.1,9-10.4c0,0,0.1-0.1,0.1-0.1
		c11.6-11.6,25.6-20.1,40.8-24.9c6.5-2.1,13.2-3.4,20-4.1c3.4-0.3,6.8-0.5,10.2-0.5h42.2h16.3h128.9H319h130.8h7.8h11.7h4.3h131.7
		c1.5,0,3.1,0,4.6,0.1c8,0.4,15.9,1.7,23.5,3.9c16,4.7,30.7,13.4,42.9,25.5c16.1,16.1,26.1,36.7,28.8,58.8c0.5,4,0.7,8.1,0.7,12.2
		V126.1z"/>
</g>
</svg>
