<?xml version="1.0" encoding="utf-8"?>
<!-- Generator: Adobe Illustrator 25.0.0, SVG Export Plug-In . SVG Version: 6.00 Build 0)  -->
<svg version="1.1" xmlns="http://www.w3.org/2000/svg" xmlns:xlink="http://www.w3.org/1999/xlink" x="0px" y="0px"
	 viewBox="0 0 720 720" style="enable-background:new 0 0 720 720;" xml:space="preserve">
<g id="Capa_1">
</g>
<g id="Capa_2">
	<g>
		<path d="M343,538.7c8.4,5.3,8.3,10.4-0.1,15.6c0,3,0,6.1,0,9.1c-0.1,10.4-0.1,20.8-0.2,31.2c0,2.8,0,5.6,0.4,8.4
			c1.1,7.7,0.7,15.4,0.7,23.1c0,6.7,0.2,13.3,0.3,20c0,0.9,0.3,1.8,0.4,2.8c0.9,4.7-1.7,8.1-6.4,8.4c-3.4,0.2-6.8,0-10.2,0.3
			c-6.7,0.6-13.4,1.6-20.2,2.3c-3,0.3-6,0.6-9.1,0.7c-5,0.3-10,0.4-15,0.9c-5.7,0.6-11.3,1.6-17,2.1c-6.6,0.6-13.3,1-19.9,0.1
			c-1-0.1-2.1-0.2-3.1-0.2c-2.2-0.1-4.4-0.3-6.1-2.1c-0.4-0.5-1.2-0.6-1.9-0.9c-3.1-1.2-4.6-3.5-4.7-6.7c-0.1-4,0-7.9,0-11.9
			c-0.1-3-0.4-6.1-0.5-9.1c-0.2-19.2-0.4-38.3-0.6-57.5c-0.1-7.8-0.3-15.6-0.5-23.4c-0.1-7.9-0.2-15.9-0.5-23.8
			c-0.1-4.5-0.5-9.1-0.8-13.6c-0.3-5.4-0.6-10.7-0.9-16.1c-0.5-8.9-1-17.7-1.5-26.6c-0.3-5.9-0.5-11.9-0.9-17.8
			c-0.7-10.6-1.5-21.2-2.2-31.8c-0.5-8.4-0.9-16.8-1.4-25.2c-0.5-7.7-1.1-15.4-1.5-23.1c-0.5-8-0.9-16.1-1.3-24.1
			c-0.6-9.7-1.3-19.3-1.8-29c-0.5-9.8-0.7-19.6-1.1-29.4c-0.3-7.8-0.7-15.6-1-23.4c-0.3-8.6-0.3-17.3-0.6-25.9
			c-0.2-5.9-0.7-11.9-1-17.8c-0.3-5.7-0.4-11.4-0.7-17.1c-0.3-6.9-0.7-13.8-0.9-20.6c-0.3-6.8-0.4-13.5-0.6-20.3
			c-0.2-7.5-0.4-14.9-0.8-22.4c-0.6-12.4-1.4-24.7-2-37.1c-0.2-3.5-0.1-7,0-10.5c0-1,0.3-2.1,0.7-3.1c0.9-2.4,2.7-3.4,5.2-3
			c0.9,0.1,1.9,0.5,2.7,0.4c14.5-1.6,28.9-0.6,43.4,0c7.2,0.3,14.4,1.3,21.6,2.1c8.2,0.8,16.5,1.6,24.7,2.7
			c8.7,1.2,17.3,2.7,25.9,4.2c4.4,0.8,6.3,3.4,6.3,7.9c0.1,4.4,0.4,8.9,0.5,13.3c0.1,11,0.1,22,0.1,32.9c0,2.5,0.1,4.7,2,6.8
			c2.1,2.3,1.7,5.5-0.5,8c-1.3,1.3-1.6,2.7-1.5,4.4c0.3,8.5,0.5,17,0.9,25.6c0.1,1.6,0.5,3.2,1.2,4.7c1,2.3,1.2,4.4,0.3,6.8
			c-0.5,1.5-0.9,3.2-0.9,4.7c0.1,7.5,0.3,14.9,0.5,22.4c0.2,6.4,0.3,12.9,0.4,19.3c0.3,9.6,0.6,19.1,0.8,28.7
			c0.2,9.8,0.3,19.6,0.5,29.4c0.2,15.5,0.5,31.1,0.7,46.6c0.1,7.8,0.1,15.7,0.1,23.5c0.1,6.8,0.2,13.5,0.2,20.3
			c0,4.5-0.3,9.1-0.3,13.6c0,7,0.3,14,0.3,21c0,7.8-0.2,15.6-0.3,23.4c-0.1,7.4-0.1,14.7-0.2,22.1c-0.1,6.9-0.4,13.8-0.4,20.6
			C343,516.4,343,527.5,343,538.7z M226.3,211c0,1.8,0,3.1,0,4.5c0.3,7.6,0.5,15.2,0.8,22.7c0.2,4.3,0.4,8.6,0.6,13
			c0.3,8.2,0.4,16.3,0.7,24.5c0.3,6.8,0.7,13.5,1,20.3c0.3,7.1,0.4,14.2,0.7,21.3c0.4,8.7,1.1,17.5,1.6,26.2
			c0.8,12.1,1.5,24.2,2.3,36.3c0.6,9.8,1.3,19.6,1.9,29.3c0.7,12.5,1.3,24.9,2.1,37.4c0.8,13.9,1.7,27.7,2.6,41.6
			c0.1,2.2,0.4,4.3,0.5,6.7c4.1-0.7,7.8-1.4,11.5-1.9c6.1-0.8,12.3-1.3,18.4-2c8.8-1,17.7-1.6,26.5-1.2c7.7,0.3,15.4,1.1,23,1.5
			c2.6,0.2,5.3,0,8.2,0c1.5-92.7-0.3-185-2.6-277.4c-1.1-0.1-2-0.3-2.9-0.3c-10.7-0.3-21.5-0.5-32.2-0.8c-2.4-0.1-4.9-0.5-7.3-0.4
			c-6.3,0-12.6,0.3-18.9,0.3c-5.1,0-10.3-0.1-15.4-0.1c-2.3,0-4.7-0.1-7-0.3C237.4,212,232.1,211.5,226.3,211z M243.1,551.7
			c0,1.8,0,3.3,0,4.8c0.1,9,0.3,18,0.4,27c0.2,13.9,0.3,27.8,0.5,41.7c0.1,6.4,0.1,12.8,0.3,19.2c0.1,2.7,0.6,5.5,1,8.6
			c10.7-1.5,20.9-3.1,31.2-4.5c3.8-0.5,7.6-0.8,11.5-1.1c4.8-0.5,9.5-1.1,14.3-1.5c7-0.7,13.9-1.3,20.9-2.1c2.5-0.3,5-0.8,7.5-1.3
			c0.1-0.9,0.2-1.6,0.2-2.3c-0.1-4.2-0.2-8.4-0.3-12.6c-0.2-6.7,0-13.3-0.6-20c-1.2-13.9-1.2-27.7-1.2-41.6c0-4.2-0.2-8.3-0.3-12.7
			C299.9,551,271.7,552.3,243.1,551.7z M224.6,159.6c0.3,0.1,0.7,0.2,1,0.2c6.2-0.5,12.3-1.1,18.5-1.5c10.5-0.6,21-1.3,31.4-1.5
			c15.6-0.3,31.3-0.2,46.9-0.2c0.9,0,1.8-0.2,2.9-0.4c-1-15.7,0.5-31.1-0.3-46.7c-3.6-0.4-6.8-0.8-10.1-1.1c-4.5-0.5-9-0.9-13.6-1.4
			c-9.8-1.1-19.7-2.5-29.5-3.4c-8.7-0.8-17.4-1.8-26.2-1.6c-6.1,0.1-12.1-0.4-18.2-0.5c-2.5-0.1-5,0-7.6,0
			C221.5,121.1,223,140.3,224.6,159.6z M225.4,197.9c1.3,0.2,2.1,0.4,2.9,0.4c4.7,0.1,9.3,0.2,14,0.2c6.5,0,13.1-0.1,19.6-0.1
			c10.7-0.1,21.5-0.4,32.2-0.3c9.2,0,18.4,0.3,27.7,0.5c1.4,0,2.7-0.2,4.2-0.3c-0.3-9.2,0-18-1-26.8c-33.6-1.4-66.7-1.5-100.1,0.9
			C225,180.8,225.2,189.2,225.4,197.9z M242.2,506.7c0,5.2-0.3,10.4,0.1,15.6c0.4,5.1-0.5,10.4,0.9,15.6c28.6-1.1,56.9-0.8,85.4,0.4
			c0-10.7,0-20.9,0-31.4c-1.6-0.1-2.9-0.3-4.3-0.4c-2.3-0.1-4.7-0.2-7-0.3c-5.9-0.4-11.9-0.7-17.8-1.2c-10.8-0.8-21.5,0-32.1,1
			C259,506.7,250.7,507,242.2,506.7z"/>
		<path d="M366.6,638.6c-0.4-9.7-0.7-17-1-24.4c-0.3-7.3-0.5-14.7-0.6-22c-0.2-7.9-0.2-15.9-0.3-23.8c-0.1-9.1,0-18.2-0.2-27.3
			c-0.2-12.4-0.4-24.8-0.6-37.1c-0.3-13.7-0.6-27.3-0.9-41c-0.3-12-0.8-24-1.1-36c-0.2-7.3,0-14.7-0.2-22.1
			c-0.2-6.2-0.6-12.4-0.9-18.5c-0.3-7.1-0.5-14.2-0.8-21.3c-0.2-6.2-0.5-12.4-0.8-18.5c-0.6-12.5-1.3-25-2-37.4
			c-0.4-6.9-0.9-13.7-1.2-20.6c-0.4-7.5-0.7-14.9-1.1-22.4c-0.5-9.7-1-19.4-1.4-29c-0.3-7.7-0.2-15.4-0.4-23.1
			c-0.3-12.1-0.8-24.3-1.1-36.4c-0.1-7,0.2-14,0.2-21c0-5.2-0.2-10.5-0.2-15.7c0-4.9,0.1-9.8,0.1-14.7c0-13.9,0.1-27.8-0.1-41.6
			c-0.1-7.7-0.5-15.4-0.7-23.1c-0.1-2.4,0.2-4.9,0.3-7.3c0.1-1.8,1.2-2.7,2.6-3.8c4.5-3.2,9.7-2.2,14.6-2.5
			c9.6-0.5,19.1,0.6,28.7,1.4c6.6,0.6,13.3,0.7,19.9,1.3c7.9,0.7,15.8,1.6,23.6,2.7c6.9,0.9,13.8,2.1,20.7,3.3
			c2.2,0.4,4.4,0.9,6.3,1.9c3.8,1.8,5.3,5.5,3.6,9.4c-1.6,3.6-1.8,7.4-2.4,11.2c-1.7,12.2-1,24.5-1.3,36.8
			c-0.2,8.7,0.4,17.5,0.5,26.3c0.1,4.2-0.1,8.4-0.1,12.6c0,2,0.3,4,0.3,5.9c0.2,17.2,0.4,34.3,0.7,51.5c0.2,9.8,0.6,19.6,0.7,29.4
			c0.2,11.9,0.2,23.8,0.2,35.7c0,10.9-0.1,21.7,0,32.6c0.1,12.3,0.4,24.5,0.6,36.8c0.2,9.9,0.4,19.9,0.5,29.8
			c0.1,12.4,0.1,24.7,0.2,37.1c0.1,6.6,0.4,13.3,0.5,19.9c0.1,4.1-0.1,8.1-0.2,12.2c-0.1,4.1-0.1,8.2-0.1,12.2c0,11.2,0,22.4,0,33.6
			c0,6.5,0,13.1,0,19.6c0.2,11.8,0.3,23.6,0.7,35.4c0.3,9.1,0.8,18.2,1.3,27.3c0.9,17.1,1.8,34.3,2.8,51.4
			c0.5,7.9,1.4,15.8,1.8,23.7c0.2,2.8-0.4,5.6-0.6,8.3c-0.1,0.9-0.4,1.8-0.5,2.7c-0.2,6.2-4.8,10.8-11.1,11.2
			c-2.2,0.1-4.5,0.1-6.6-0.2c-6-0.7-12-1.8-18.1-2.2c-6.3-0.4-12.6-0.3-18.9-0.3c-4.6,0-9.1,0-13.7-0.1c-8-0.1-16.1,0.5-24.1-1.1
			c-2.6-0.5-5.3-1-7.8-1.8c-4.7-1.5-7.7-4-9-9.5C366.8,649.2,367.5,642.7,366.6,638.6z M375.9,439c0,1.3,0,2.5,0,3.6
			c0.2,5.7,0.5,11.4,0.7,17.1c0.2,10.5,0.3,21,0.5,31.5c0.2,13.8,0.6,27.6,0.7,41.3c0.1,14.1,0,28.3,0.1,42.4
			c0.1,12.3,0.4,24.5,0.6,36.8c0.2,9,0.5,18,0.8,27c0.2,4.9,0.5,9.7,0.8,14.8c3.2,0.3,6.2,0.9,9.2,0.9c6.5-0.1,13.1-0.5,19.6-0.6
			c8.4-0.1,16.8,0.5,25.2,0.1c7.3-0.3,14.4,0.4,21.6,1.4c3.2,0.4,6.5,0.1,9.6,0.1c0-2.6,0.2-5,0-7.5c-0.7-9-1.5-17.9-2.2-26.9
			c-0.4-6.1-0.7-12.1-1.1-18.2c-0.4-5.8-0.8-11.6-1.1-17.5c-0.4-7.5-0.8-14.9-1.1-22.4c-0.4-8.2-0.8-16.3-1.1-24.5
			c-0.2-8.3-0.2-16.6-0.2-24.9c-0.1-11.4-0.2-22.9-0.3-34.3c-0.1-12.2,0-24.5,0-37.1c-1.6-0.3-3.1-0.7-4.7-0.7
			c-4.8,0.1-9.6-0.1-14.3,0.5c-13.3,1.7-26.6,0.6-39.8-0.9C391.7,440.5,384,439.8,375.9,439z M368.9,259.8c1-0.2,1.5-0.2,1.9-0.3
			c9.8-2.1,19.8-3.1,29.9-3c2.7,0,5.4-0.1,8-0.2c4.4-0.1,8.9-0.5,13.3-0.3c10.6,0.3,21.2,0.9,31.9,1.3c0.8,0,1.6-0.1,2.3-0.1
			c0-3.5,0-6.7,0-10c0-5,0.1-10,0-15c-0.2-12.4-0.6-24.7-0.8-37.1c-0.3-14.9-0.5-29.9-0.6-44.8c-0.1-13-0.7-25.9-0.4-38.9
			c0.2-13.1,0.6-26.1,2.2-39.1c0.2-1.2,0.2-2.5,0.2-3.8c-0.7-0.2-1.1-0.4-1.6-0.5c-6.2-0.9-12.5-1.8-18.7-2.5
			c-10.8-1.2-21.6-2.2-32.4-3.2c-3.3-0.3-6.5-0.4-9.8-0.7c-7.1-0.6-14.2-1.4-21.3-1.8c-3.7-0.2-7.4,0.2-11.3,0.3
			c0.3,2.7,0.7,5.1,0.9,7.6c0.5,4.7,1.2,9.5,1.5,14.3c0.4,6.1,0.4,12.1,0.6,18.2c0.3,8.1,0.7,16.1,0.8,24.2
			c0.2,12.3,0.1,24.5,0.3,36.8c0.2,13,0.7,25.9,1,38.9c0.1,4,0,7.9,0.2,11.9c0.3,7.5,0.7,14.9,1.1,22.4c0,0.6-0.1,1.2,0,1.8
			C368.1,243.8,368.5,251.6,368.9,259.8z M458.1,427.8c0-2.4,0-4.3,0-6.2c-0.1-10.9-0.1-21.7-0.3-32.6c-0.1-6.8-0.4-13.5-0.5-20.3
			c-0.1-7,0-14-0.1-21c-0.2-9.8-0.5-19.6-0.6-29.4c-0.1-11.8,0-23.6,0-35.4c0-2.8-0.2-5.6-0.2-8.4c0-1.5-0.7-2.4-2.2-2.6
			c-1.7-0.2-3.5-0.6-5.2-0.7c-4.1-0.3-8.1-0.4-12.2-0.6c-9-0.4-17.9-0.8-26.9-1c-10.1-0.2-20.3-0.2-30.4-0.2c-3.2,0-6.5,0.3-9.6,0.5
			c2.2,52.2,4.4,104.2,6.6,156.4c1.4,0.1,2.9,0.4,4.4,0.2c9.3-0.8,18.4,0.5,27.6,1.3c8.4,0.7,16.8,0.5,25.2,0.2
			c4.8-0.2,9.6-0.3,14.3-0.4C451.2,427.8,454.6,427.8,458.1,427.8z"/>
		<path d="M587.6,673.4c-3.7,0.3-7,0-9.9-2.7c-0.4-0.4-1.3-0.3-2-0.2c-5.5,0.9-8.7-1.1-10-6.6c-0.7-2.8-0.9-5.8-1.3-8.7
			c-0.9-5.9-1.9-11.7-2.9-17.6c-0.2-1-0.4-2.1-0.5-3.1c-0.7-5-1.3-9.9-2-14.9c-1.1-7.3-2.2-14.5-3.4-21.8
			c-1.8-10.8-3.6-21.6-5.4-32.5c-1.3-8-2.5-15.9-3.8-23.9c-1.1-6.9-2.3-13.8-3.4-20.7c-1.5-9.5-2.9-18.9-4.4-28.4
			c-1.4-8.5-2.9-17-4.3-25.6c-0.9-5.4-1.7-10.8-2.6-16.3c-1.6-9.8-3.3-19.6-4.8-29.4c-1.5-9.7-2.9-19.4-4.4-29.1
			c-1.3-8.2-2.8-16.3-4.1-24.5c-1.9-11.4-3.6-22.8-5.4-34.2c-1.3-8.1-2.8-16.1-4.2-24.2c-0.6-3.7-1-7.4-1.5-11.1
			c-1.3-8-2.6-15.9-3.9-23.9c-1.9-12.1-3.6-24.3-5.5-36.4c-1.4-9.2-3.1-18.4-4.5-27.6c-1.4-8.4-2.6-16.8-4-25.3
			c-1.6-10.3-3.4-20.5-4.9-30.8c-1.3-8.9-2.5-17.8-3.6-26.7c-0.4-3.5-0.2-7-0.1-10.5c0.1-2.2,1.6-3.9,3.6-4.8
			c9.3-4.3,18.6-9,28.8-10.9c7.9-1.5,15.4-4,23-6.1c5.3-1.5,10.7-2.5,16-3.7c1.8-0.4,3.6-0.8,5.4-1.4c2.8-0.9,5.3-0.2,7.6,1.6
			c3.3,2.5,5.6,5.6,6.4,9.7c0.9,4.3,1.9,8.7,2.9,13c3.3,14.6,6.2,29.2,8.5,44c1.6,10.5,3.9,20.9,5.8,31.3
			c2.9,16.2,5.9,32.4,8.7,48.6c1.9,10.6,3.5,21.2,5.3,31.8c1.6,9.4,3.4,18.8,5.1,28.3c1.6,9.2,3,18.4,4.7,27.6
			c1.1,6.6,2.5,13.1,3.7,19.6c1.9,11,3.7,22.1,5.7,33.1c2,11.4,4.2,22.7,6.3,34.1c1.6,9,3,18,4.6,26.9c1.5,8.6,3.2,17.2,4.7,25.8
			c1.3,7.6,2.4,15.2,3.7,22.8c0.7,4.1,1.8,8.2,2.5,12.3c1.3,7.4,2.5,14.7,3.7,22.1c0.7,3.9,1.4,7.8,2.1,11.7
			c1.6,8.6,3.2,17.2,4.7,25.8c1.5,8.4,2.7,16.8,4.2,25.2c1.3,7.2,2.8,14.4,4.1,21.7c0.9,4.9,1.6,9.9,2.5,14.9
			c1.4,8.1,2.8,16.1,4.2,24.1c0.2,1.1,0.6,2.3,0.8,3.4c1.5,7-2.2,13.1-9.2,14.3c-8.2,1.4-16.4,2.4-24.6,3.5
			c-10.5,1.4-21.1,2.7-31.6,4C598.7,672.1,593.2,672.8,587.6,673.4z M558.7,104.1c-6.2,1.4-12.1,2.6-18,4
			c-5.6,1.3-11.1,2.8-16.6,4.1c-5.7,1.3-11.5,2-17.1,3.7c-5,1.5-9.6,4-14.5,6c0.9,4.2,1.9,8,2.6,11.9c1.3,7,2.4,14,3.6,21.1
			c0.9,4.9,1.9,9.9,2.7,14.8c1.1,7,2.1,14.1,3.2,21.1c1.9,11.4,3.9,22.8,5.8,34.2c1.7,10.4,3,20.8,4.6,31.1
			c1.9,11.8,3.9,23.5,5.8,35.2c2.2,13.4,4.4,26.7,6.6,40.1c1.3,8,2.3,16,3.5,23.9c2.4,15.1,4.9,30.2,7.4,45.3
			c1.3,8.3,2.7,16.6,4,24.9c1.3,8.1,2.5,16.1,3.8,24.2c1.4,9.1,2.8,18.2,4.2,27.3c0.6,3.7,1.2,7.5,1.9,11.3
			c12.2-2.5,23.9-4.9,35.7-7.3c11.8-2.5,23.8-4.4,35.7-7.7c-0.8-3.8-1.5-7.2-2.1-10.7c-2-11-3.8-22.1-5.8-33.1
			c-1.6-8.8-3.2-17.7-4.8-26.5c-1.3-7.1-2.5-14.3-3.8-21.4c-0.6-3.2-1.3-6.4-1.9-9.6c-1.1-6.1-2.1-12.2-3.2-18.3
			c-1.5-8.4-3-16.8-4.5-25.2c-2.2-12.8-4.4-25.5-6.7-38.3c-1.4-7.8-2.7-15.6-4-23.5c-0.5-2.6-1.1-5.2-1.6-7.9c-0.8-4-1.6-8-2.3-12
			c-1.2-6.9-2.1-13.8-3.4-20.7c-2-11.3-4.2-22.5-6.2-33.7c-1.2-6.3-2.3-12.6-3.4-19c-1.1-6.4-2.3-12.9-3.4-19.3
			c-1.3-7.7-2.5-15.4-3.7-23.2c-0.9-6.2-1.7-12.5-2.6-18.7C559.8,109.8,559.2,107.2,558.7,104.1z M633,530.9
			c-1.2,0.1-2.4,0.1-3.7,0.4c-6.4,1.3-12.8,2.6-19.1,4.1c-6.7,1.6-13.3,3.2-19.9,5.1c-8.6,2.5-17.2,5.2-26.2,6.1
			c-0.8,0.1-1.5,0.4-2.2,0.6c0.4,8.6,17,110.3,18.5,113.6c2.6-0.6,5.1-1.4,7.8-1.8c7.3-1.2,14.5-2.3,21.8-3.4
			c3.5-0.5,6.9-0.9,10.4-1.4c7-1,14.1-2.1,21.1-3.2c4.2-0.6,8.5-1.2,12.7-1.8C654.1,643.5,634.4,533.9,633,530.9z M559.7,533.1
			c3.5-0.8,6.8-1.5,10.1-2.4c8.4-2.4,16.8-4.9,25.2-7.2c8.7-2.4,17.4-4.6,26.1-6.7c3-0.8,6.1-1.2,9.5-1.8c-1-9.1-2.7-17.9-4.6-26.9
			c-8.2,1.6-16.1,3.2-24,4.7c-7.9,1.6-15.8,3.2-23.7,4.7c-7.9,1.5-15.7,2.8-23.9,4.2C556.1,512,557.1,522.4,559.7,533.1z"/>
		<path d="M201.1,637.5c0.4,2.2,1.2,4.1,1.1,6c-0.2,3.7-2.2,6.4-5.8,7.6c-2.2,0.7-4.5,1.4-6.8,1.7c-6.4,1-12.9,1.8-19.4,2.7
			c-10.1,1.5-20.3,3.3-30.4,4.7c-6.3,0.9-12.8,1.4-19.2,1.7c-7.9,0.5-15.9,0.5-23.8,0.9c-9.6,0.5-18.9-0.7-27.9-3.9
			c-2.6-0.9-4.7-2.6-6.3-4.8c-1.2-1.6-2.1-3.4-3.3-4.9c-2.7-3.3-3.1-7.2-3-11.2c0.1-5.4-0.1-10.7-0.2-16.1c0-2.3-0.1-4.7-0.2-7
			c-0.5-14-0.9-28-1.4-42c-0.3-7.7-0.7-15.4-0.9-23.1c-0.2-9.8-0.2-19.6-0.4-29.4c-0.3-11-0.7-21.9-1-32.9
			c-0.2-6.9-0.3-13.8-0.6-20.6c-0.1-4.3-0.5-8.6-0.6-12.9c-0.3-9.3-0.5-18.7-0.9-28c-0.5-12.7-1.2-25.4-1.6-38.2
			C48,376.8,48,366,47.9,355.1c-0.1-9.7-0.2-19.4-0.2-29.1c-0.1-10.4-0.1-20.8-0.2-31.2c-0.1-7.2-0.4-14.5-0.5-21.7
			c-0.1-9.7,0-19.4,0-29c0-5.7-0.1-11.4-0.1-17.1c0-5.6,0.1-11.2,0-16.8c-0.1-9.9-0.1-19.8-0.3-29.8c-0.2-9-0.4-18-0.8-27
			c-0.2-5.7-0.8-11.4-1-17.1c-0.2-5.8-0.4-11.7-0.4-17.5c0.2-11,0.4-21.9,0.9-32.9c0.2-4.8,0.7-9.6,1.5-14.3
			c0.4-2.4,1.5-4.7,2.6-6.8c1.8-3.2,4.6-4.9,8.4-4.8c0.1,0,0.2,0,0.4,0c6.1,0.7,12-0.8,18-1.7c5.7-0.8,11.4-1.3,17.1-1.5
			c11.7-0.3,23.3-1.6,34.9-2.7c10.5-1,21-1.4,31.5-2c5.1-0.3,10.3-0.4,15.4-0.6c3.5-0.2,6.4,1.2,9.6,2.4c5.8,2.3,6.4,6.9,7,11.8
			c1.8,14.4,1.1,28.9,0.9,43.4c-0.1,14.2,0,28.5,0.1,42.7c0,9.8,0,19.6,0,29.4c0,4.5,0.3,9.1,0.3,13.6c0,8.2-0.3,16.4-0.1,24.5
			c0.2,8.6,0.8,17.2,1.1,25.9c0.3,8.8,0.6,17.5,0.8,26.3c0.2,7.4,0.5,14.7,0.6,22.1c0.1,7.1,0,14.2,0.2,21.4
			c0.2,9.1,0.8,18.2,1,27.3c0.2,8.6,0.1,17.3,0.3,25.9c0.2,7.9,0.6,15.9,0.8,23.8c0.1,5.2,0,10.5,0.1,15.7
			c0.1,6.4,0.1,12.8,0.3,19.3c0.3,11.9,0.6,23.8,1,35.7c0.4,12.6,0.8,25.2,1.1,37.8c0.1,5.2,0.2,10.5,0.3,15.7
			c0.1,5.4,0.2,10.7,0.3,16.1c0.3,14.5,0.6,29,1.1,43.4c0.4,10.7,0.9,21.5,1.5,32.2c0.3,6.6,0.8,13.3,1.1,19.9
			C204.7,632.6,203.8,634.7,201.1,637.5z M186,480.4c0.1-1.3,0.3-2.2,0.3-3.1c-0.2-8.3-0.4-16.6-0.6-24.9c-0.1-4.5-0.4-9.1-0.5-13.6
			c-0.2-8.4-0.2-16.8-0.4-25.2c-0.3-10.9-0.7-21.7-1-32.6c-0.3-13.4-0.6-26.9-0.8-40.3c0-1.9,0.1-3.7,0-5.6
			c-0.2-8.6-0.6-17.3-0.8-25.9c-0.2-8.9-0.1-17.8-0.3-26.6c-0.3-9.8-0.8-19.6-1.1-29.4c-0.5-12.4-0.9-24.7-1.3-37.1
			c-0.2-5.8-0.2-11.7-0.2-17.5c0-4.5,0-9.1-0.1-13.6c-0.1-4.7-0.3-9.3-0.3-14c0-8.1,0.2-16.1,0.3-24.2c0.1-6.2,0-12.4,0.1-18.5
			c0.2-10.6,0.6-21.2,0.7-31.9c0.1-6.7,0-13.3-0.1-20c-0.1-3.6-0.4-7.1-0.5-10.9c-2.4,0.1-4.3,0.2-6.3,0.3c-10.5,0.3-21,0.4-31.5,1
			c-12,0.6-24,1.6-36,2.4c-2.6,0.2-5.1,0.2-7.7,0.3c-1.6,0-3.3-0.1-4.9-0.1c-6.8,0.1-13.5,0.2-20.3,0.3c-4.3,0.1-8.6,0-13,1.9
			c-0.5,2-1.2,4.1-1.5,6.2c-0.5,3.5-0.8,7-0.9,10.5c-0.5,12-1.3,24-1.3,36c-0.1,13.4,0.4,26.8,0.8,40.2c0.3,10.2,0.9,20.3,1.1,30.5
			c0.2,9.7,0.2,19.4,0.3,29.1c0,8.8,0,17.5,0,26.3c0,7,0.1,14,0.3,21c0.2,6.7,0.6,13.3,0.7,19.9c0.2,8.6,0.1,17.3,0.3,25.9
			c0.2,13.5,0.4,27.1,0.6,40.6c0.1,9.2,0,18.5,0.3,27.7c0.4,10.6,1.1,21.2,1.6,31.8c0.6,12.9,1.3,25.9,1.8,38.8
			c0.3,8.3,0.5,16.6,0.8,24.9c0.1,3.7,0.5,7.4,0.8,11.4C105.6,488.5,145.7,484.4,186,480.4z M65.8,507.3c0,2.5,0,4.7,0,6.9
			c0,1.5,0.3,3,0.3,4.5c0.1,8.9,0.1,17.8,0.4,26.6c0.4,12.5,0.9,25,1.4,37.4c0.5,14.6,1.1,29.2,1.6,43.7c0.2,5.9,0.4,11.9,0.5,17.8
			c0,2.7,0.4,3.5,3.1,4c1.9,0.4,3.9,0.5,5.9,0.8c5.1,0.8,10.2,1.2,15.4,0.7c7.2-0.6,14.4-0.9,21.7-1.4c6.1-0.4,12.1-0.7,18.1-1.5
			c8.1-1.1,16.1-2.9,24.2-4c10.3-1.4,20.6-2.5,30.9-3.7c2-0.2,3.6-0.7,4.1-2c-0.8-2.8-1.7-4.8-1.9-7c-0.7-10.2-1.1-20.5-1.6-30.8
			c-0.4-7.9-1-15.8-1.3-23.8c-0.5-14.3-0.9-28.7-1.3-43.1c-0.3-10.4-0.4-20.8-0.6-31.1c0-1.6-0.2-3.2-0.4-4.9
			c-0.9-0.1-1.6-0.2-2.3-0.2c-8.7,0.8-17.4,1.5-26.1,2.3c-8.6,0.8-17.2,1.9-25.8,2.7c-6.3,0.6-12.6,0.9-18.9,1.4
			c-13.3,1.2-26.5,2.4-39.7,3.6C71,506.9,68.5,507.1,65.8,507.3z"/>
		<path d="M386.2,363.5c0.2-13.8,2.2-23.7,5-33.3c2.7-9.4,5.8-18.8,12.3-26.4c3.5-4.1,7.4-7.4,13-8.3c0.6-0.1,1.2-0.4,1.7-0.2
			c5.2,1.4,10.9,2.1,14.8,6.3c2.8,3,5,6.4,6.4,10.4c0.9,2.4,2,4.7,3,7.1c2.7,6.7,3.8,13.7,4.7,20.8c1.2,8.8,1.3,17.7-0.3,26.5
			c-0.8,4.6-2.1,9.1-4.2,13.3c-1.5,2.9-2.7,5.9-4.3,8.8c-5.7,10-14.4,14.9-25.8,14.3c-8.6-0.4-14.7-5.6-19.1-12.7
			C387.7,380.8,386.2,370.5,386.2,363.5z M417.8,306.5c-4.3,3.1-7.4,6.8-9.3,11.4c-1.7,4-3,8.1-4.4,12.2c-4.1,12-5.8,24.3-5,36.9
			c0.4,6.3,2.1,12.2,5.6,17.5c5,7.6,14.5,8,20.1,1c1.3-1.6,2.2-3.6,3.3-5.3c3.7-5.6,5.2-11.9,5.8-18.5c0.9-9.9-0.3-19.6-2.5-29.2
			c-0.8-3.4-2.1-6.7-3.3-9.9c-0.8-2.2-1.8-4.3-2.7-6.5C423.9,312.2,421.5,309.1,417.8,306.5z"/>
		<path d="M158.9,140.2c-0.5,2.7-0.9,5.5-1.6,8.2c-2.3,8.9-6.6,16.7-13.7,22.7c-5.7,4.8-12.4,7.3-19.8,7.9
			c-4.3,0.3-8.6,0.9-12.9-0.3c-7.5-2.1-14.7-4.9-19.3-11.7c-2.5-3.7-4.7-7.5-6.2-11.7c-1.2-3.5-2.3-7.1-3-10.7
			c-1.2-6-0.3-12,1.9-17.5c2.7-7,7.2-13,12.6-18.3c7.1-7,17.5-8.3,26.3-2.8c1.7,1.1,3.2,1.3,5.2,0.9c4.1-0.9,8-0.2,11.7,2.1
			c7.2,4.3,11.5,10.7,14.9,18C157.1,130.9,158.8,135.3,158.9,140.2z M118.5,113.7c-8-1-13.3,3.3-17.4,9.5c-1.1,1.7-2.1,3.4-3.1,5.1
			c-2.5,4.4-3.7,9.2-2.6,14.2c0.8,4,2.3,7.8,3.9,11.6c2.3,5.1,6.2,8.6,11.5,10.6c4.3,1.6,8.5,1,12.8,0.5c3.6-0.4,6.8-1.8,9.5-4.1
			c5.2-4.4,8.4-10,10-16.5c0.9-3.7,1.4-7.3-0.7-10.8c-0.4-0.7-0.6-1.5-0.9-2.3c-1.7-4.2-4.1-7.8-8-10.3c-2.8-1.7-5.7-3.3-8-5.5
			C123.4,113.6,121.2,113.1,118.5,113.7z"/>
	</g>
	<path d="M617.9,0.7c-4.2-0.5-8.4-0.7-12.7-0.7c-2.4,0-4.8,0-7.3,0c-46.4,0-92.8,0-139.2,0c-0.5,0-0.9,0-1.4,0c-5,0-10.1,0-15.1,0
		c-1.3,0-2.6,0-3.9,0C394.7,0,351,0,307.3,0c-5.5,0-11,0-16.5,0C247.9,0,205,0,162.1,0c-5.3,0-10.5,0-15.8,0c-10.5,0-21,0-31.5,0
		c-12.6,0-24.8,2.1-36.2,5.9c-5.4,1.8-10.6,4-15.7,6.6c-10.3,5.3-19.7,12-27.9,20c-3.3,3.2-6.5,6.7-9.4,10.3
		C9.6,62.5,0,87.5,0,114.7c0,22.6,0,45.2,0,67.7c0,4,0,8,0,12v410.9c0,0,0,0,0,0c0,48.3,30.3,89.9,72.8,106.7
		c7.2,2.9,14.8,5,22.6,6.3c6.3,1.1,12.7,1.6,19.3,1.6c112.8,0,225.6,0,338.4,0c5.4,0,10.8,0,16.2,0c45.3,0,90.6,0,135.9,0
		c63.1,0,114.7-51.6,114.7-114.7c0-137.1,0-274.1,0-411.2c0-3.9,0-7.7,0-11.6c0-13.4,0-26.7,0-40.1c0-7.6,0-15.2,0-22.9
		c0-1.6,0-3.2,0-4.8C720,55.9,675.1,7.1,617.9,0.7z M705.8,126.1v56.3v11.7v411.2c0,26.7-10.5,52-29.6,71
		c-19.1,19.1-44.3,29.6-71,29.6H481.5h-16H130.8h-16.1c-5.1,0-10.1-0.4-15.1-1.1c-21-3.2-40.5-13-55.9-28.4
		c-19.1-19.1-29.6-44.3-29.6-71V194.4v-12.2v-67.5c0-22.1,7.2-43.1,20.4-60.5c2.8-3.6,5.8-7.1,9-10.4c0,0,0.1-0.1,0.1-0.1
		c11.6-11.6,25.6-20.1,40.8-24.9c6.5-2.1,13.2-3.4,20-4.1c3.4-0.3,6.8-0.5,10.2-0.5h42.2h16.3h128.9H319h130.8h7.8h11.7h4.3h131.7
		c1.5,0,3.1,0,4.6,0.1c8,0.4,15.9,1.7,23.5,3.9c16,4.7,30.7,13.4,42.9,25.5c16.1,16.1,26.1,36.7,28.8,58.8c0.5,4,0.7,8.1,0.7,12.2
		V126.1z"/>
</g>
</svg>
