<?xml version="1.0" encoding="utf-8"?>
<!-- Generator: Adobe Illustrator 25.0.0, SVG Export Plug-In . SVG Version: 6.00 Build 0)  -->
<svg version="1.1" xmlns="http://www.w3.org/2000/svg" xmlns:xlink="http://www.w3.org/1999/xlink" x="0px" y="0px"
	 viewBox="0 0 720 720" style="enable-background:new 0 0 720 720;" xml:space="preserve">
<g id="Capa_1">
	<g>
		<path d="M698.9,182.3c-7.2,0-14.4,0-21.6-0.1c-5.2,0-10.4-0.1-15.6-0.1c-3.7,0-7.5,0.3-11.2,0.3c-7,0-13.9-0.3-20.9-0.3
			c-5,0-9.9,0.2-14.9,0.3c-1.6,0-3.2,0-4.7-0.1c-0.6,0-1.4-0.2-1.8-0.6c-1.8-1.8-3.6-3.7-5.2-5.7c-2.8-3.5-5.4-7.1-8.2-10.6
			c-5.4-6.7-10.8-13.3-16.3-19.9c-2.7-3.3-5.5-6.6-8.3-9.9c-1.4-1.7-3-3.2-4.4-5c-1.6-2-3-4.2-4.6-6.1c-3.5-4.2-7.2-8.3-10.7-12.5
			c-5.2-6.2-9.8-12.9-15.7-18.7c-2.6-2.5-4.5-5.6-6.8-8.4c-3.1-3.9-6.1-7.8-9.2-11.6c-3.4-4.1-7.1-8-10.5-12.2
			c-2.3-2.8-4.4-5.7-6.6-8.5c-2.2-2.8-4.6-5.4-6.9-8.1c-2.6-3.1-5.1-6.2-7.7-9.3c-4.9-5.8-9.8-11.5-14.7-17.3
			c-1.1-1.3-2.2-2.6-3.2-3.9h-19.5c1.2,1.5,2.4,3,3.6,4.5c2.6,3.2,5.5,6.1,8.1,9.3c4.2,5,8.3,10.1,12.4,15.2
			c2.4,2.9,4.8,5.8,7.2,8.7c1.2,1.4,2.3,2.9,3.5,4.4c3.2,3.7,6.5,7.4,9.7,11.2c2.9,3.5,5.8,7,8.7,10.4c2.8,3.3,5.7,6.5,8.4,9.8
			c2.9,3.5,5.6,7.1,8.6,10.6c3,3.6,6.2,7.1,9.2,10.7c1.6,1.9,2.9,4.1,4.5,6c3.1,3.5,6.3,6.8,9.4,10.3c3.1,3.6,6.1,7.3,9.1,11
			c0.7,0.9,1.3,1.9,2.1,2.8c3.4,4.1,6.7,8.2,10.1,12.3c0.4,0.5,0.8,1,1.3,1.4c1.1,1.1,2.2,2.1,3.2,3.2c1.4,1.7,2.7,3.5,4.1,5.2
			c2.9,3.4,5.9,6.8,8.9,10.2c2,2.3,4,4.5,6,6.9c0.9,1.1,1.7,2.4,2.6,3.6c-0.1,0.2-0.2,0.4-0.2,0.7c-4.4,0-8.8,0-13.1,0
			c-5.8,0-11.6-0.1-17.4-0.1c-10.8-0.1-21.6-0.1-32.5-0.2c-8.1,0-16.1-0.1-24.2-0.1c-14.1,0-28.1,0-42.2,0.2c-2.5,0-3.9-0.5-5.4-2.4
			c-3.1-4.1-6.6-8-9.8-12c-1.5-1.8-3-3.7-4.5-5.6c-0.8-1-1.8-1.8-2.6-2.8c-2-2.6-3.9-5.3-6-7.9c-2.9-3.7-5.9-7.3-8.9-11
			c-2.4-2.9-4.7-5.8-7.1-8.7c-2.7-3.2-5.4-6.2-8-9.4c-3-3.8-5.9-7.6-8.8-11.5c-0.1-0.2-0.4-0.3-0.5-0.5c-1.7-1.8-3.4-3.5-5-5.4
			c-3.3-3.9-6.6-7.8-9.8-11.8c-2.8-3.5-5.4-7-8.2-10.5c-2.5-3.2-5.1-6.3-7.8-9.4c-3.9-4.6-7.8-9.1-11.7-13.7
			c-1.9-2.3-3.7-4.8-5.6-7.1c-3.5-4.2-7.2-8.3-10.7-12.6c-2.5-2.9-4.7-6-7.2-9c-4.4-5.3-8.9-10.6-13.3-15.9
			c-0.1-0.2-0.3-0.3-0.5-0.5c-0.2-0.2-0.4-0.5-0.6-0.7h-16.8c1.1,1.5,2.2,3.1,3.5,4.5c2.6,3.1,5.4,5.9,7.9,9c2.7,3.3,5.3,6.6,8,10
			c2.5,3.2,4.8,6.4,7.3,9.6c2.3,3,4.7,6,7.1,8.9c4,4.7,8,9.3,12,14c2.3,2.7,4.6,5.5,6.8,8.3c1.9,2.4,3.7,4.8,5.6,7.2
			c2.6,3.2,5.4,6.3,8.1,9.4c4,4.7,7.9,9.6,11.8,14.3c2.7,3.2,5.5,6.2,8.1,9.4c1.2,1.5,2,3.3,3.3,4.7c2.6,3.1,5.4,6.1,8.1,9.1
			c2.2,2.6,4.4,5.3,6.6,7.9c5,6.1,10.1,12.1,15.1,18.2c3.2,3.8,6.4,7.6,9.5,11.4c2.9,3.6,5.8,7.1,8.7,10.7c0.3,0.3,0.4,0.7,0.7,1.2
			c-0.8,0-1.4,0.1-2,0.1c-13.6,0-27.2,0-40.8,0c-11.1,0-22.3,0-33.4,0c-9.1,0-18.3,0-27.4,0c-8.6,0-17.2,0-25.8-0.1
			c-0.5,0-1.2-0.4-1.5-0.8c-2-2.5-3.8-5-5.8-7.5c-1.3-1.6-2.6-3.2-3.9-4.8c-3.8-4.7-7.6-9.4-11.4-14.1c-1.8-2.2-3.4-4.5-5.1-6.6
			c-2.8-3.4-5.7-6.6-8.5-9.9c-3-3.6-5.9-7.3-8.9-10.9c-1.3-1.6-2.6-3.1-3.9-4.7c-2.7-3.5-5.3-7.2-8.1-10.7
			c-4.2-5.2-8.5-10.2-12.7-15.3c-2.7-3.2-5.2-6.5-7.9-9.8c-2.4-2.9-4.8-5.7-7.2-8.5c-2.5-3-4.9-5.9-7.4-8.9
			c-3.9-4.6-7.8-9.1-11.7-13.6c-1.3-1.5-2.4-3.1-3.6-4.7c-1.3-1.8-2.6-3.7-4-5.5c-1.4-1.8-3.1-3.3-4.5-5.1
			c-3.8-4.7-7.4-9.5-11.2-14.1c-3.4-4.1-6.9-8.1-10.3-12.2c0,0,0,0,0,0h-16.3c0.1,0.1,0.2,0.3,0.3,0.4c2.7,3.2,5.5,6.3,8.1,9.5
			c1.9,2.3,3.7,4.8,5.6,7.2c3.7,4.4,7.4,8.8,11.1,13.2c3.6,4.4,7.2,8.8,10.8,13.2c2.7,3.3,5.4,6.6,8.1,9.9
			c4.8,5.9,9.5,11.8,14.2,17.8c2.3,2.8,4.6,5.6,6.9,8.4c2.6,3.1,5.2,6.2,7.8,9.3c3.4,4.1,6.6,8.3,10,12.3c2.6,3.2,5.5,6.2,8.1,9.3
			c2.1,2.5,3.9,5.2,6,7.7c2.8,3.5,5.6,6.9,8.5,10.3c1.8,2.2,3.7,4.3,5.5,6.5c2,2.5,4.1,5,6.1,7.4c1.2,1.5,2.2,3,3.4,4.4
			c2.7,3.2,5.4,6.3,8.1,9.5c2,2.4,4,4.9,6,7.3c1,1.3,2.1,2.6,3.3,4.2c-1.1,0-1.7,0-2.4,0c-7.3,0-14.5,0-21.8,0.1
			c-6,0-12.1,0.1-18.1,0c-10.2,0-20.4-0.1-30.6-0.1c-10.4,0-20.7,0-31.1,0c-6.6,0-13.1,0-19.7,0c-7.3,0-14.6,0-22,0
			c-0.6,0-1.4-0.2-1.7-0.6c-1.8-2.3-3.6-4.7-5.4-7.1c-2.2-3-4.2-6.1-6.5-9.1c-5.8-7.6-11.7-15.1-17.5-22.7c-1.6-2.1-3-4.3-4.6-6.4
			c-2.7-3.6-5.6-7.1-8.3-10.7c-1.4-1.9-2.6-3.9-4-5.7c-2.9-3.8-5.9-7.5-8.8-11.3c-3.9-5.1-7.8-10.2-11.6-15.3
			c-1.8-2.4-3.5-5-5.3-7.4c-3.2-4.3-6.5-8.5-9.8-12.8c-3.1-4.1-6.2-8.2-9.4-12.3c-1.4-1.8-3.1-3.5-4.5-5.3c-1.9-2.5-3.7-5.2-5.6-7.8
			c-0.9-1.2-1.8-2.4-2.8-3.7c-3.3,3.3-6.3,6.7-9,10.4c0.7,0.9,1.5,1.9,2.2,2.8c3.5,4.5,6.9,9.1,10.4,13.6c1.9,2.5,4,4.9,5.9,7.3
			c1.2,1.5,2.3,3.1,3.5,4.6c3.7,4.9,7.4,9.8,11.2,14.6c3.7,4.7,7.5,9.2,11.3,13.8c1.7,2.1,3.2,4.4,4.9,6.6c2.7,3.4,5.6,6.8,8.3,10.3
			c1.8,2.3,3.4,4.7,5.2,7c3.7,4.6,7.6,9.2,11.2,13.8c2.7,3.4,5.1,6.9,7.7,10.4c1.5,2,3.2,3.9,4.7,5.8c1.5,1.9,3.1,3.7,4.6,5.6
			c2.1,2.6,4.3,5.2,6.3,7.9c0.8,1.1,1.4,2.3,2.2,3.6c-0.6,0.1-1,0.1-1.4,0.1c-14.5,0-29.1,0-43.6,0c-9.6,0-19.2,0-28.8,0
			c-5.9,0-11.7,0.2-17.6,0.3c-8.3,0-16.6-0.2-24.9-0.1c-1.3,0-2.6,0-3.9,0v12.2c8.8,0,17.6,0,26.4,0.1c8.3,0,16.6,0,24.9,0
			c6.8,0,13.7,0.1,20.5,0.2c4.8,0,9.7-0.1,14.5-0.1c5.7,0,11.3,0.2,17,0.2c9.2,0,18.4-0.1,27.5-0.2c7.6-0.1,15.2-0.2,22.8-0.2
			c11.1,0,22.1,0.2,33.2,0.3c3.4,0,6.9,0,10.3,0c7.2-0.1,14.5-0.2,21.7-0.2c5.1,0,10.2,0.2,15.2,0.2c4.3,0,8.7-0.2,13-0.2
			c6.1,0,12.2,0.1,18.2,0.1c7.4,0,14.7-0.1,22.1-0.2c6.7,0,13.5,0.1,20.2,0.1c19.3,0,38.6,0.1,58,0c16,0,32-0.1,48-0.1
			c17.6-0.1,35.1-0.2,52.7-0.2c16.6,0,33.2,0.1,49.7,0.1c23.7,0,47.4,0,71.1-0.1c5.7,0,11.5-0.2,17.2-0.2c5.9,0,11.7,0.2,17.6,0.2
			c10.7,0,21.3-0.2,32-0.2c8.2,0,16.5,0.1,24.7,0.1c2.6,0,5.3-0.1,7.9-0.1c1.6,0,3.3,0,4.9,0v-11.7
			C703.5,182.4,701.2,182.3,698.9,182.3z"/>
		<path d="M625.3,33c1.2,1.4,2.6,2.7,3.8,4.1c2.9,3.5,5.6,7.1,8.5,10.4c3,3.4,6.3,6.5,9.2,9.9c3.1,3.6,5.9,7.4,8.8,11.1
			c0.1,0.2,0.3,0.4,0.4,0.5c3,3.3,6,6.6,8.9,9.9c3.1,3.5,6.1,6.9,9.1,10.4c1.2,1.4,2.3,3,3.5,4.3c2.8,3,5.7,5.9,8.4,9
			c3.9,4.4,7.5,9,11.3,13.5c2,2.4,4,4.7,6.1,7c0.8,0.9,1.7,1.8,2.5,2.7v-11.4c0-4.1-0.3-8.2-0.7-12.2c-0.5-0.6-1.1-1.2-1.6-1.8
			c-2.2-2.5-4.4-5.1-6.5-7.7c-2.6-3.1-5.1-6.2-7.7-9.3c-1.2-1.4-2.2-3-3.5-4.4c-2.7-3.1-5.5-6.1-8.2-9.2c-3.6-4.2-7-8.6-10.5-12.8
			c-0.2-0.2-0.4-0.4-0.6-0.6c-1.6-1.7-3.3-3.4-4.9-5.2c-3.1-3.6-6-7.5-9.1-11.1c-3.2-3.7-6.5-7.1-9.7-10.7c-1.7-1.9-3.3-3.8-4.9-5.7
			c-1.2-1.5-2.2-3.3-3.6-4.7c-0.3-0.3-0.6-0.7-0.9-1c-7.6-2.2-15.5-3.5-23.5-3.9c1.6,1.8,3.2,3.6,4.7,5.5
			C618.2,24.1,621.7,28.6,625.3,33z"/>
		<path d="M503.3,430c-0.3-0.7-0.7-1.5-1.4-2c-0.9-0.7-2-1.2-2.9-1.8c-3.3-2.1-6.5-4.2-9.8-6.2c-1.3-0.8-2.8-1.2-4.1-1.9
			c-0.9-0.5-1.5-1.2-2.4-1.7c-4.5-2.4-9-4.6-13.5-7c-2.3-1.2-4.5-2.7-6.8-3.9c-1.6-0.9-3.4-1.6-5-2.5c-3.8-2.2-7.5-4.6-11.4-6.6
			c-3.1-1.6-6.3-2.7-9.2-4.9c-2.6-1.9-5.7-3-8.6-4.5c-5.3-2.8-10.5-5.8-15.7-8.6c-4.4-2.4-8.7-4.8-13.1-7.2c-2-1.1-4.2-2.1-6.2-3.2
			c-3.5-1.9-6.9-4-10.4-5.9c-4.5-2.5-9.1-4.8-13.6-7.2c-2-1.1-4-2.5-6-3.6c-4.5-2.5-9.1-5-13.6-7.5c-3.4-1.9-6.8-3.8-10.2-5.6
			c-2.2-1.2-4.4-2.3-6.6-3.5c-4.3-2.5-8.6-5-12.9-7.5c-4.3-2.4-8.7-4.7-13-7.1c-2.2-1.2-4.3-2.8-6.5-4c-4.7-2.6-9.5-5-14.2-7.5
			c-2.4-1.3-4.8-2.7-7.3-4.1c-0.9-0.5-1.8-0.8-2.6-1.4c-3.3-2.1-6.4-4.4-9.8-6.3c-3.4-1.9-7-3.4-10.5-5.1c-3.5-1.8-6.6-1.3-10,0.9
			c-4.3,2.7-5.8,6.2-5.5,11c0.1,1.3,0.1,2.6,0,3.9c0,0.6-0.2,1.3-0.2,1.9c0,4-0.1,8-0.1,12c0,3.7,0,7.4,0,11.1
			c0,1.2-0.1,2.3-0.1,3.5c0,1.1,0.3,2.2,0.4,3.3c0.2,7.7,0.3,15.5,0.5,23.2c0.1,6,0.3,12,0.4,18.1c0.1,6.6-0.1,13.2,0,19.9
			c0.2,9.1,0.5,18.2,0.7,27.4c0.2,6,0.3,11.9,0.4,17.9c0.1,3.6,0.1,7.3,0.2,10.9c0.1,2.1,0.7,4.1,0.8,6.2c0.1,6.1,0,12.3,0.1,18.4
			c0.1,8.2,0.3,16.4,0.4,24.6c0.1,6.7-0.1,13.3,0,20c0.1,9.5,0.4,18.9,0.6,28.4c0.2,9.9,0.3,19.9,0.5,29.8c0,0,0,0,0,0
			c0,1.3,0,2.6,0,3.9c-0.1,2.2,0.7,4,2.2,5.5c1.9,1.9,4.2,3,6.7,4.1c4,1.7,7.5,0.9,10.9-0.9c3.8-2,7.5-4.3,11.1-6.6
			c3-1.9,5.9-4.1,8.8-6.1c1.4-1,3.1-1.6,4.6-2.5c2.7-1.8,5.3-3.8,8-5.5c4.5-2.9,9.1-5.6,13.6-8.5c1.3-0.8,2.4-2,3.7-2.8
			c4.5-2.9,9.1-5.8,13.6-8.7c4.2-2.7,7.8-6.3,12.6-8.2c0.5-0.2,1-0.6,1.5-1c3.1-2.2,6.3-4.4,9.4-6.5c1.9-1.3,3.9-2.3,5.8-3.6
			c3.5-2.4,6.8-5,10.3-7.4c3.8-2.5,7.7-4.8,11.5-7.2c3.3-2.1,6.4-4.3,9.7-6.4c1.9-1.2,4.1-2,5.6-3.5c1.4-1.5,3-2.5,4.7-3.5
			c0.7-0.5,1.6-0.8,2.3-1.3c3.2-2.1,6.4-4.1,9.5-6.4c4.7-3.4,9.8-6.1,14.4-9.6c5.3-4,11-7.3,16.5-10.9c4.5-3,9.1-6,13.6-9
			c3-2,6-4,9-6c3.5-2.4,7-4.9,10.6-7.3c4-2.7,8.1-5.4,12.1-8c2.1-1.4,4.1-2.8,6.1-4.2c2.7-1.8,5.6-3.5,8.2-5.4
			c2.4-1.7,3.1-4.4,2.1-7.1C503.7,432.2,503.7,431,503.3,430z M480.9,437.7c-4.4,2.7-9,5.3-13.4,8.1c-2.7,1.6-5.2,3.5-7.8,5.2
			c-2.8,1.8-5.6,3.7-8.4,5.5c-3.7,2.4-7.4,4.7-11.2,7c-4.1,2.6-8.2,5.1-12.2,7.7c-4.9,3.1-9.8,6.3-14.6,9.5c-4.1,2.7-8,5.7-12.1,8.4
			c-2.2,1.5-4.5,2.6-6.7,4c-4.1,2.6-8.3,5.1-12.4,7.8c-4.3,2.8-8.4,5.8-12.6,8.6c-3.1,2.1-6.3,3.9-9.4,6c-2.9,1.9-5.8,4-8.7,6
			c-1.2,0.8-2.4,1.4-3.6,2.2c-3.7,2.3-7.7,4.4-11.1,7.1c-2.6,2.1-5.4,3.5-8.2,5.2c-3.4,2.1-6.5,4.4-9.8,6.6
			c-1.3,0.9-2.7,1.6-4.1,2.4c-3.1,1.9-6.3,3.7-9.3,5.7c-3.1,2.1-5.9,4.5-8.9,6.6c-4.3,2.9-8.7,5.5-13.1,8.3c-3.4,2.2-6.7,4.4-10,6.6
			c-3.6,2.4-7.1,4.7-10.7,7.2c-1.3,0.9-2.4,2-3.6,3c-0.2-0.3-0.3-0.4-0.3-0.5c0-4.9-0.1-9.7-0.1-14.6c0-3,0-6,0-9
			c-0.1-9.4-0.1-18.7-0.2-28.1c-0.1-7.9-0.3-15.8-0.4-23.7c-0.1-8.5,0-17-0.1-25.5c0-3-0.5-5.9-0.5-8.9c0-2.4,0.5-4.9,0.5-7.3
			c-0.1-4.8-0.4-9.6-0.6-14.4c0-1.3,0.3-2.6,0.5-4c0.1-0.7,0-1.4-0.1-2.1c0-0.2-0.3-0.4-0.2-0.6c0.1-2.9,0.2-5.7,0.3-8.6
			c0-0.4,0.2-0.8,0.1-1.2c-0.9-2.9-0.8-5.7,0-8.6c0.1-0.4,0.1-0.9,0.1-1.4c-0.1-2.7-0.4-5.5-0.5-8.2c0-0.7,0.4-1.4,0.4-2
			c0-3-0.2-6-0.2-9.1c0-0.9,0.3-1.8,0.3-2.7c-0.1-3.8-0.4-7.5-0.5-11.3c0-1.7,0.3-3.3,0.3-5c0-2.8-0.1-5.6-0.1-8.3
			c0-2.1,0-4.2,0-6.2c0-0.5,0.2-0.9,0.2-1.4c0-2.2,0.1-4.3,0-6.5c0-1.1-0.4-2.3-0.4-3.4c0-1.2,0.1-2.4,0.2-3.6
			c0.1-0.6,0.2-1.3,0.2-1.9c0-3.4,0-6.7-0.1-10.1c-0.1-2.2-0.5-4.4-0.5-6.6c-0.2-9.4-0.3-18.7-0.5-28.1c0-0.3,0.1-0.7,0.1-1.3
			c1.2,0.5,2.3,0.9,3.3,1.4c2,1,3.9,2.1,5.8,3.2c2.4,1.3,4.8,2.6,7.2,3.9c3.8,2.1,7.5,4.3,11.4,6.4c1.9,1.1,4,1.8,6,2.9
			c2.3,1.3,4.6,2.7,6.9,4c4,2.1,8.1,4.1,12,6.3c3.7,2,7.2,4.3,10.8,6.3c2.7,1.5,5.5,2.7,8.1,4.1c3.2,1.7,6.3,3.4,9.5,5.1
			c2.7,1.5,5.5,2.9,8.2,4.5c1,0.6,1.9,1.5,2.9,2.1c1.8,1,3.8,1.9,5.6,2.9c1.9,1,3.6,2.2,5.5,3.3c4.3,2.3,8.7,4.5,12.9,6.9
			c4.6,2.6,9.1,5.3,13.7,7.9c1.1,0.6,2.2,1,3.3,1.6c3.8,2.3,7.6,4.7,11.4,6.9c2.2,1.3,4.6,2.3,6.9,3.4c3.1,1.6,6.2,3.2,9.2,4.9
			c4.2,2.4,8.3,5.1,12.5,7.5c4.1,2.3,8.4,4.1,12.3,6.6c3.9,2.5,8.1,4.3,12.2,6.4c2.9,1.5,5.8,3.2,8.6,4.8c3.2,1.9,6.3,3.9,9.4,5.8
			c2.3,1.4,4.7,2.6,7,3.9c1.6,0.9,3.2,2,5.2,3.2C483.5,435.7,482.3,436.8,480.9,437.7z"/>
	</g>
</g>
<g id="Capa_2">
	<path d="M617.9,0.7c-4.2-0.5-8.4-0.7-12.7-0.7c-2.4,0-4.8,0-7.3,0c-46.9,0-93.8,0-140.6,0c-6.3,0-12.7,0-19,0
		C394.7,0,351,0,307.3,0c-5.5,0-11,0-16.5,0C247.9,0,205,0,162.1,0c-5.3,0-10.5,0-15.8,0c-10.5,0-21,0-31.5,0
		C83.8,0,55.7,12.4,35,32.5c-3.3,3.2-6.5,6.7-9.4,10.3C9.6,62.5,0,87.5,0,114.7c0,22.6,0,45.2,0,67.7c0,4,0,8,0,12v410.9
		c0,0,0,0,0,0C0,668.4,51.6,720,114.7,720c163.5,0,327,0,490.5,0c63.1,0,114.7-51.6,114.7-114.7c0-137.1,0-274.1,0-411.2
		c0-3.9,0-7.7,0-11.6c0-13.4,0-26.7,0-40.1c0-7.6,0-15.2,0-22.9c0-1.6,0-3.2,0-4.8C720,55.9,675.1,7.1,617.9,0.7z M705.8,605.3
		c0,26.7-10.5,52-29.6,71c-19.1,19.1-44.3,29.6-71,29.6H114.7c-26.7,0-52-10.5-71-29.6c-19.1-19.1-29.6-44.3-29.6-71V194.4v-12.2
		v-67.5c0-22.1,7.2-43.1,20.4-60.5c2.8-3.6,5.8-7.1,9-10.4c0,0,0.1-0.1,0.1-0.1c19.1-19.1,44.3-29.6,71-29.6h42.2h16.3h128.9H319
		h130.8h19.5h136c1.5,0,3.1,0,4.6,0.1c8,0.4,15.9,1.7,23.5,3.9c16,4.7,30.7,13.4,42.9,25.5c16.1,16.1,26.1,36.7,28.8,58.8
		c0.5,4,0.7,8.1,0.7,12.2v11.4v56.3v11.7V605.3z"/>
</g>
</svg>
