<?xml version="1.0" encoding="utf-8"?>
<!-- Generator: Adobe Illustrator 24.3.0, SVG Export Plug-In . SVG Version: 6.00 Build 0)  -->
<svg version="1.1" id="Capa_1" xmlns="http://www.w3.org/2000/svg" xmlns:xlink="http://www.w3.org/1999/xlink" x="0px" y="0px"
	 viewBox="0 0 1000 1000" style="enable-background:new 0 0 1000 1000;" xml:space="preserve">
<style type="text/css">
	.st0{fill:#FFFFFF;}
</style>
<g>
	<path class="st0" d="M727.19,830.42c14.92,12,22.2,28.09,25.22,46.26c2.4,14.46,0.19,27.85-9.98,39.5
		c-9.5,10.88-21.31,18.13-33.91,24.66c-15.78,8.18-32.32,8.86-48.96,4.83c-18.44-4.47-31.26-15.92-36.05-34.78
		c-2.29-9.04-3.46-18.36-5.2-27.84c-1.36,1.56-2.9,3.34-4.68,5.39c0.9,1.07,1.74,2.04,2.55,3.03c2.32,2.84,2.54,4.94,0.73,6.64
		c-1.71,1.61-3.89,1.65-6.27-0.66c-3.35-3.25-6.96-6.5-9.37-10.41c-13.22-21.4-12.56-43.11,0.72-64.02
		c6.6-10.39,16.03-18.45,27.22-24.07c3.73-1.87,7.55-3.57,11.82-5.58c-0.91-5.44-1.62-11.06-2.8-16.58
		c-2.68-12.45-5.67-24.83-8.4-37.27c-2.01-9.11-5.6-17.62-10.4-25.5c-8.41-13.81-14.62-28.65-21.14-43.35
		c-3.66-8.27-6.88-16.73-10.57-24.99c-1.56-3.49-3.56-6.85-5.78-9.96c-3.63-5.08-6.59-10.42-8.85-16.28
		c-4.59-11.91-12.41-20.23-25.45-23.44c-7.75-1.91-15.12-5.41-22.66-8.17c-17.83-6.52-35.99-11.74-54.99-13.54
		c-2.49-0.24-5.05-0.52-7.42-1.28c-14.28-4.61-28.89-2.5-43.41-2.33c-7.7,0.09-14.67,2.93-21.82,5.3
		c-14.47,4.79-29.1,9.08-43.57,13.85c-18.03,5.94-33.89,16-49.24,26.88c-11.67,8.27-22.16,17.97-32.04,28.24
		c-9.58,9.97-16.99,21.62-23.08,34.01c-5.47,11.12-10.9,22.29-15.72,33.71c-6.25,14.81-11.9,29.88-17.75,44.86
		c-0.47,1.19-0.38,2.59-0.68,3.87c-0.29,1.26-0.34,3.02-1.18,3.62c-3.03,2.18-3.79,5.46-4.71,8.63c-1.64,5.62-3.04,11.32-4.43,16.58
		c4.86,6.7,9.99,12.92,14.15,19.72c5.32,8.7,9.95,17.83,14.71,26.86c4.33,8.22,3.77,16.86,1.52,25.49
		c-2.89,11.08-8.94,20.34-17.81,27.37c-9.33,7.4-19.61,13.34-30.71,17.96c-10.14,4.22-20.51,5.07-31.07,3.46
		c-8.43-1.28-16.76-3.3-25.04-5.36c-10.35-2.58-18.04-8.87-24-17.66c-4.74-6.99-8.62-14.31-11.52-22.25
		c-6.21-17.02-4.27-33.5,2.13-50.03c5.74-14.83,15.26-26.24,28.81-34.4c0.99-0.6,1.94-1.28,3.6-2.38c-1.35-0.15-2.03-0.17-2.67-0.32
		c-0.8-0.19-1.57-0.5-3.06-0.98c-3.62,3.31-8.01,6.53-11.39,10.59c-5.67,6.81-10.72,14.13-15.97,21.27
		c-1.19,1.62-2.04,3.32-1.27,5.59c0.65,1.9-0.13,3.72-2.11,4.55c-1.87,0.79-3.72,0.37-5.02-1.2c-1.16-1.41-2.18-2.98-3.04-4.59
		c-4.48-8.38-5.91-17.34-5.21-26.77c0.8-10.65,3.54-20.88,7.45-30.67c3.87-9.69,10.7-17.34,19.52-23.1
		c5.31-3.47,11.22-4.17,17.35-3.93c1.32,0.05,2.64,0.29,4.39,0.49c1.11-4.93,2.09-9.81,3.3-14.64c3.42-13.64,6.85-27.29,10.44-40.89
		c4.96-18.79,9.93-37.58,15.16-56.29c4.65-16.62,9.72-33.12,14.45-49.71c1.1-3.85,1.84-7.85,2.32-11.83
		c0.79-6.58,2.68-12.8,5.63-18.68c17.92-35.67,27.8-73.84,35.86-112.69c4.64-22.38,3.01-44.32-1.48-66.32
		c-1.74-8.53-3.45-17.1-5.76-25.49c-2.5-9.09-7.41-16.69-17-19.6c-7.3-2.22-14.55-2.3-20.62,3.67c-3.94,3.88-8.21,7.44-12.05,11.41
		c-3.24,3.36-6.36,6.92-9.05,10.73c-10.47,14.83-19.16,30.64-26.62,47.22c-3.9,8.68-8.98,16.84-13.74,25.11
		c-2.27,3.95-6.02,5.66-10.48,7.03c-9.6,2.94-19.15,2.57-28.84,1.48c-8.92-1-17.52-2.76-24.74-8.69c-2.58-2.12-5.67-3.6-8.27-5.7
		c-11.52-9.31-17.24-21.6-17.52-36.27c-0.28-14.24-0.61-28.53,0.09-42.74c0.77-15.72,2.55-31.39,4.17-47.05
		c0.94-9.16,2.2-18.31,3.73-27.4c1.39-8.25,3.23-16.42,5.12-24.57c0.52-2.24,0.45-4.06-0.32-6.25c-2.89-8.22-3.63-16.57-1.47-25.19
		c3.52-14.09,10.36-26.6,18.77-38.12c9.59-13.14,20.39-25.34,32.7-36.1c4.84-4.23,9.97-7.81,15.91-10.38
		c9.68-4.19,19.23-8.67,28.77-13.17c1.42-0.67,2.67-1.97,3.68-3.22c6.61-8.22,14.84-14.58,23.76-19.96
		c7.36-4.44,15.52-5.07,23.79-2.58c5.2,1.56,9.03,5.07,12.12,9.37c2.75,3.83,2.3,7.94,0.29,11.91c-1.19,2.36-2.69,4.56-4.41,7.45
		c1.87,0,3.28,0.16,4.64-0.03c5.59-0.77,11.02-0.14,16.37,1.57c7.34,2.34,14.76,4.45,22.03,7c3.6,1.26,7.19,2.9,10.37,4.99
		c21.43,14.14,42.37,28.95,61.49,46.16c10.72,9.65,21.22,19.54,30.26,30.86c4.92,6.16,10.1,12.11,14.99,18.28
		c10.67,13.45,19.64,27.96,26.98,43.48c2.61,5.51,4.56,11.24,4.33,17.41c-0.15,4.03,2.82,6.43,4.79,9
		c5.42,7.08,10.22,14.48,14.62,22.24c2.02,3.56,4.93,6.88,8.12,9.46c8.3,6.71,17.48,11.68,28.42,12.93
		c10.98,1.25,21.9,3.08,32.87,4.46c3.48,0.44,7.03,0.36,10.55,0.37c18.28,0.01,36.57,0.41,54.83-0.16
		c18.07-0.56,34.78,3.47,50.91,11.41c7.46,3.67,15.76,5.61,23.44,8.89c6.32,2.7,12.45,2.31,19,1.36
		c19.96-2.9,39.58-7.36,58.55-14.05c22.97-8.1,46.41-14.32,70.07-19.81c15.98-3.71,32.02-7.23,48.12-10.37
		c18.57-3.63,37.35-3.1,56.14-2.07c21.15,1.17,41.97,4.58,62.72,8.53c15.01,2.86,29.6,7.34,43.62,13.43
		c4.09,1.78,7.97,4.3,11.51,7.05c5.66,4.39,8.76,10.54,9.89,17.56c0.33,2.06,0.13,4.43-0.57,6.39c-2.46,6.84-6.58,12.4-13.4,15.56
		c-12.65,5.86-25.48,10.63-39.55,12.53c-29.32,3.96-58.78,5.09-88.28,5.76c-16.97,0.39-33.83,1.88-50.55,4.56
		c-15.21,2.43-30.45,5.02-45.38,8.71c-13.96,3.45-27.4,8.79-40.6,14.64c-7.03,3.12-10.52,9.39-9.66,17
		c1.05,9.31,2.4,18.61,4.28,27.78c4.71,22.93,6.66,46.07,6.62,69.45c-0.03,18.13,2.13,36.13,4.35,54.11
		c2.11,17.13,3.79,34.32,5.81,51.47s3.97,34.31,6.42,51.39c4.09,28.62,6.55,57.34,5.44,86.23c-0.65,16.9-2.36,33.77-3.59,50.65
		C727.3,828.87,727.24,829.69,727.19,830.42z M736.42,908.86c5.76-7.11,8.08-15.18,7.12-23.51c-4.23-2.65-7.79-5.16-11.61-7.18
		c-3.83-2.03-7.85-3.75-11.91-5.27c-3.87-1.45-7.91-2.46-11.88-3.67c0.35,1.58,1.06,2.28,1.69,3.04c7.97,9.5,15.93,19.02,23.9,28.52
		c2,2.38,3.31,4.97,2.76,8.17c-4.57-0.5-8.04-2.93-10.93-6.3c-4.9-5.72-9.76-11.5-14.63-17.24c-1.13-1.33-2.28-2.64-3.42-3.96
		c-0.29,0.19-0.57,0.38-0.86,0.56c5.63,12.89,11.26,25.77,17.01,38.93C729.13,917.57,732.61,913.04,736.42,908.86z M149.05,329.5
		c5.52-5.3,11.22-10.28,16.33-15.8c8.02-8.65,17.85-8.36,27.89-5.93c4.96,1.2,9.83,3.52,13.19,7.85c4.24,5.47,7.91,11.23,9.44,18.13
		c0.65,2.94,1.54,5.83,2.32,8.75c5.22,19.51,8.72,39.26,8.58,59.54c-0.02,2.84-0.06,5.72-0.49,8.52
		c-3.13,20.22-6.95,40.32-12.71,59.96c-4.67,15.9-10.22,31.55-15.34,47.32c-0.44,1.36-0.93,2.84-0.8,4.21
		c0.32,3.27,1.32,6.5,1.45,9.77c0.2,5.19-0.06,10.39-0.2,15.59c-0.38,13.57-0.21,27.19-1.33,40.7
		c-1.82,21.91-5.77,43.53-11.44,64.78c-3.5,13.11-7.8,26-11.48,39.06c-5.08,18.06-9.93,36.19-14.85,54.3
		c-0.33,1.21-0.44,2.47-0.74,4.28c16.88,1.44,32.95,5.65,49.43,7.21c0.95-2.65,1.64-4.71,2.43-6.73
		c5.99-15.28,11.81-30.64,18.08-45.81c3.45-8.35,7.71-16.37,11.52-24.58c8.77-18.9,19.96-36.05,35.9-49.79
		c2.54-2.19,4.88-4.61,7.39-6.83c19-16.76,39.88-30.57,63.44-40.09c5.74-2.32,11.61-4.35,17.5-6.28
		c11.45-3.74,22.77-8.08,35.02-8.64c0.79-0.04,1.57-0.43,2.34-0.69c3.15-1.02,6.23-2.58,9.46-3c17.48-2.28,34.99-3.88,52.42,0.58
		c2.74,0.7,5.62,0.99,8.45,1.24c18.85,1.67,36.85,6.82,54.55,13.21c8.03,2.9,15.95,6.13,24.07,8.73
		c8.65,2.77,16.45,6.57,22.08,14.01c0.77,1.02,2.01,1.69,3.04,2.52c5.98,4.86,12.21,9.43,17.86,14.64
		c6.65,6.12,12.83,12.76,19.15,19.23c2.46,2.51,4.98,5.02,7.07,7.83c21.36,28.81,36.64,60.45,43.45,95.81
		c2.88,14.96,5.02,30.08,7.18,45.17c0.5,3.51,1.81,5.45,5.16,6.34c3.24,0.86,6.36,2.13,9.6,2.95c11.05,2.82,22.08,5.65,32.34,10.82
		c0.69,0.35,1.53,0.4,2.54,0.65c0.23-0.9,0.49-1.51,0.52-2.12c0.59-12.56,1.56-25.12,1.65-37.68c0.14-20.46-0.57-40.89-3.44-61.22
		c-2.76-19.58-5.21-39.22-7.53-58.86c-2.18-18.48-3.7-37.04-6.06-55.49c-2.66-20.81-4.63-41.65-4.92-62.64
		c-0.15-10.73-0.21-21.48-0.89-32.18c-0.53-8.29-1.96-16.52-3.05-25.24c-4.16,1.51-7.55,2.87-11.02,3.98
		c-16.15,5.18-32.69,8.77-49.46,11.14c-9.94,1.41-19.95,2.78-29.97,3.19c-15.59,0.64-31.17-0.26-46.62-2.73
		c-2.8-0.45-5.68-0.46-8.53-0.55c-2.72-0.09-5.45-0.02-8.7-0.02c6.76,7.81,15.6,13.64,15.95,24.95c-2.1-1.15-3.83-2.62-5.49-4.16
		c-1.63-1.52-3.18-3.12-4.76-4.69c6.95,18.93,6.95,18.93,3.75,23.41c-1.81-2.78-3.54-5.4-5.24-8.05c-2.62-4.09-5.13-8.26-7.86-12.28
		c-1.12-1.64-2.31-3.52-4.98-3.79c0.86,4.84,1.66,9.27,2.42,13.71c0.79,4.6,1.04,9.19-0.37,14.53c-3.61-3.81-4.65-8.08-6.74-12.78
		c-1.35,6.82-0.08,13.35-3.83,18.54c-0.47-0.03-0.94-0.05-1.41-0.08c-0.79-4.84-1.59-9.69-2.42-14.78
		c-3.73,11.26-4.83,13.07-9.03,14.77c0.36-5.88,2.33-11.65,0.81-17.59c-0.73,0.99-1.17,2.01-1.48,3.08
		c-1.83,6.37-4.98,12.07-8.72,17.47c-0.76,1.09-1.56,2.27-2.63,2.98c-0.85,0.57-2.44,1-3.16,0.57c-0.96-0.57-2.01-2.1-1.91-3.1
		c0.19-1.93,0.98-3.87,1.86-5.63c1.7-3.42,3.64-6.72,5.72-10.51c-1.79,0-2.88,0-3.9,0c-1.52,2.86-0.99,6.54-4.78,8.69
		c-0.64-2.95-1.19-5.45-1.7-7.8c-2.59-0.64-2.85,0.72-2.91,2.42c-0.13,3.34-0.73,6.5-3.85,8.9c-2.96-3.38-2.55-7.49-3.67-11.03
		c-2.58,0.83-2.58,0.83-2.86,2.62c-0.48,3.07-0.18,6.43-3.15,8.75c-4.43-2.37-2.71-7.17-4.23-10.78c-1.42,0.14-2.69,0.26-4.09,0.4
		c-0.59,4.1,0.4,8.24-1.9,11.74c-3-0.62-3.58-2.83-4.15-4.89c-0.45-1.6-0.42-3.34-0.86-4.94c-0.19-0.68-1.03-1.19-2.05-2.29
		c-0.65,4.6,0.41,8.74-2.34,12.57c-3.8-3.27-3.73-7.67-4.79-11.71c-1.3,0.07-2.41,0.13-3.76,0.2c0.31,3.84,1.28,7.51-0.97,11.01
		c-4.85-2.15-5.04-6.75-6.14-11c-0.96,0.09-1.88,0.18-2.78,0.26c0.55,7.92,0.5,8.3-1.45,12.68c-5.06-2.81-5.57-7.91-6.55-13.04
		c-1.71,0.11-3.27,0.22-4.84,0.32c0.01,4.33,0.49,8.22-2.13,11.85c-5.04-2.63-3.51-7.92-5.08-11.85c-2.16,0-4.26,0-6.58,0
		c-0.57,5.56,0.57,11.26-3.25,16.52c-6.19-4.72-2.6-11.55-4.64-17.02c-1.06-0.09-2.14-0.19-3.26-0.29
		c-1.39,3.76-0.11,8.16-4.23,11.27c-0.83-1.82-1.71-3.35-2.21-5c-0.53-1.74-0.68-3.6-1.1-5.99c-2.6,4.13-3.02,8.65-6.82,11.23
		c-2.36-1.52-2.42-3.72-2.21-5.87c0.17-1.82,0.72-3.6,1.08-5.4c0.38-1.88-0.58-2.38-2.36-2.18c-2.74,7.05-3.35,14.94-7.83,21.77
		c-2.72-3.26-2.87-6.55-2.31-9.89c0.96-5.62,2.14-11.19,3.14-16.8c0.58-3.24,0.98-6.5,1.49-9.96c-2.14-0.71-3.8-1.26-5.64-1.87
		c-2.64,7.9-5.07,15.38-7.63,22.81c-2.58,7.45-4.55,15.21-9.97,21.37c-0.4-10.72,3.48-20.55,5.73-30.73
		c-5.5,7.37-7.98,16.56-14.7,24.49c-0.52-9.25,3.24-16.26,5.36-23.71c-4.41,5.02-7.86,10.76-13.17,14.96
		c0.8-5.07,3.02-9.51,5.3-13.9c2.35-4.52,4.93-8.92,7.41-13.38c-3.31,2.56-5.95,5.52-8.62,8.47c-2.81,3.11-5.56,6.28-8.49,9.27
		c-2.69,2.74-5.22,5.76-9.84,7.96c6.02-13.12,15.72-22.43,22.08-34.04c-10.56,8.88-19.68,19.6-32.57,25.5
		c2.89-8.57,10.46-13.18,16.11-19.3c5.8-6.3,12.51-11.75,19.51-18.22c-3.58,1.19-6.45,2-9.2,3.11c-4.2,1.68-8.29,3.62-12.48,5.33
		c-1.95,0.8-4,1.84-6.3-0.07c0.48-3.86,3.62-5.37,6.35-7.12c2.82-1.81,5.66-3.61,8.64-5.12c2.94-1.5,6.07-2.63,8.66-3.74
		c-0.62-6.14-1.92-11.96-1.65-17.71c0.6-12.71,1.37-25.47,3.21-38.05c2.92-19.95,8-39.41,16.76-57.73c0.57-1.19,1.22-2.56,1.13-3.79
		c-0.45-6.65,0.71-12.98,3.64-19.24c-1.56-0.52-2.83-0.89-4.05-1.35c-3.91-1.48-8.05-2.56-11.66-4.58
		c-12.29-6.85-24.67-13.61-36.5-21.21c-16.3-10.46-33.29-19.38-51.45-26.08c-10.32-3.81-21.03-6.24-31.97-5.81
		c-10.51,0.41-21.09,1.62-31.42,3.6c-19.11,3.67-35.94,12.63-51.29,24.4c-3.55,2.72-6.47,6.05-8.61,10.18
		C142.83,326.83,145.74,328.08,149.05,329.5z M390.76,309.9c-4.34-8.54-9.13-16.37-15.13-23.45c-1.48-1.75-2.91-2.8-5.27-3.25
		c-7.51-1.41-14.62-4.19-20.39-9.23c-7.05-6.17-14.04-12.51-20.33-19.44c-14.43-15.88-28.2-32.35-42.64-48.22
		c-13.33-14.66-27.89-28.05-44.23-39.39c-10.08-6.99-21.22-11.2-33.32-13.28c-11.36-1.95-22.74-1.24-34.11-0.96
		c-8.07,0.2-15.42,2.79-21.71,8.09c-2.69,2.26-5.64,4.2-8.35,6.44c-2.83,2.34-5.83,4.59-8.19,7.35
		c-5.22,6.11-11.81,10.25-18.46,14.52c-9.38,6.02-26.5-4.42-24.28-16.85c0.46-2.6,0.75-5.24,1.13-7.9c-2.63-1.2-4.78-0.19-6.8,0.96
		c-4.54,2.59-8.92,5.51-11.86,9.92c-4.37,6.54-8.68,13.14-12.59,19.96c-5.75,10.03-10.95,20.36-16.72,30.38
		c-3.22,5.59-4.8,6.03-10.99,5.36C31.93,246,20.18,340.56,24.51,348.63c4.29-2.64,8.65-5.4,13.94-4.84
		c3.04,0.32,5.02-0.75,6.91-2.93c8.99-10.38,20.92-14.64,34.13-16.14c15.21-1.73,30.45-1.41,45.7-0.89
		c1.83,0.06,3.66,0.01,5.98,0.01c4.36-11.77,14.19-18.51,24.37-24.85c18.05-11.24,37.56-18.09,58.81-20.46
		c16.45-1.84,32.49-0.99,48.13,4.34c17.02,5.8,33.11,13.64,48.49,23c14.02,8.53,28.2,16.81,42.36,25.11
		c5.51,3.23,11.5,5.19,17.36,6.11C377.53,327.81,384.08,318.94,390.76,309.9z M975.8,359.52c2.53-3.03,2.58-6.18,1.34-9.85
		c-2.77-8.18-8.81-12.75-16.36-15.92c-10.99-4.62-22.27-8.39-33.91-10.92c-24.43-5.31-49.12-8.82-74.12-10.15
		c-18.15-0.96-36.23-0.66-54.07,3c-15.08,3.09-30.1,6.54-45.08,10.09c-22.65,5.37-45.2,11.1-67.12,19.11
		c-16.55,6.04-33.68,10.08-50.94,13.52c-3.54,0.71-7.15,1.09-10.77,1.63c0.19,0.64,0.19,1.03,0.39,1.23
		c0.94,0.95,1.96,1.83,2.91,2.77c7.03,6.9,15.96,11.02,23.94,16.52c6.64,4.58,13.94,6.22,21.82,6.43c8.04,0.21,15.5-2.33,23.13-4.26
		c19.8-4.99,39.43-11.2,59.53-14.37c24.44-3.86,49.29-5.25,73.99-7.41c11.84-1.03,23.74-1.42,35.62-2.02
		c15.07-0.75,30.15-1.24,45.2-2.18c11.56-0.72,23.08-1.3,34.62,0.29c3.65,0.5,7.33,0.72,11,1.02
		C963.08,358.55,969.25,359.01,975.8,359.52z M153.58,150.13c0.23,0.2,0.47,0.4,0.7,0.6c1.51-0.67,2.97-1.5,4.54-1.97
		c4.64-1.38,9.26-3.41,13.99-3.74c10.67-0.74,21.37-1.64,32.11-0.47c16.32,1.79,31.22,7.01,44.68,16.6
		c14.95,10.65,28.61,22.79,41.11,36.13c14.67,15.65,28.57,32.02,43.04,47.85c6.55,7.16,13.58,13.89,20.59,20.61
		c3.91,3.75,8.77,6.01,14.18,7.51c0.83-5.08-0.61-9.5-2.53-13.79c-6.99-15.69-15.93-30.21-26.57-43.68
		c-4.68-5.92-9.6-11.64-14.29-17.54c-9.54-11.99-20.62-22.47-32.05-32.58c-15.83-14.01-32.8-26.55-50.18-38.59
		c-7.84-5.43-15.98-9.69-25.14-12.18c-4.2-1.14-8.27-2.76-12.49-3.81c-3.54-0.87-7.21-1.68-10.83-1.7
		c-5.13-0.03-9.95-0.82-14.62-2.89c-3.2-1.42-3.96-3.28-2.11-6.31c1.3-2.14,2.97-4.06,4.39-6.13c3.77-5.46,3.39-7.85-1.95-11.72
		c-1.2-0.87-2.58-1.6-3.98-2.07c-6.07-2.01-12.12-1.33-17.47,1.83c-8.67,5.13-16.71,11.14-22.74,19.47
		c-1.21,1.67-3.01,3.18-4.87,4.07c-9.96,4.78-19.98,9.43-30.07,13.95c-4.64,2.08-8.78,4.8-12.64,8.09
		c-10.64,9.07-19.97,19.34-28.63,30.28c-9.23,11.66-16.53,24.34-21.09,38.57c-2.78,8.66-2.24,17.17,0.09,25.73
		c0.28,1.03,0.88,1.98,1.72,3.82c1.81-2.43,3.41-4.11,4.46-6.07c4.66-8.71,8.98-17.62,13.79-26.25c4.4-7.89,8.65-15.99,14.09-23.13
		c6.06-7.97,13.65-14.48,24.79-12.73c3.02-5.34,5.91-10.44,8.79-15.54c7.14-12.63,15.56-24.18,26.77-33.65
		c6.18-5.22,12.29-9.83,20.29-12.36c7.46-2.36,15.54,2.35,17.25,8.68c1.37,5.1,1.09,10.12-0.79,14.8
		c-2.56,6.34-5.66,12.49-8.88,18.53C158.88,142.44,156.09,146.21,153.58,150.13z M578.26,426.89c2.76,0.18,4.39,0.42,6.01,0.37
		c10.55-0.3,21.15-0.17,31.64-1.11c15.5-1.4,30.95-3.48,46.4-5.46c11.45-1.46,22.74-4.34,34.44-3.23c0.89,0.09,1.94-0.35,2.76-0.82
		c14.66-8.39,30.5-14.12,46.68-18.23c36.15-9.19,72.98-14.32,110.34-15.01c20.79-0.38,41.56-0.85,62.24-3.28
		c15-1.76,29.98-3.56,43.68-10.64c0.93-0.48,1.83-1.01,3.5-1.94c-7.27-0.63-13.57-1.26-19.87-1.69c-6.51-0.45-13.08-1.41-19.54-0.94
		c-24.07,1.77-48.21,2.04-72.3,3.79c-17.53,1.27-35.15,1.65-52.67,3.32c-12.84,1.22-25.79,1.85-38.5,3.9
		c-14.03,2.26-27.9,5.63-41.75,8.9c-11.24,2.66-22.25,6.36-33.54,8.74c-14.06,2.96-27.69,1.56-39.99-6.79
		c-2.22-1.51-4.46-3.01-6.82-4.27c-7.77-4.14-14.65-9.41-20.74-15.74c-0.97-1.01-2.15-1.83-3.56-3.01
		C603.85,384.83,591.32,405.42,578.26,426.89z M526.5,418.65c14.68-26,31.99-50.05,55.34-69.98c-3.98-1.68-7.37-3-10.67-4.53
		c-9.12-4.22-18.67-6.35-28.71-6.29c-21.62,0.12-43.23,0.24-64.85,0.36c-0.84,0-1.72-0.11-2.5,0.1c-0.97,0.27-1.86,0.82-2.99,1.34
		c1.88,2.84,4.6,4.58,4.86,7.76c-3.8,1.07-6.43-5.2-10.4-1.32c1.76,2.9,3.36,5.52,5.23,8.6c-4.29,0.41-6.72-2.34-10.26-3.66
		c1.04,3.62,3.41,6.22,3.06,10.49c-2.64-1.79-4.76-3.04-6.67-4.57c-1.62-1.3-2.65-1.04-3.63,0.76c1.56,3.48,4.07,6.82,2.82,11.14
		c-4.85-0.49-5.47-5.87-9.7-7.96c1.05,4.71,3.65,8.79,0.27,12.98c-4.72-1.49-4.31-6.22-6.63-9.48c-1.22,0.39-2.54,0.82-3.67,1.18
		c-0.58,3.83,1.11,7.75-2.19,10.7c-4.2-1.83-3.64-5.93-5.01-9.29c-2.02,0.22-3.93,0.43-5.77,0.64c-0.23,4.41-0.43,8.32-0.67,12.89
		c-6.52-2.42-5.01-8.3-7.09-13.06c-1.53,4.4-0.39,8.85-3.94,11.68c-4.6-2.68-1.8-7.48-3.38-10.95
		c-3.52,2.89-10.82,16.47-11.16,20.85c4.83,0.34,9.66,0.77,14.5,1c11.04,0.55,22.09,0.96,33.13,1.51
		c5.52,0.28,11.06,0.47,16.53,1.18c14.1,1.84,27.2,7.05,39.95,13.01C510.3,409.46,517.91,414.02,526.5,418.65z M597.31,353.98
		c1.46,3.79,0.01,5.86-2.1,7.83c-2.56,2.4-4.96,4.98-7.43,7.49c-10.4,10.6-18.21,23.18-26.79,35.16c-3.8,5.3-7.27,10.88-10.45,16.58
		c-7.09,12.73-13.87,25.64-20.84,38.44c-5.93,10.89-11.66,21.85-22.04,29.56c-4.72,3.5-9.5,6.3-15.33,6.89
		c-7.32,0.74-14.67,1.74-22.01,1.76c-19.75,0.05-39.54,0.99-59.16-2.79c-10.54-2.03-21.01-3.86-30.77-8.71
		c-12.13-6.03-18.79-15.72-20.77-28.91c-1.46-9.74,0.02-19.4,0.81-29.08c0.63-7.7,2.04-15.21,4.85-22.51
		c8.77-22.8,22.41-42.62,37.28-61.71c3.88-4.98,7.86-9.89,11.74-14.77c-6.6-4.54-12.89-8.86-19.38-13.32
		c-2.79,4-5.93,8.13-8.67,12.5c-4.26,6.81-8.53,13.63-12.24,20.75c-1.73,3.32-3,7.33-2.95,11.01c0.08,6.29-1.45,11.87-4.31,17.29
		c-0.93,1.77-1.52,3.72-2.23,5.6c-8.24,21.83-12.23,44.55-13.86,67.72c-0.45,6.34-0.64,12.76-0.17,19.09
		c0.95,12.76,6.89,22.53,18.53,28.53c7.07,3.64,14.59,5.89,22.3,7.53c10.56,2.24,21.3,2.5,32.03,2.05
		c12.22-0.51,24.43-1.36,36.64-2.12c14.71-0.92,29.42-1.96,44.14-2.87c8.9-0.55,15.47-4.89,20.32-12.15
		c9.88-14.76,20-29.36,29.55-44.33c17.21-26.98,34.08-54.19,51.09-81.3c1.59-2.54,3.17-5.09,5.07-8.15
		C605.92,356.03,602.08,355.11,597.31,353.98z M382.55,424.26c-0.21,0.37-0.59,0.77-0.67,1.22c-1.63,9.63-2.28,19.36-0.85,29
		c1.11,7.51,5.15,13.17,12.81,15.99c9.36,3.44,19.07,5.16,28.87,6.23c9.46,1.03,19.02,1.44,28.55,1.62
		c13.76,0.27,26.94-2.75,39.34-8.69c2.47-1.18,4.8-3.22,6.46-5.41c3.12-4.11,5.7-8.63,8.74-13.33c-2.41-1.42-4.56-3.07-6.98-4.05
		c-11.62-4.7-23.24-9.46-35.03-13.7c-5.15-1.85-10.71-2.65-16.13-3.64C426.17,425.58,404.32,426,382.55,424.26z M143.84,336.8
		c-5.1-1.13-9.27-2.5-13.53-2.93c-16.22-1.62-32.46-1.51-48.72-0.19c-12.58,1.02-23.39,5.53-32.07,14.78
		c-0.83,0.88-1.69,2.21-1.68,3.33c0.04,4.07-1.57,7.52-3.52,10.86c-2.2,3.76-4.57,7.42-6.92,11.1c-2.96,4.64-5.96,9.25-8.8,13.65
		c3.48,8.25,9.57,14.3,17.31,17.29c6.01-10.76,12.17-21.49,18.03-32.38c3.76-6.99,8-13.56,13.64-19.18
		c3.51-3.49,7.56-6.14,12.23-7.72c5.19-1.76,9.15,0.4,10.15,5.73c0.52,2.76,0.7,5.72,0.29,8.48c-1.78,11.93-3.78,23.83-5.8,35.73
		c-1.03,6.05-2.28,12.06-3.5,18.47c2.93-0.4,5.2-0.82,7.48-1c2.78-0.22,4.73-1.6,6-3.97c4.36-8.11,9.05-16.07,12.93-24.41
		c6.59-14.15,13.38-28.15,22.32-41.01C140.95,341.65,142,339.76,143.84,336.8z M190.98,537.49c-0.49-0.13-0.98-0.27-1.48-0.4
		c-3.23,5.77-5.73,11.8-7.08,18.41c-1.91,9.34-3.92,18.68-6.46,27.87c-5.57,20.17-11.53,40.24-17.25,60.37
		c-3.71,13.04-7.32,26.12-10.9,39.2c-2.21,8.07-4.31,16.18-6.4,24.28c-0.46,1.77-0.94,3.63,0.8,5.13c4.6,3.97,9.18,7.97,14.25,12.37
		c1.49-5.36,2.71-9.86,3.98-14.34c4.94-17.4,9.8-34.81,14.85-52.17c5.68-19.52,9.6-39.46,11.87-59.56
		C189.46,578.37,189.79,557.88,190.98,537.49z M692.9,432.23c-2.06,0.77-3.45,1.24-4.8,1.79c-9.75,3.99-19.37,8.32-30.1,9.22
		c-4.32,0.36-8.6,1.3-12.89,2.01c-13.74,2.27-27.54,3.92-41.49,2.92c-12.17-0.88-24.32-2.04-36.91-3.11
		c-4.69,6.77-9.63,13.88-14.69,21.18c0.92,0.35,1.5,0.61,2.11,0.79c0.96,0.27,1.95,0.48,2.92,0.72c12.39,2.94,24.97,2.87,37.48,1.57
		c19.14-1.98,38.21-4.65,57.34-6.77c12.36-1.37,24.49-3.63,36.2-7.88c1.83-0.66,3.65-1.36,4.83-1.8
		C692.9,445.64,692.9,439.2,692.9,432.23z M101.9,171.49c-0.21,5.9,0.75,7.35,5.36,10.21c3.35,2.07,6.37,1.4,9.38-0.58
		c6.76-4.44,13.13-9.23,17.21-16.54c2.11-3.79,4.82-7.25,7.27-10.85c6.59-9.7,13.83-19.02,18.54-29.84
		c1.77-4.08,3.12-8.54,3.57-12.94c0.6-5.86-5.21-10.41-10.98-8.98c-2.35,0.58-4.78,1.75-6.62,3.31
		c-12.2,10.33-23.65,21.35-31.24,35.73c-2.19,4.15-4.56,8.2-6.69,12.38C104.65,159.38,102.06,165.55,101.9,171.49z M403.89,353.01
		c-9.74,15.25-20.8,29.24-27.79,45.72c-2.67,6.3-5.81,12.71-6.77,19.36c-1.65,11.4-2.28,23.02-2.35,34.55
		c-0.05,9.47,3.85,17.99,12.03,23.16c5.72,3.62,12.25,6.48,18.8,8.1c9.55,2.37,19.42,4.33,29.22,4.69
		c18.41,0.68,36.87,0.32,55.29-0.1c5.08-0.12,10.75-0.91,15.03-3.36c6.46-3.7,12.37-8.7,16.14-15.51
		c7.87-14.21,15.87-28.36,23.47-42.72c11.98-22.62,26.33-43.57,43.34-62.69c2.99-3.36,6.2-6.52,9.31-9.78
		c-3.97,1.06-6.79,3.62-9.51,6.3c-15.56,15.41-29.12,32.39-40.05,51.41c-2.91,5.05-5.44,10.35-8.6,15.23
		c-4.48,6.91-9.47,13.49-14.08,20.32c-4.5,6.66-8.5,13.68-13.29,20.11c-2.43,3.26-5.73,6.36-9.33,8.16
		c-11.62,5.84-23.99,9.51-37.09,9.88c-18.99,0.55-37.87-0.67-56.4-5.06c-4.85-1.15-9.57-3.02-14.14-5.05
		c-4.55-2.02-7.96-5.54-10.13-10.1c-2.62-5.52-4.22-11.31-4.12-17.46c0.18-11.09,1.14-22.1,4.08-32.84
		c1.1-4.02,1.77-8.34,3.78-11.88c7.04-12.36,14.58-24.43,22-36.72c-1.53-5.48-0.44-6.82,5.21-6.68c6.03,0.14,12.07,0.22,18.09,0.01
		c6.27-0.22,12.21-1.98,17.77-4.92c1.2-0.63,2.29-1.46,3.81-2.44c-6.7,1.73-12.75,3.73-18.96,4.79
		C420.28,358.93,411.94,358.63,403.89,353.01z M585.38,625.55c-0.2,0.1-0.4,0.2-0.61,0.31c1.21,1.74,2.53,3.42,3.61,5.24
		c2.39,4.01,4.93,7.97,6.9,12.19c3.4,7.27,6.28,14.78,9.6,22.1c6.98,15.39,13.49,30.99,22.33,45.5c5.24,8.6,8.94,17.96,11.18,27.85
		c2.7,11.91,5.45,23.82,8.29,35.7c0.41,1.7,1.01,3.92,2.27,4.73c3.39,2.18,7.24,3.61,11.85,4.54c-1.12-7.17-2.14-13.77-3.18-20.35
		c-4.71-29.82-12.53-58.63-28.55-84.6c-6.23-10.1-12.47-20.33-19.96-29.47C602.06,640.67,593.36,633.41,585.38,625.55z M81.6,415.33
		c0.66-3.46,1.29-6.55,1.83-9.66c2.65-15.15,5.3-30.31,7.86-45.47c0.28-1.68,0.04-3.44,0.04-6.35c-3,2.16-5.31,3.29-6.91,5.07
		c-3.46,3.83-7.03,7.7-9.71,12.07c-7,11.4-13.55,23.06-20.25,34.64c-0.72,1.24-1.23,2.6-1.96,4.19
		C62,414.48,71.61,415.59,81.6,415.33z M389.33,401.48c1.74,0.19,2.68,0.4,3.62,0.38c20.68-0.34,41.08,2.58,61.46,5.49
		c19.55,2.8,37.6,9.39,53.32,21.7c2.46,1.93,5.25,3.44,8.31,5.41c1.94-3.07,3.59-5.69,5.31-8.44c-1.02-0.79-1.66-1.31-2.33-1.79
		c-14.43-10.45-30.61-17.19-47.6-22.02c-5.74-1.63-11.81-2.4-17.79-2.88c-15.02-1.2-30.08-1.92-45.11-3.03
		c-4.96-0.37-9.88-1.33-15.2-2.07C392.15,396.4,390.9,398.65,389.33,401.48z M222.93,856.98c-2.89,2.17-3.06,2.38-5,1.03
		c-2.45-1.72-4.84-3.63-6.91-5.79c-7.34-7.67-17.26-11.01-26.05-16.22c4.96,7.42,10.45,14.34,15.05,21.82
		c4.66,7.59,8.44,15.72,12.75,23.9c7.67-7.02,12.56-15.22,14.01-25.19c0.52-3.58,0.82-7.48-0.02-10.93
		c-1.79-7.35-6.24-13.56-9.38-20.13c-7.32,0.39-14.06,0.75-20.81,1.12c22.41,7.42,22.41,7.42,24.29,12.39
		c-4.46,1.92-7.97-1.38-11.85-2.14c-4.23-0.82-8.39-2.02-12.57-3.06c4.66,3.78,9.8,6.56,14.35,10.1
		C215.51,847.53,219.71,851.86,222.93,856.98z M383.3,417.52c4.89,0.27,8.88,0.7,12.87,0.66c13.25-0.14,26.41,0.73,39.61,1.97
		c25.63,2.4,49.26,10.69,71.96,22.28c0.8,0.41,1.73,0.58,2.6,0.87c0.24-0.25,0.47-0.5,0.71-0.74c-0.53-0.77-0.9-1.74-1.61-2.27
		c-2.41-1.81-5.05-3.31-7.39-5.2c-12.27-9.92-26.42-15.69-41.72-18.78c-18.42-3.72-37.15-5.09-55.84-6.55
		c-6.12-0.48-12.31-0.08-18.75-0.08C385.01,412.03,384.28,414.39,383.3,417.52z M694.44,462.12c-5.94,1.89-11.54,4.25-17.38,5.39
		c-10.83,2.12-21.77,3.84-32.73,5.15c-17.3,2.06-34.64,3.71-51.98,5.4c-15.15,1.48-30.05,0.78-44.41-5.95
		c-1.42,2.47-2.77,4.83-4.05,7.06c11.1,1.18,21.56,2.65,32.06,3.32c11.03,0.7,22.15,1.42,33.14,0.76
		c21.45-1.29,42.49-5.59,63.31-10.83c6.64-1.67,13.09-4.12,19.58-6.32C693.43,465.61,695.5,465.26,694.44,462.12z M153.86,734.83
		c-5.24-4.59-10.09-8.85-15.46-13.54c-3.86,16.96-5.82,33.45-7.3,50.21c4.21-0.9,7.92-1.69,11.94-2.54
		C146.57,757.83,150.14,746.57,153.86,734.83z M383.9,513.12c-0.12,2.2-0.21,3.81-0.33,5.91c40.86,4.12,81.21,1.22,121.8-2.05
		c0.42-1.67,0.75-3,1.2-4.78c-1.72,0.13-2.86,0.21-3.99,0.31c-8.5,0.77-16.99,1.77-25.51,2.28c-12.03,0.72-24.1,0.88-36.13,1.62
		C422,517.55,403.12,518.01,383.9,513.12z M204.14,766.4c-15.89-2.86-31.77-5.71-48.08-8.65c-1.1,3.59-2.14,6.98-3.38,11.05
		c18.22-1.9,33.25,5.26,48.12,13.32C201.97,776.58,203,771.74,204.14,766.4z M645.86,929.37c12.1-18.78,23.73-36.84,35.36-54.89
		c-0.21-0.24-0.43-0.48-0.64-0.73c-2.6,1.98-5.51,3.66-7.75,5.98c-11.86,12.26-23.55,24.69-35.28,37.07
		c-0.33,0.35-0.49,0.85-1.08,1.9C639.37,922,642.41,925.45,645.86,929.37z M408.07,348.66c1.7,0.51,2.94,1,4.23,1.26
		c12.13,2.46,23.23-1.05,33.96-6.19c2.86-1.37,4.84-3.88,5.93-7.32c-10.82-1.51-21.19-2.96-31.78-4.43
		C416.41,337.39,412.35,342.88,408.07,348.66z M136.05,898.38c5.22-9.66,10.52-18.94,15.3-28.47c4.87-9.69,9.23-19.63,14.3-30.5
		c-2.13,0.69-3.49,0.89-4.56,1.55c-0.78,0.49-1.22,1.56-1.75,2.41c-10.62,16.85-21.24,33.7-31.84,50.56
		c-0.15,0.24-0.08,0.63-0.15,1.42C130.02,896.29,132.8,897.26,136.05,898.38z M680.47,427.71c-0.13-0.23-0.26-0.46-0.39-0.69
		c-12.25,1.68-24.47,3.55-36.74,5.01c-18.12,2.15-36.29,3.8-54.58,2.67c-4.65-0.29-9.29-0.9-14.39-1.4c-0.65,1.11-1.41,2.4-2.45,4.2
		c7.25,0.57,13.73,1.15,20.23,1.59c11.87,0.8,23.76,1.35,35.59-0.31c12.09-1.69,24.2-3.33,36.19-5.61
		C669.59,432.09,674.97,429.57,680.47,427.71z M99.87,848.56c6.37-2.69,11.57-4.91,16.8-7.08c5.41-2.24,10.88-4.34,16.26-6.64
		c5.06-2.17,10.41-3.77,14.98-7.21c-11.89,0.52-23.59,1.62-35.28,2.87c-3.94,0.42-7.95,0.84-11.85,3.12
		C100.5,838.23,100.21,842.87,99.87,848.56z M719.7,819.71c-14.88-8.86-31.26-11.41-46.76-16.66c-1.01,8.01-0.55,9.24,5.66,12.83
		c1.49,0.86,3.4,1.13,5.16,1.35c2.31,0.29,4.68,0.13,7,0.39c7.39,0.83,14.31,3.18,20.8,6.89c1.75-1.14,3.34-2.17,5.66-3.68
		c-0.8,2.51-1.34,4.18-1.97,6.16c1.34-0.15,2.41-0.27,3.57-0.4C719.13,824.12,719.41,821.99,719.7,819.71z M145.84,821.4
		c-10.96-7.82-23.4-9.92-36.04-12.08c-2.58,5.21-5.2,10.12-6.21,15.82C117.97,823.87,131.91,822.63,145.84,821.4z M636.2,834.41
		c-12.73,7.26-24.97,13.72-36.05,23.03c0.66,3.47,1.35,7.1,2.17,11.37c8.09-5.73,15.45-10.91,22.76-16.17
		c0.77-0.55,1.29-1.51,1.8-2.36C629.84,845.28,632.77,840.25,636.2,834.41z M156.05,807.04c-3.22-3.46-6.56-6.96-9.8-10.54
		c-1.68-1.86-3.38-3.75-4.69-5.86c-0.56-0.91-0.64-2.81-0.05-3.59c1.13-1.5,2.8-0.74,3.92,0.39c3.41,3.45,6.74,6.98,10.08,10.5
		c1.1,1.16,2.14,2.38,3.23,3.59c0-7.39,0-14.43,0-22.11c-10.73,1.24-20.06,4.08-29.42,9.52c3,2.64,5.31,4.8,7.75,6.79
		c5.05,4.12,10.23,8.07,15.21,12.25C153.97,809.41,154.87,808.96,156.05,807.04z M703.39,933.3c-2.53-16.99-4.91-32.95-7.32-49.13
		c-3.46,17.6-4.54,35.21-5.32,53.71C695.5,936.16,699.51,934.71,703.39,933.3z M181.77,842.02c5.18,17.4,10.09,33.86,15.14,50.82
		c3.76-2.47,7.18-4.71,10.49-6.88C199.7,870.81,192.77,855.72,181.77,842.02z M152.93,835.26c-10.73,18.22-25.01,33.2-37.58,50.19
		c1.79,1.75,3.73,3.65,6.03,5.89c11.93-18.29,23.43-35.93,35.06-53.77C155.39,836.88,154.3,836.16,152.93,835.26z M681.61,938.69
		c1.91-17.5,3.74-34.23,5.57-50.96c-5.48,16.59-12.84,32.58-18.1,50.1C673.68,938.15,677.46,938.41,681.61,938.69z M164.31,859.19
		c-6.88,13.64-12.74,27.64-21.93,40.51c5.7,1.17,10.51,2.83,15.23,2.52C159.9,887.56,162.11,873.38,164.31,859.19z M157.23,826.53
		c2.93,3.76,6.99,4.34,10.92,4.97c5.19,0.83,8.72-1.84,9.78-7.06c1.03-5.11-1.52-10.01-5.92-11.36c-6.64-2.03-11.34,0.29-14.37,7.09
		C160.52,823.01,160.52,823.01,157.23,826.53z M666.1,876.97c-0.2-0.26-0.39-0.52-0.59-0.77c-11.72,7.22-23.45,14.44-35.33,21.76
		c0.64,4.41,1.63,8.66,3.61,13.02C644.79,899.41,655.45,888.19,666.1,876.97z M123.22,772.9c-0.29-0.32-0.58-0.63-0.88-0.95
		c-11.08,6.45-22.17,12.9-33.23,19.33c-0.51,7.27,0.27,10.85,3.3,15.12c2.21-3.13,4.3-6.35,6.65-9.37c2.36-3.03,4.86-5.97,7.49-8.76
		c2.63-2.79,5.46-5.41,8.29-8.01C117.57,777.74,120.42,775.35,123.22,772.9z M192.22,895.5c-7.79-14.4-9.6-30.24-15.25-44.83
		c1.33,16.38,2.67,32.76,4.05,49.8C185.01,898.7,188.6,897.11,192.22,895.5z M112.03,804.13c7.6,1.61,13.91,2.53,19.94,4.34
		c5.94,1.78,11.6,4.46,18.41,7.16c-0.91-1.68-1.13-2.66-1.74-3.14c-3.15-2.48-6.36-4.89-9.62-7.21c-5.23-3.73-10.69-7.2-13.6-14.02
		C120.9,795.6,116.87,799.48,112.03,804.13z M137.22,846.62c-0.18-0.17-0.36-0.34-0.54-0.51c-10.45,7.08-20.91,14.17-31.78,21.54
		c2.12,3.99,4.11,7.75,6.17,11.66C120.04,868.11,128.63,857.37,137.22,846.62z M171,861.02c-0.19-0.04-0.38-0.08-0.57-0.12
		c-2.21,13.94-4.43,27.88-6.75,42.54c4.25-0.37,8.13-0.72,11.4-1.01C173.68,888.2,172.34,874.61,171,861.02z M701.98,856.96
		c-1.56-3.58-2.8-7.21-7.72-6.04c-0.25,0.06-0.62-0.22-0.87-0.42c-2.31-1.76-4.5-0.74-6.4,0.57c-2.87,1.97-4.52,4.86-4.85,8.37
		c-0.38,4.02,1.47,6.54,5.44,6.88c2.45,0.21,4.98-0.11,7.43-0.52c1-0.17,2.11-1,2.71-1.86C699.22,861.8,700.47,859.47,701.98,856.96
		z M719.54,924.17c-5.32-10.64-10.34-20.68-15.35-30.73c-0.34,2.28-0.17,4.43,0.01,6.58c0.86,10.09,4.33,19.89,2.93,31.05
		C711.99,928.91,715.86,926.47,719.54,924.17z M93.25,766.61c-1.82,5.78-3.8,11.02-3.77,17.72c9.36-6.25,18.98-10.62,27.08-17.72
		C108.96,766.61,101.37,766.61,93.25,766.61z M628.35,877.8c0.01,3.91-0.33,8.26,1.55,12.97c10.69-6.78,20.98-13.3,31.27-19.83
		c-0.09-0.12-0.18-0.24-0.26-0.36C650.22,872.95,639.53,875.32,628.35,877.8z M643.27,829.19c7.41-3.42,14.26-6.58,21.12-9.75
		c0.01-0.36,0.03-0.72,0.04-1.08c-6.29-2.61-12.17-6.19-19.34-7.92C642.68,816.74,640.61,822.57,643.27,829.19z M672.68,858.15
		c-7.03,1.32-13.7,2.68-20.41,3.8c-6.76,1.13-13.55,1.94-20.83,0.4c-0.75,2.65-1.45,5.08-2.32,8.16
		c15.19-1.29,28.86-7.12,43.56-6.93C672.68,861.65,672.68,860.07,672.68,858.15z M675.75,897.29c-0.29-0.27-0.57-0.54-0.86-0.81
		c-7.33,12.01-14.67,24.02-22.29,36.51c3.29,1.35,5.83,2.39,8.39,3.44C666.02,923.09,670.88,910.19,675.75,897.29z M23.51,357.6
		c0.31,6.08,0.22,11.78,1.99,18.38c5.43-8.28,11.18-15.09,14.59-23.9C32.97,350.54,28.93,355.38,23.51,357.6z M622.02,860.42
		c-5.95,4.87-11.67,9.56-17.73,14.53c1.96,3.48,3.88,6.9,5.93,10.54c2.55-2.03,4.67-3.61,6.67-5.34c0.85-0.73,1.86-1.69,2.06-2.69
		C620.07,871.96,620.96,866.41,622.02,860.42z M132.01,841.4c-0.21-0.25-0.42-0.5-0.63-0.75c-10.01,4.04-20.03,8.09-30.64,12.38
		c0.68,2.48,1.38,5.06,2.19,8.02C113.04,854.23,122.53,847.82,132.01,841.4z M638.04,847.51c-1.16,2.42-2.41,5.03-3.93,8.21
		c13.56,1.53,26.08-3.51,38.82-1.36C661.55,852.12,650.19,849.89,638.04,847.51z M642.78,841.11c11.64,3.26,22.01,6.16,32.05,8.98
		c-7.2-5.01-14.73-10.25-22.7-15.8C649.39,836.3,646.49,838.41,642.78,841.11z M649.76,790.03c0.62,5.01,1.12,9.07,1.62,13.1
		c3.7,1.55,7.29,3.05,11.45,4.78c-0.21-3.78-0.26-6.78-0.61-9.75c-0.12-1.04-0.72-2.45-1.53-2.89
		C657.37,793.47,653.88,791.97,649.76,790.03z M93.98,762.27c6.61-0.31,12.1-0.57,17.58-0.84c3.67-0.18,7.35-0.32,11.01-0.65
		c0.68-0.06,1.29-0.94,2.93-2.24c-9.69-1.21-18.48-0.98-26.5-5.61C97.29,756.11,95.82,758.84,93.98,762.27z M713.57,861.96
		c-0.03,0.37-0.05,0.74-0.08,1.12c5.04,1.72,10.23,3.09,15.06,5.27c4.78,2.15,9.2,5.12,14.27,8.01c-0.68-2.95-1.34-5.51-1.85-8.08
		c-0.5-2.48-1.92-3.73-4.43-3.98C728.88,863.54,721.23,862.74,713.57,861.96z M675.04,826c3.68,5.45,6.68,10,9.82,14.44
		c0.45,0.63,1.64,1.03,2.46,0.98c0.44-0.02,1.07-1.18,1.18-1.89c0.71-4.4,1.3-8.83,1.98-13.53C685.69,826,680.93,826,675.04,826z
		 M659.39,830.64c4.26,3.29,7.41,5.76,10.6,8.16c3.06,2.3,5.86,5,10.14,7.44c-3.11-7.13-5.72-13.12-8.47-19.43
		C667.97,827.96,664.22,829.13,659.39,830.64z M601.6,846.97c7.28-4.35,14.56-8.72,21.87-13.04c3.17-1.88,6.44-3.59,9.59-5.5
		c0.6-0.36,0.86-1.29,1.28-1.96c-1.55,0.07-2.54,0.65-3.58,1.13c-7.76,3.55-15.46,7.24-23.31,10.56
		C602.3,840.33,601.91,840.52,601.6,846.97z M208.34,810.75c-7.14,3.24-13.8,6.26-21.06,9.55c4.95-0.35,9.22-0.77,13.51-0.93
		c4.2-0.15,8.41-0.03,13.24-0.03C211.94,816.2,210.21,813.58,208.34,810.75z M166.25,803.21c0.41,0.02,0.82,0.03,1.23,0.05
		c2.28-6.19,4.56-12.39,7-19c-3.17-0.6-5.89-1.12-9.43-1.79C165.48,789.72,165.87,796.46,166.25,803.21z M180.27,785.79
		c-2.74,6.6-5.25,12.66-7.87,18.97c1.1,0.39,2.13,0.75,3.15,1.12c3.55-5.68,6.97-11.14,10.58-16.91
		C184.11,787.87,182.25,786.86,180.27,785.79z M126.23,747.62c0.42-3.78,0.77-6.82,1.14-10.18c-5.41-0.28-10.01,0-14.84,2.62
		C117.22,742.65,121.38,744.94,126.23,747.62z M713.45,847.19c0.06,0.33,0.11,0.66,0.17,0.98c5.69,0,11.39,0,17.58,0
		c-1.92-3.47-4.03-6.47-7.53-8.37C720.18,842.34,716.82,844.77,713.45,847.19z M696.23,826.8c-1.72,7.71-1.79,11.31-0.24,14.74
		c3.12-3.76,6.13-7.38,9.58-11.54C702.15,828.83,699.37,827.87,696.23,826.8z M181.67,810.01c4.9-4.51,9.59-8.83,14.53-13.37
		c-1.57-1.22-3.24-2.52-5.14-4c-3.54,5.61-6.89,10.92-10.2,16.25C180.8,808.99,181.22,809.39,181.67,810.01z M710.16,833.15
		c-2.91,3.92-5.59,7.54-8.28,11.15c0.3,0.34,0.59,0.67,0.89,1.01c5.21-2.07,10.01-4.97,15.56-7.69
		C715.36,836,713.05,834.73,710.16,833.15z M626.7,808.87c3.51,2.23,6.35,4.03,9.42,5.98c1.37-2.87,2.56-5.34,3.82-7.97
		c-1.68-1.23-3.12-2.28-4.84-3.54C632.45,805.09,629.9,806.76,626.7,808.87z M199.69,799.44c-3.6,4.2-6.78,7.9-9.96,11.6
		c0.14,0.18,0.28,0.36,0.42,0.54c4.88-1.71,9.77-3.42,15.2-5.33C203.33,803.82,201.67,801.82,199.69,799.44z M625.02,824.54
		c-0.03-0.26-0.05-0.51-0.08-0.77c-3.95,0-7.91-0.09-11.86,0.06c-1.02,0.04-2.32,0.62-2.93,1.39c-1.38,1.75-2.41,3.77-3.58,5.68
		c0.22,0.26,0.44,0.52,0.66,0.77C613.16,829.3,619.09,826.92,625.02,824.54z M102.52,748.59c6.5,2.15,12.4,2.84,18.59,2.27
		c-4.71-2.23-9.41-4.46-14.34-6.8C105.46,745.45,104.27,746.72,102.52,748.59z M617.88,816.97c3.81,0.73,7.14,1.22,10.48-0.07
		c-2.27-1.24-4.54-2.48-6.93-3.78C620.03,814.65,618.95,815.81,617.88,816.97z M723.49,854.63c0.05,0.3,0.1,0.61,0.15,0.91
		c3.96,0.32,7.91,0.64,11.98,0.97c-0.09-2.47-0.91-3.72-3.38-3.28C729.34,853.74,726.41,854.17,723.49,854.63z M460.76,337.52
		c-0.88,2.18-1.65,4.11-2.43,6.03c0.27,0.14,0.55,0.28,0.82,0.43c1.87-1.75,3.73-3.51,6.18-5.81
		C463.27,337.87,462.08,337.7,460.76,337.52z M642.08,799.4c-0.34,0.22-0.68,0.43-1.02,0.65c0.68,0.96,1.36,1.93,2.04,2.89
		c0.26-0.16,0.53-0.33,0.79-0.49C643.28,801.43,642.68,800.42,642.08,799.4z"/>
	<path class="st0" d="M104.64,227.08c12.64,0.77,25.02,1.43,37.39,2.35c2.79,0.21,5.6,1.09,8.24,2.07c5.7,2.11,7.28,4.7,5.02,10.23
		c-2.12,5.2-4.6,10.69-8.36,14.71c-7.65,8.19-16.27,15.43-26.24,20.9c-12.62,6.92-25.16,5.8-37.53-0.18
		c-6.86-3.32-12.42-8.56-17.35-14.33c-6.84-8.01-5.95-17.77,1.76-25.08c6.43-6.1,14.44-8.28,22.8-9.53
		C95.14,227.49,100.03,227.42,104.64,227.08z M148.43,238.32c-2.53-1.91-5.06-1.9-7.53-1.99c-9.02-0.32-18.05-0.79-27.07-0.84
		c-7.68-0.04-15.4,0.02-23.02,0.8c-6.49,0.67-12.81,2.55-17.67,7.5c-4.32,4.4-4.8,9.46-0.51,13.67c4.39,4.31,8.89,8.85,14.16,11.87
		c9.74,5.57,20.34,7.21,30.42,0.75c7.14-4.58,13.75-10.03,20.47-15.24C143,250.7,146.03,244.97,148.43,238.32z"/>
	<path class="st0" d="M147.54,224.58c-2.69-0.33-4.86-0.5-7-0.87c-21.18-3.65-42.28-4.32-63.18,1.75
		c-3.69,1.07-7.28,2.49-10.85,3.91c-2.96,1.17-5.86,1.17-8.84,0.23c-1.84-0.58-3.84-1.46-3.69-3.53c0.12-1.61,1.3-3.27,2.37-4.62
		c0.65-0.81,2.11-1.61,3.04-1.46c3.21,0.55,5.38-1.34,7.81-2.71c0.44-0.25,0.86-0.55,1.33-0.71c12.61-4.51,25.17-9.28,38.78-9.7
		c8.71-0.27,17.42-0.29,26.14-0.3c7.51-0.01,14.63,1.6,21.06,5.65c1.27,0.8,2.55,1.68,3.55,2.77c2.91,3.14,1.99,7.02-2.11,8.19
		C153.09,224.01,150.04,224.19,147.54,224.58z"/>
	<path class="st0" d="M117.53,256.68c0,8.14-5.71,13.68-14.1,13.7c-7.35,0.02-13.11-5.18-13.02-11.76
		c0.1-7.45,7.19-14.02,14.98-13.87C112.61,244.88,117.53,249.72,117.53,256.68z M107.64,261.06c0.32-1.66,0.74-2.88,0.73-4.09
		c-0.01-1.73-1.07-2.86-2.85-2.7c-1.04,0.09-2.43,0.46-2.96,1.21c-1,1.4-0.34,2.93,1.05,3.83
		C104.68,259.98,105.94,260.34,107.64,261.06z"/>
</g>
</svg>
