<?xml version="1.0" encoding="utf-8"?>
<!-- Generator: Adobe Illustrator 24.3.0, SVG Export Plug-In . SVG Version: 6.00 Build 0)  -->
<svg version="1.1" id="Capa_1" xmlns="http://www.w3.org/2000/svg" xmlns:xlink="http://www.w3.org/1999/xlink" x="0px" y="0px"
	 viewBox="0 0 1000 1000" style="enable-background:new 0 0 1000 1000;" xml:space="preserve">
<style type="text/css">
	.st0{fill:#FFFFFF;}
</style>
<g>
	<path class="st0" d="M419.56,469.21c0.66-1.49,1.26-3.01,2.01-4.46c1.36-2.62,3.49-3.69,5.7-2.97c2.25,0.73,3.54,2.79,3.05,5.67
		c-0.67,3.94-1.65,7.83-2.14,11.84c4.47-8.26,7.31-17.12,10.22-26.11c-0.79-0.63-1.36-1.25-2.06-1.63
		c-15.88-8.63-29.52-20.05-41.32-33.63c-20.04-23.06-38.62-47.25-52.4-74.63c-6.49-12.9-11.5-26.55-17.02-39.92
		c-4.89-11.84-9.2-23.88-11.46-36.55c-5.65-31.67-7.72-63.52-4.37-95.59c2.96-28.33,9.56-55.68,22.09-81.47
		c6-12.36,12.98-23.98,22.24-34.16c5.77-6.35,11.58-12.67,17.5-18.87c2.42-2.53,5.02-4.97,7.89-6.95c1.27-0.87,3.63-1.14,5.09-0.6
		c16.87,6.26,31.61,15.72,43.18,29.7c4.19,5.06,8.29,10.2,12.43,15.29c7.48,9.19,13.56,19.26,18.9,29.8
		c0.9,1.78,1.77,3.59,2.86,5.81c21.44-10.74,44.6-11.52,67.53-13.75c23.28-2.27,45.96,1.41,69.12,5.54
		c2.01-2.81,4.33-6.07,6.67-9.32c8.41-11.7,18.71-21.64,29.38-31.22c16.69-14.99,33.86-29.35,53.14-40.98
		c1.3-0.78,2.58-1.61,3.96-2.22c3.18-1.41,4.62-1.06,7.17,1.48c0.59,0.58,1.1,1.31,1.8,1.7c13.55,7.56,23.88,18.41,32.39,31.23
		c4.09,6.16,8.98,11.83,12.72,18.19c3.48,5.91,6.4,12.26,8.68,18.72c3.86,10.93,8.01,21.92,10.24,33.23
		c4.01,20.3,7.29,40.79,6.87,61.65c-0.35,17.55-1.89,34.99-5.2,52.22c-3.63,18.84-7.28,37.69-11.38,56.44
		c-4.93,22.54-14.04,43.6-24.77,63.86c-10.08,19.05-21.23,37.5-34.59,54.54c-13.65,17.41-29.77,32.03-48.18,44.18
		c-2.1,1.39-4.32,2.62-6.57,3.76c-2.39,1.21-4.47,2.4-6.02,4.95c-1.29,2.12-3.93,3.59-6.23,4.9c-2.89,1.66-6.05,2.87-9.12,4.28
		c-0.99,21.47-1.97,42.8-2.95,64.13c0.37,0.02,0.75,0.04,1.12,0.06c0.88-11.8,1.77-23.6,2.65-35.41c0.3-4.03,0.55-8.07,0.92-12.09
		c0.12-1.33,0.28-2.81,0.94-3.89c0.61-0.99,1.86-2.03,2.94-2.18c1.75-0.25,2.67,1.19,2.85,2.86c0.14,1.33,0.11,2.69,0.11,4.04
		c0.01,9.08,0,18.16,0.51,27.33c0.47-3.46,0.89-6.92,1.41-10.36c0.69-4.66,1.29-9.34,2.25-13.95c0.4-1.9,1.31-3.9,2.55-5.38
		c1.82-2.15,4.77-1.17,5.28,1.6c0.21,1.14,0.1,2.36,0,3.52c-1.15,12.74-2.41,25.47-3.48,38.22c-0.93,11.07-2.28,22.14-0.82,33.27
		c0.07,0.5,0.1,1.01,0.08,1.51c-0.1,2.23-0.29,4.53-2.64,5.6c-2.53,1.15-4.09-0.54-5.52-2.31c-0.2-0.25-0.54-0.37-0.78-0.53
		c-1.83,0.12-3.62,0.24-5.59,0.38c4.32,26.22,8.68,52.41,16.2,78.03c5.69,2.37,5.82,2.95,1.59,7.74
		c8.54,35.96,25.04,69.17,36.59,104.33c1.01-0.09,1.82-0.16,2.64-0.24c2.41-0.23,4.38,0.41,5.27,2.88c0.78,2.15-0.18,4.36-2.61,5.98
		c-1.12,0.74-2.37,1.27-3.54,1.93c-1,0.56-1.96,1.16-3.83,2.27c1.67,0.07,2.38,0.15,3.08,0.13c2.3-0.07,3.96,0.92,4.61,3.14
		c0.64,2.21-0.39,3.97-2.1,5.29c-1.19,0.92-2.49,1.73-3.8,2.48c-20.18,11.51-40.36,23.03-60.58,34.49
		c-1.89,1.07-3.94,1.91-5.98,2.68c-2.15,0.81-4.38,1.04-5.9-1.18c-1.09-1.58-0.29-3.6,2.29-5.44c3.15-2.25,6.44-4.3,9.66-6.46
		c0.78-0.52,1.49-1.14,1.93-2.27c-4.23,1.93-8.42,3.95-12.7,5.73c-1.83,0.76-3.85,1.37-5.8,1.41c-1.03,0.02-2.48-1.1-3-2.09
		c-0.39-0.74,0.08-2.43,0.75-3.12c1.61-1.67,3.58-3,5.2-4.31c-6.89-6.01-13.95-11.69-20.45-17.95
		c-12.28-11.81-23.35-24.69-33.55-38.38c-8.14-10.92-16.98-21.32-25.71-32.21c-3.52,2.1-7.1,1.87-10.77,0.96
		c-11.24-2.8-22.5-5.54-34.48-8.48c-3.52,4.48-7.6,9.59-11.58,14.77c-9.12,11.9-18.22,23.81-27.26,35.76
		c-3.45,4.56-6.63,9.33-10.09,13.89c-5.49,7.24-11.1,14.39-16.67,21.57c-2.2,2.84-5.12,3.87-8.52,2.78
		c-5.59-1.81-11.32-3.37-16.62-5.85c-10.21-4.78-20.14-10.14-30.22-15.21c-1.63-0.82-3.39-1.38-5.09-2.07
		c-2.67-1.56-5.34-3.12-8.02-4.68c-3.53-2.24-7.05-4.49-10.59-6.7c-1.57-0.98-3.33-1.7-4.73-2.87c-2.07-1.72-2.05-4.27,0.33-5.35
		c2.36-1.07,3.11-2.9,3.9-4.9c3.41-8.6,6.72-17.25,10.17-25.84c4.65-11.55,9.41-23.06,14.09-34.59c0.62-1.53,1.12-3.11,1.85-5.17
		c-2.72-1.02-5.16-2.01-7.65-2.85c-15.01-5.03-29.75-10.73-43.93-17.78c-24.28-12.06-45.15-28.41-63.06-48.82
		c-12.3-14.01-22.63-29.29-32.15-45.19c-2.33-3.89-4.36-7.99-6.2-12.13c-11.87-26.76-20.23-54.5-24.18-83.61
		c-4.16-30.58-7.23-61.21-6.63-92.09c0.39-20.05-5.37-38.53-13.21-56.57c-2.41-5.55-6.06-10.22-11.59-12.88
		c-2.95-1.42-6.29-2.54-9.53-2.8c-9.16-0.73-17.91,1.06-26.7,4.05c-7.04,2.4-14.75,3.58-22.21,3.83
		c-10.42,0.35-17.56-7.79-17.14-18.28c0.29-7.14,1.54-14.07,5.97-20.02c0.5-0.67,1.05-1.4,1.23-2.19
		c1.41-6.19,6.11-9.36,11.05-12.45c10.29-6.42,21.67-8.9,33.56-9.69c1.34-0.09,2.7-0.08,4.03-0.21
		c20.78-2.12,36.92,6.46,50.16,21.71c5.36,6.18,9,13.37,12.13,20.87c8.2,19.64,14.39,39.92,18.08,60.86
		c2.89,16.39,4.9,32.95,7.16,49.44c1.4,10.17,2.53,20.38,3.81,30.57c0.14,1.14,0.39,2.26,0.6,3.46c7.77,1.24,15.28,2.44,22.8,3.64
		c0.16-0.3,0.32-0.59,0.48-0.89c-2.19-2.94-4.37-5.88-6.57-8.81c-1.11-1.48-2.29-2.91-3.39-4.4c-1.58-2.15-3.82-4.29-1.83-7.18
		c2.1-3.05,5.08-1.84,7.81-1.01c2.57,0.78,5.1,1.7,8.61,2.89c-1.12-3.22-2.03-5.79-2.91-8.38c-0.59-1.75-1.17-3.52-1.69-5.29
		c-0.58-2-0.04-3.76,1.66-4.9c1.7-1.14,3.56-0.91,5.18,0.32c1.07,0.81,2.07,1.73,3,2.7c6.31,6.56,12.49,13.21,16.92,21.28
		c0.5,0.91,1.58,1.88,2.55,2.1c22.93,5.14,44.23,15.11,66.44,22.36c18.79,6.13,38.17,9.55,57.45,13.44
		c0.63,0.13,1.31,0.02,2.49,0.02c0.72-3.02,1.45-6.08,2.17-9.14c0.31-1.31,0.42-2.69,0.92-3.92c0.83-2,2.33-3.33,4.67-3.16
		c2.34,0.17,3.61,1.62,4.1,3.8c0.21,0.96,0.26,1.95,0.42,3.25c0.75-0.4,1.29-0.74,1.87-0.99c3.88-1.65,6.7,0.17,6.54,4.44
		c-0.09,2.5-0.68,4.99-1.04,7.49c-3.63,9.38-5.38,19.18-6.59,29.1c2.46-8.17,4.46-16.44,6.33-24.74
		C419.74,472.25,419.53,470.7,419.56,469.21z M666.33,776.66c-6.83,2.52-12.58,6.86-18.48,10.97c6.41-3.26,13.08-6.08,18.7-10.72
		c1.51-0.73,3.03-1.46,4.54-2.19c-0.18-0.32-0.36-0.64-0.54-0.95C669.14,774.73,667.74,775.7,666.33,776.66z M382.88,37.21
		c-2.13,2.01-3.7,3.27-5.02,4.77c-6.59,7.43-13.13,14.91-19.64,22.41c-7.01,8.07-12.44,17.13-17.06,26.75
		c-11.35,23.59-18.24,48.41-21.48,74.37c-4.19,33.58-2.33,66.89,3.66,100.08c2.26,12.51,6.91,24.25,11.44,36.04
		c8.59,22.37,17.99,44.34,31.96,63.99c8.29,11.66,16.61,23.34,25.62,34.45c6.77,8.34,14.24,16.22,22.12,23.54
		c20.8,19.34,46.08,30.61,72.82,39.03c16.96,5.34,34.24,8.69,52.1,8.62c2.18-0.01,4.36,0.48,6.54,0.53
		c5.2,0.12,10.44,0.53,15.6,0.09c10.9-0.94,21.79-2.12,32.61-3.65c7.14-1.01,14.22-2.62,21.23-4.38c2.29-0.58,4.31-2.39,6.35-3.79
		c3.73-2.56,7.12-5.74,11.1-7.78c17.98-9.19,33.24-21.94,46.33-36.97c26.6-30.55,45.95-65.49,60.11-103.37
		c5.57-14.91,8.35-30.51,11.5-46c4.03-19.79,8.23-39.55,9.99-59.74c3.23-37.1-1.28-73.09-13.22-108.44
		c-7.15-21.19-19.92-38.4-34.28-54.76c-5.29-6.03-11.57-11.17-18.53-15.83c-3.64,2.31-7.24,4.47-10.72,6.81
		c-16,10.71-30.54,23.23-44.92,35.98c-11.4,10.11-21.42,21.43-30.95,33.23c-1.44,1.79-2.88,3.37-2.65,6.21
		c0.24,3.03-2.38,4.72-5.53,4.29c-1.14-0.16-2.29-0.58-3.32-1.11c-4.59-2.34-9.55-3.07-15.28-3.68c0,12.38,0,24.56,0,37.16
		c1.6,0,3.41,0.07,5.22-0.01c15.21-0.71,30.31,0.64,45.32,2.77c20.33,2.89,40.49,6.72,60.45,11.69c12.81,3.19,25.09,7.64,37.1,12.96
		c1.83,0.81,3.43,1.63,5.69,1.13c2.61-0.57,4.47,1.09,5.04,3.77c0.27,1.3,0.23,2.68,0.27,4.02c0.34,13.97-1.98,27.56-6.68,40.65
		c-7.68,21.41-16.55,42.37-27.08,62.52c-10.6,20.29-21.97,40.17-34.3,59.5c-11.45,17.95-25.3,33.58-42.32,46.35
		c-8.89,6.66-17.65,13.55-28.08,17.8c-11.69,4.76-23.33,9.65-35.08,14.25c-7.99,3.13-16.1,5.88-24.77,6.68
		c-18.16,1.68-35.17-2.38-51.36-10.22c-17.45-8.45-34.01-18.16-49.21-30.51c-19.24-15.63-35.04-33.83-47.86-54.89
		c-7.84-12.88-14.13-26.36-18.36-40.86c-2.07-7.1-5.04-13.94-7.13-21.03c-2.61-8.86-5.38-17.76-6.91-26.84
		c-1.75-10.43-2.43-21.07-3.16-31.64c-0.86-12.41-1.62-24.79,0.79-37.23c0.78-4.01,2.61-5.59,5.73-6.53
		c5.8-1.75,11.67-3.26,17.53-4.79c13.21-3.43,26.49-6.38,40.17-7.29c9.9-0.66,19.77-1.85,29.64-2.83
		c16.24-1.61,32.41-4.26,48.82-3.5c1.1,0.05,2.22-0.23,3.63-0.39c-0.74-14.47-1.46-28.63-2.19-42.87c-1.74,0-2.93-0.14-4.07,0.02
		c-12.67,1.85-25.02,5.03-37.08,9.31c-2.44,0.86-4.36,0.5-5.96-1.21c-1.24-1.33-2.2-2.97-3.07-4.58c-1.92-3.55-3.68-7.19-5.57-10.76
		c-6.81-12.91-16.1-24.07-25.47-35.1c-4.44-5.23-9.29-10.32-14.77-14.39C399,46.57,390.97,42.24,382.88,37.21z M603.04,791.6
		c17.62-6.25,56.08-26.96,62.72-33.87c-10.49-30.65-24.7-60.13-32.9-91.76c-14.52,2.16-28.35,4.01-42.12,6.31
		c-18.98,3.17-38.11,4.59-57.31,4.84c-17.51,0.22-35.03-0.6-52.53-0.25c-25.39,0.51-50.44-1.95-75.21-7.33
		c-10.12-2.2-20.7-2.68-30.38-8.11c-12.41,31.09-24.73,61.96-37.11,92.98c1,0.66,1.64,1.17,2.36,1.54
		c17.05,8.78,34.08,17.61,51.2,26.27c2.98,1.51,6.28,2.39,9.45,3.51c1.77,0.62,3.16,0.21,4.38-1.4c3.25-4.29,7.06-8.21,9.92-12.73
		c10.2-16.14,22.86-30.41,34.15-45.71c6.49-8.8,13.37-17.32,20.23-25.85c3.42-4.26,6.13-4.68,11.12-2.71
		c3.43,1.35,6.91,2.66,10.47,3.59c8.13,2.13,16.34,4,24.5,6.03c1.75,0.43,3.58,1.76,5.13,1.45c2.66-0.53,4.2,0.66,5.75,2.23
		c9.48,9.58,19.15,18.98,27.07,29.95c9.3,12.88,19.95,24.58,31.16,35.77C590.68,781.91,596.14,787.69,603.04,791.6z M582.1,406.73
		c1.39-0.48,2.77-0.98,4.17-1.45c13.25-4.45,24.92-11.65,36.02-20.03c15.06-11.37,28.19-24.53,38.51-40.33
		c21.4-32.77,40.36-66.85,55.2-103.17c6.38-15.62,12.73-31.17,14.35-48.19c0.94-9.84,1.99-8.28-6.82-12.39
		c-12.54-5.85-25.74-9.75-39.19-13.05c-33.13-8.13-66.54-13.96-100.77-13.93c-1.12,0-2.23,0.13-3.68,0.23
		c-2.62,44.14-3.17,88.11-10.62,131.87c22.2-0.86,38.18,7.64,44.86,29.25c6.06,19.6-3.41,33.41-18.37,44.48
		C597.58,373.67,598.86,386.47,582.1,406.73z M362.98,178.54c1.72,17.44,3.68,33.99,4.89,50.6c1.27,17.47,5.18,34.23,11.44,50.52
		c1.45,3.77,2.86,7.57,3.95,11.45c3.84,13.74,9.65,26.56,17.52,38.44c6.32,9.54,12.21,19.34,19.9,27.95
		c10.13,11.35,21.21,21.57,33.38,30.73c9.76,7.34,20.09,13.53,31.15,18.59c0.97,0.44,2.04,0.68,3.71,1.22
		c-6.98-14.95-11.16-29.59-6.98-45.78c-2.03-1.48-4.22-3.01-6.33-4.64c-12.43-9.55-20.47-28.15-13.98-46.73
		c6.33-18.14,26.91-31.61,46.18-30.56c1.14,0.06,2.28,0.01,3.12,0.01c-1.18-16.69-2.59-33.09-3.45-49.53
		c-1.17-22.53-1.91-45.08-2.85-67.62c-0.05-1.29-0.25-2.58-0.39-3.96c-10.45-0.62-20.49,0.25-30.51,1.44
		c-12.87,1.53-25.72,3.2-38.59,4.74c-11.19,1.34-22.5,1.98-33.56,4.02C388.86,171.79,376.4,175.32,362.98,178.54z M407.83,520.16
		c-0.28-0.09-0.56-0.19-0.83-0.28c-1.49,3.64-2.87,7.33-4.51,10.9c-1.04,2.28-2.27,4.54-3.81,6.49c-0.65,0.83-2.55,1.42-3.48,1.07
		c-0.87-0.33-1.76-2.1-1.67-3.15c0.21-2.48,0.93-4.94,1.58-7.37c2.68-10.07,5.44-20.12,8.1-30.19c0.28-1.05,0.17-2.2,0.24-3.3
		c-1.73,4.5-2.6,9.14-3.94,13.63c-2.25,7.56-4.63,15.1-7.34,22.51c-0.82,2.23-2.6,4.4-4.5,5.88c-2.55,1.99-5.45,0.27-5.57-2.99
		c-0.04-1.1,0.2-2.21,0.31-3.27c-4-0.57-7.77-0.66-11.28-1.69c-9.51-2.8-18.95-5.87-28.34-9.07c-7.31-2.5-14.72-4.9-21.71-8.14
		c-23.43-10.84-45.85-23.46-66.59-38.93c-0.14-0.1-0.28-0.2-0.4-0.31c-1.78-1.64-3.69-1.82-6.04-1.16
		c-5.34,1.5-10.78,2.66-16.16,4.03c-1.71,0.44-3.36,1.1-5.28,1.73c2.16,8.73,4.01,16.93,6.22,25.03
		c8.36,30.67,20.1,59.59,42.11,83.45c10.02,10.86,21.24,20.18,33.66,28.02c19.5,12.32,41.31,19.52,62.7,27.63
		c0.26,0.1,0.62-0.08,1.37-0.2c9.99-32.78,20.4-65.64,33.75-97.44c-3.81-1.75-4.25-2.48-3.45-6.08c0.4-1.8,1.05-3.55,1.56-5.33
		C405.64,527.82,406.73,523.99,407.83,520.16z M369.79,650.34c-5.76-2.28-10.69-4.4-15.74-6.22c-26.77-9.64-52.29-21.38-73.69-40.82
		c-10.43-9.47-19.84-19.89-27.35-31.6c-10.45-16.31-18.77-33.88-24.28-52.56c-3.47-11.78-6.37-23.72-9.6-35.57
		c-0.45-1.66-0.25-3.67-2.56-4.54c-2.81-1.06-2.43-3.06-1.21-5.35c0.64-1.21,0.99-2.83,0.81-4.18c-2.82-21.53-5.68-43.05-8.68-64.55
		c-2.28-16.33-4.33-32.71-7.25-48.92c-3.67-20.43-9.89-40.17-17.97-59.32c-3.8-9-9.03-16.9-16.38-23.36
		c-7.83-6.88-16.91-11.24-27.29-11.81c-11.3-0.62-22.63,0.23-33.45,3.81c-7.93,2.62-16.11,5.3-19.95,14
		c-0.46,1.04-1.48,1.81-2.19,2.75c-0.69,0.92-1.72,1.84-1.87,2.86c-0.66,4.46-1.62,9-1.42,13.45c0.27,5.89,4.53,9.85,10.4,9.31
		c6.63-0.61,13.4-1.72,19.65-3.92c6.58-2.32,13.18-4.06,20.05-4.77c10.53-1.1,20.44,0.34,28.98,7.46c4.81,4.01,8.17,9,10.44,14.65
		c3.2,7.96,6.2,16.01,8.83,24.17c3.27,10.16,4.55,20.69,4.64,31.36c0.16,20.38,0.42,40.73,2.48,61.05
		c2.19,21.63,4.59,43.25,9.89,64.33c7.6,30.25,19.29,58.79,37.85,84.23c12.48,17.1,26.45,32.84,42.99,46
		c13.59,10.81,28.77,19.29,44.74,26.23c4.94,2.15,9.88,4.3,14.91,6.18c8.3,3.1,16.68,5.98,25.39,9.08
		C363.93,665.92,366.75,658.42,369.79,650.34z M628.89,650.26c-3.13-13.19-6.09-25.68-8.94-37.69c-9.24,0.94-17.75,1.96-26.29,2.65
		c-10.4,0.85-20.82,1.45-31.23,2.11c-14.44,0.91-28.87,2.07-43.32,2.57c-19.44,0.67-38.61-2.13-57.66-5.71
		c-21.65-4.08-43.33-8.04-64.21-15.35c-0.57-0.2-1.25-0.11-2.27-0.18c-4.57,14.69-9.09,29.24-13.66,43.93
		c1.61,0.66,2.64,1.28,3.76,1.5c5.77,1.17,11.51,2.58,17.34,3.27c14.7,1.75,29.43,3.28,44.17,4.67c19.43,1.83,38.85,3.94,58.43,3.5
		c32.48-0.73,64.97-1.22,97.44-2.21C611.13,653.06,619.75,651.36,628.89,650.26z M402.57,576.84c0.79,0.58,1.15,0.97,1.59,1.15
		c1.56,0.61,3.14,1.19,4.74,1.69c14.66,4.58,29.67,7.41,44.93,9.07c14.55,1.58,29.08,3.34,43.64,4.79
		c13.22,1.32,26.45,2.8,39.71,3.37c24.26,1.04,48.44-0.66,72.49-4c2.28-0.32,4.51-0.89,6.88-1.36c-2.01-12.35-3.93-24.21-5.91-36.36
		c-2.51,0.5-4.63,0.98-6.76,1.32c-8.79,1.4-17.54,3.39-26.39,3.97c-12.24,0.8-24.56,0.94-36.83,0.61
		c-23.41-0.63-46.68-2.83-69.44-8.79c-16.58-4.35-33.16-8.69-49.74-13.04c-1.25-0.33-2.49-0.68-3.94-1.08
		C412.48,551.27,407.51,564.09,402.57,576.84z M610.88,505.06c-3.68,0.55-6.68,0.92-9.64,1.45c-19.2,3.46-38.48,3.89-57.82,1.58
		c-14.37-1.72-28.69-3.76-43.05-5.55c-21.21-2.64-41.65-7.75-60.4-18.45c-0.95-0.54-2.06-0.78-3.12-1.16
		c-6.16,12.08-7.45,25.25-11.76,37.43c2.47,0.62,4.42,1.08,6.35,1.61c5.51,1.53,10.96,3.26,16.51,4.62
		c16.18,3.95,32.29,8.43,48.91,9.96c15.57,1.44,31.23,1.91,46.85,2.91c17.21,1.09,34.33,0.27,51.35-2.38
		c4.76-0.74,9.46-1.88,14.14-2.82C609.77,524.23,610.31,514.85,610.88,505.06z M253.86,461.1c1.49,1.12,2.53,1.95,3.63,2.71
		c15.64,10.83,31.54,21.27,48.7,29.57c9.68,4.68,19.38,9.4,29.36,13.38c10.14,4.04,20.62,7.25,30.98,10.73
		c6.33,2.13,12.76,3.9,20,4.03c3.59-15.04,7.12-29.86,10.64-44.6c-0.42-0.37-0.64-0.7-0.92-0.78c-1.13-0.3-2.28-0.58-3.43-0.76
		c-26.89-4.05-52.92-11.23-78.29-21c-11.76-4.53-23.71-8.59-35.66-12.58c-5.84-1.95-11.9-3.25-18.42-4.99
		C258.21,445.07,256.09,452.89,253.86,461.1z M513.96,211.58c6.79-0.87,12.76-1.96,18.78-2.32c8.89-0.53,17.81-0.65,26.71-0.7
		c1.73-0.01,3.77,0.69,5.09,1.77c1.09,0.89,2.01,2.98,1.73,4.25c-0.28,1.25-2.03,2.52-3.41,3.06c-1.31,0.51-2.98,0.13-4.49,0.06
		c-14.49-0.68-28.88,0.41-43.77,2.39c0.94,20.84,1.58,41.58,5.13,62.12c13.91-3.62,27.48-4.19,41.69-4.35
		c4.14-35.38,7.16-70.67,7.91-105.9c-9.81-3-19.35-2.77-28.88-1.39c-9.43,1.37-19.01,1.99-28.4,4.89
		C512.68,187.52,513.31,199.24,513.96,211.58z M512.34,286.99c-6.46-1.07-12.61-1.01-18.38,1.99c-3.72,1.94-7.39,4.03-10.89,6.34
		c-15.17,10.05-20.77,31.88-8.07,48.39c7.58,9.85,17.51,15.22,30.38,12.68c10.57-2.08,18.04-8.49,23.45-17.59
		c-5.31-7.76-7.07-16.82-9.94-25.37C516.04,304.88,514.49,295.89,512.34,286.99z M586.4,363.12c-8.12,1.56-14.94-0.65-21.71-4.08
		c-7.1-3.6-11.41-9.66-15.22-15.48c-4.54,0.36-8.35,0.67-12.49,1c-11.43,17.51-27.44,25.51-48.7,20.72
		c-1.07,5.84-0.86,8.7,1.12,15.71c4.12-1.92,8.19-3.82,12.25-5.72c7.74-3.62,10.98-1.67,11.21,6.82c0.05,1.85-0.02,3.7-0.02,5.55
		c-0.01,1.74,0,3.49,0,5.23c0.43,0.28,0.86,0.56,1.29,0.84c0.83-1.23,1.53-2.57,2.52-3.66c1.12-1.24,2.39-2.4,3.77-3.32
		c3.23-2.16,6.36-1.28,7.86,2.17c0.52,1.21,0.73,2.58,0.94,3.9c0.44,2.85,0.79,5.72,1.32,9.67c1.17-2.39,1.82-3.72,2.47-5.04
		c0.67-1.36,1.21-2.79,2.02-4.06c2.56-4.06,6.61-4.25,9.35-0.34c1.34,1.91,2.21,4.15,3.42,6.16c1.16,1.92,2.49,3.73,4.3,6.4
		c0.58-2.21,0.89-3.3,1.14-4.4c0.87-3.94,1.49-7.94,2.61-11.81c1.59-5.51,5.69-6.5,9.84-2.61c1.25,1.17,2.48,2.36,4.12,3.92
		c0.65-5.94,0.94-10.97,1.82-15.9c1.03-5.76,5.29-7.2,10.01-3.77c1.39,1.01,2.89,1.86,4.78,3.07
		C586.4,370.07,586.4,366.98,586.4,363.12z M557.73,337.59c3.42,6.77,8.15,11.16,14.56,14.12c7.33,3.38,14.07,2.65,20.49-1.78
		c4.78-3.29,8.58-7.68,11.06-12.89c1.41-2.95,2.4-6.42,2.4-9.66c-0.05-21.94-16.73-34.29-37.84-33.18
		c-0.68,5.41-1.56,10.87-2.02,16.37C565.56,320.25,563.95,329.61,557.73,337.59z M617.56,599.04c-12.5,1.51-24.31,3.24-36.19,4.31
		c-21.32,1.91-42.69,2.53-64.01,0.19c-24.74-2.72-49.47-5.67-74.17-8.78c-14.05-1.77-27.78-5.04-40.96-10.41
		c-0.56-0.23-1.2-0.24-2.01-0.39c-1,2.87-1.91,5.51-2.91,8.4c2.09,0.64,3.67,1.13,5.26,1.62c18.85,5.79,38.24,9.25,57.59,12.78
		c17.88,3.26,35.88,6.05,54.14,5.49c15.47-0.47,30.93-1.27,46.38-2.15c15.62-0.89,31.23-1.99,46.84-3.15
		c3.62-0.27,7.18-1.18,11.01-1.83C618.15,602.71,617.87,600.95,617.56,599.04z M512.15,166.31c0.71,0,1.22,0.08,1.7-0.01
		c7.73-1.53,15.43-3.32,23.2-4.58c10.65-1.73,21.35-2.89,31.93,0.69c0.23,0.08,0.59-0.21,1.17-0.44c0.19-3.72,0.34-7.56,0.59-11.4
		c0.26-3.97,0.62-7.93,0.91-11.63c-12.14-5.86-50.11-8.68-60.62-4.69C511.39,144.89,511.77,155.57,512.15,166.31z M630.93,659.59
		c-0.74-3.87-2.83-3.08-4.5-2.75c-18.59,3.73-37.45,4.18-56.3,4.76c-19.02,0.59-38.04,1.34-57.07,1.52
		c-12.95,0.12-25.94-0.19-38.86-1.08c-16.12-1.11-32.2-2.8-48.26-4.62c-15.51-1.76-31.19-2.77-46.16-8.66c-0.5,1.2-1,2.24-1.37,3.34
		c-0.35,1.06-0.55,2.16-0.93,3.69c3.19,0.98,6.01,2.1,8.93,2.68c6.93,1.38,13.92,2.42,20.87,3.73c22.22,4.17,44.55,6.88,67.24,6.5
		c19.36-0.32,38.74,0.23,58.1-0.03c12.62-0.17,25.26-0.69,37.83-1.8c13.57-1.19,27.07-3.26,40.6-4.92
		C617.54,661.16,624.03,660.4,630.93,659.59z M442.81,464.71c4.55,1.82,8.93,3.45,13.22,5.29c17.58,7.58,35.9,12.52,54.89,14.66
		c15.21,1.71,30.52,2.57,45.73,4.24c14.84,1.63,29.57,1.31,44.26-1.16c3.94-0.66,7.84-1.5,11.82-2.28c0.43-3.64,0.81-6.91,1.2-10.22
		c-12.26,1.68-24.03,3.39-35.84,4.88c-10.86,1.38-21.75,2.4-32.73,1.46c-6.03-0.52-12.08-0.73-18.12-1.09
		c-2.02-0.12-4.04-0.18-6.04-0.44c-17.94-2.29-35.33-6.78-52.17-13.32c-8.27-3.22-16.41-6.8-24.9-10.34
		C443.71,459.09,443.29,461.7,442.81,464.71z M521.44,290.45c0.53,2.64,0.98,4.57,1.29,6.51c1.8,11.22,6.52,21.5,10.36,32.05
		c1.67,4.59,5.92,7.37,9.54,6.68c4.69-0.89,8.69-2.97,10.49-7.67c1.31-3.42,2.49-6.97,3.08-10.57c0.97-5.96,1.41-12.01,2.11-18.01
		c0.44-3.78,0.92-7.56,1.45-11.85C546.59,287.05,534.2,288.11,521.44,290.45z M419.95,533c10.88,2.64,21.51,5.12,32.09,7.82
		c21.54,5.49,43.12,10.63,65.41,12.11c23.37,1.55,46.74,2.82,70.05-0.64c7.44-1.11,14.82-2.59,22.39-3.93
		c0-1.59,0.06-2.58-0.02-3.55c-0.06-0.81-0.27-1.61-0.48-2.77c-1.66,0.25-3.14,0.35-4.57,0.7c-13.47,3.25-27.1,5.15-40.98,4.99
		c-8.08-0.09-16.16-0.22-24.24-0.44c-16.33-0.44-32.72-0.76-48.79-3.82c-17.5-3.33-34.85-7.46-52.18-11.63
		c-5.31-1.28-10.31-3.84-15.77-5.93C422.11,527.73,421.11,530.17,419.95,533z M572.37,128.5c0-7.15,0-13.82,0-20.68
		c-21.23-4.89-42.53-2.19-64.29-0.03c0.69,6.01,1.34,11.59,2.01,17.39C531.09,122.41,551.45,123.07,572.37,128.5z M611.6,493.82
		c-4.85,0.88-9.39,1.85-13.98,2.49c-8.49,1.18-16.96,2.54-25.63,1.73c-16.25-1.51-32.51-2.97-48.79-4.15
		c-28.55-2.08-55.71-9.06-81.26-22.1c-0.23-0.12-0.62,0.06-1.28,0.15c-0.34,1.25-0.71,2.64-1.03,3.8
		c15.74,8.82,32.19,14.58,49.67,17.12c17.15,2.49,34.36,4.64,51.56,6.79c17.12,2.14,34.28,1.82,51.4-0.03
		c5.67-0.61,11.27-1.87,16.91-2.84C610.52,496.54,611.91,496.3,611.6,493.82z M491.12,388.74c2.02,8.33,5.23,14.29,9.8,18.09
		c1.39-7.63,3.15-14.92,2.74-23.09C499.1,385.55,495.26,387.09,491.12,388.74z M509.8,413.85c5.08,3.31,8.61,4.22,13.57,3.7
		c-1.08-5.63-2.15-11.25-3.44-17.98C516.14,404.91,512.98,409.37,509.8,413.85z M221.99,448.86c0.95,6.17,1.73,11.21,2.63,17
		c4.49-3.21,8.37-5.98,12.89-9.21C232.32,454.05,227.76,451.76,221.99,448.86z M550,417.38c-3.55-4.03-6.66-7.57-10.28-11.69
		c-1.54,4.94-2.86,9.15-4.33,13.86C540.74,420,545.11,419.48,550,417.38z M570.68,403.28c-2.55-1.69-4.61-3.05-7.29-4.82
		c-0.71,4.11-1.33,7.68-1.95,11.25c0.34,0.16,0.68,0.32,1.01,0.48C565.09,407.98,567.72,405.77,570.68,403.28z M233.5,467.53
		c0.19,0.35,0.37,0.7,0.56,1.05c3.92-1.02,7.85-2.05,11.98-3.12c-0.55-1.97-0.97-3.44-1.52-5.39
		C240.53,462.77,237.02,465.15,233.5,467.53z M579.49,390.51c0.41,0.13,0.83,0.26,1.24,0.39c1.33-2.29,2.66-4.58,4.27-7.37
		c-1.99-0.51-3.31-0.85-5.11-1.31C579.75,385.35,579.62,387.93,579.49,390.51z M250.56,437.47c1.73-2.1,2.04-3.42-0.4-4.14
		c-0.65-0.19-1.4-0.03-2.74-0.03C248.62,434.89,249.4,435.93,250.56,437.47z M242.94,451.32c1.34,1.06,1.78,1.54,2.33,1.8
		c0.44,0.21,1.01,0.14,1.52,0.19c0.36-0.48,0.72-0.96,1.08-1.44c-0.65-0.12-1.3-0.28-1.96-0.36
		C245.29,451.43,244.65,451.42,242.94,451.32z"/>
	<path class="st0" d="M378.39,815.15c-1-0.83-1.91-1.82-3.02-2.47c-15.25-8.93-30.52-17.82-45.79-26.71
		c-2.47-1.44-4.98-2.82-7.39-4.37c-1.11-0.72-2.29-1.61-2.9-2.72c-0.48-0.86-0.47-2.34-0.03-3.22c0.31-0.64,1.74-1.12,2.58-1.01
		c1.47,0.19,2.9,0.8,4.29,1.37c16.52,6.86,32.13,15.47,47.44,24.67c6.78,4.07,13.78,7.77,20.67,11.64c0.88,0.49,1.8,0.94,2.61,1.53
		c1.91,1.38,3.16,3.1,2.21,5.6c-0.84,2.2-3.18,3.25-5.9,2.57c-1.41-0.36-2.75-0.98-4.57-0.62c1.16,0.73,2.34,1.42,3.47,2.19
		c1.24,0.85,2.6,1.61,3.62,2.68c1.42,1.48,1.76,3.57,0.5,5.09c-0.93,1.12-2.86,2.18-4.19,2.01c-2.42-0.3-4.73-1.52-7.33-2.45
		c-0.15,0.09-0.7,0.26-0.96,0.63c-11.11,15.86-21.66,32.07-31.9,48.52c-8.55,13.74-11.81,28.12-8.88,43.89
		c1.19,6.43,3.1,12.73,4.64,19.1c0.47,1.96,0.91,3.94,1.18,5.94c0.29,2.13-0.26,4.12-2.19,5.28c-1.97,1.17-3.88,0.57-5.64-0.73
		c-5.04-3.72-9.6-7.93-13.28-13.05c-0.97-1.35-2.02-2.64-3.82-4.97c-0.26,2.85-0.47,4.7-0.6,6.56c-0.26,3.7-0.38,7.4-0.74,11.09
		c-0.22,2.22-0.88,4.45-3.39,5.14c-2.58,0.71-4.08-1.04-5.38-2.86c-1.45-2.03-2.79-4.12-4.7-6.96c-0.51,2.48-0.86,4.16-1.21,5.85
		c-0.24,1.15-0.38,2.33-0.71,3.46c-0.64,2.15-1.57,4.62-4.04,4.56c-1.72-0.04-3.79-1.29-5.03-2.62c-2.01-2.16-3.46-4.83-5.69-8.07
		c-0.39,2.67-0.62,4.46-0.91,6.24c-0.26,1.66-0.37,3.38-0.9,4.95c-1.19,3.5-4.31,4.33-7.14,1.97c-1.02-0.85-1.91-1.92-2.68-3.01
		c-3.82-5.34-7.68-10.65-11.3-16.13c-0.96-1.45-1.42-3.41-1.54-5.18c-0.34-4.82,2.02-9.57,0.53-14.46
		c3.26-11.09,3.72-22.93,8.71-33.55c6.61-14.06,11.36-28.79,15.96-43.57c3.72-11.97,9.21-23.11,15.68-33.81
		c4.16-6.88,8.21-13.83,12.45-21c-1.45-0.92-2.73-1.67-3.93-2.52c-1.78-1.26-3.58-2.51-5.25-3.93c-1.36-1.16-2.21-2.72-1.14-4.46
		c1.12-1.81,2.83-1.54,4.45-0.72c13.22,6.64,27.31,11.49,39.83,19.6c6.21,4.03,12.67,7.68,19.06,11.43c1.26,0.74,2.73,1.15,4.1,1.71
		c1.21,1.79,2.91,2.6,5.25,2.04C381.84,816.57,380.11,815.86,378.39,815.15z M377.09,825.96c-17.44-9.22-32.44-21.35-50.18-29.17
		c-0.55,0.82-0.95,1.33-1.26,1.89c-4.59,8.22-9.21,16.44-13.75,24.69c-4.63,8.42-8.6,17.11-11.63,26.26
		c-3.86,11.65-8.03,23.2-12.15,34.76c-2.37,6.65-5.28,13.12-7.27,19.88c-2.22,7.54-3.67,15.32-3.73,23.4
		c8.16,3.59,16.28,5.86,25.01,5.23c3.04-7.23,6.44-5.72,9.78-0.37c1.53-0.57,2.78-1.02,4.02-1.51c0.13-0.05,0.21-0.26,0.52-0.67
		c0.13-0.67,0.29-1.66,0.5-2.64c1.6-7.45,4.08-8.31,10.33-3.22c2.37-2.22,4.78-4.48,7.09-6.65c-1.97-14.66,1.58-27.69,9-39.88
		c8.93-14.66,17.62-29.47,28.05-43.16C373.41,832.17,375.01,829.23,377.09,825.96z M276.27,932.63c-0.26,2.89-1.41,5.77-0.52,7.7
		c1.88,4.09,4.83,7.7,7.34,11.5c0.28-0.13,0.55-0.25,0.83-0.38c0.54-4.86,1.09-9.71,1.65-14.72
		C282.54,935.41,279.67,934.14,276.27,932.63z M337,939.23c0.29-0.17,0.57-0.33,0.86-0.5c-0.86-3.43-1.73-6.86-2.78-11.03
		c-1.87,1.56-3.04,2.54-4.47,3.73C332.93,934.27,334.97,936.75,337,939.23z M301.71,939.76c-2.56,0-4.25,0-6.56,0
		c1.68,3.47,3.11,6.39,4.53,9.32c0.34-0.06,0.67-0.12,1.01-0.18C301.02,946.02,301.33,943.14,301.71,939.76z M315.13,938.45
		c-1.19,2.17-1.19,2.17,0.56,3.86C315.5,941,315.35,939.98,315.13,938.45z"/>
	<path class="st0" d="M708.48,965.84c0.78,3.57,1.39,6.16,1.92,8.78c0.49,2.44,0.25,4.76-1.82,6.43c-2.03,1.64-4.13,0.76-6.18-0.11
		c-9.99-4.24-18.02-11.09-25.07-19.12c-24.17-27.5-42.83-58.19-53.85-93.31c-2.77-8.82-6.05-17.48-9.15-26.2
		c-0.73-2.05-1.66-4.04-2.4-5.82c-0.52-0.37-0.77-0.7-1.05-0.73c-1.83-0.21-3.86-0.05-4.61-2.29c-0.78-2.32,0.58-4.05,2.21-5.21
		c5.33-3.8,10.56-7.87,16.3-10.96c13.63-7.32,27.49-14.23,41.35-21.11c4.94-2.46,10.12-4.45,15.27-6.48
		c4.28-1.69,7.13-0.9,8.24,1.96c1.14,2.94-0.41,5.41-4.56,7.18c-1.85,0.79-3.73,1.51-5.84,2.35c0.1,1.22,0.03,2.38,0.31,3.45
		c4.43,17.31,6.98,34.97,9.52,52.62c1.94,13.53,7.53,25.76,12.99,38.07c4.14,9.32,9.79,17.64,16.35,25.37
		c1.59,1.88,3.09,4.06,6.18,3.68c0.66-0.08,1.85,0.55,2.06,1.12c0.98,2.74,3.5,2.88,5.65,3.66c2.53,0.92,5.11,1.7,7.6,2.7
		c1.39,0.56,2.96,1.2,3.85,2.29c0.95,1.17,1.87,3.1,1.53,4.36c-0.34,1.22-2.16,2.58-3.54,2.87c-3.07,0.65-6.28,0.66-10.11,1
		c1.1,1.79,1.88,2.99,2.6,4.24c0.75,1.31,1.67,2.58,2.1,3.99c0.98,3.2-0.6,5.49-3.95,5.35c-2.64-0.11-5.28-0.87-7.87-1.5
		c-1.43-0.35-2.79-1.02-4.96-1.84c0.33,3.52,0.5,6.47,0.9,9.39c0.41,3.03,1.33,6.32-2.04,8.11c-3.35,1.78-5.68-0.57-7.81-2.86
		C710.24,966.93,709.77,966.72,708.48,965.84z M616.53,832.73c5.07,12.66,10.31,24.51,14.59,36.69
		c11.39,32.38,28.99,60.98,51.41,86.78c0.87,1,1.5,2.22,2.27,3.37c4.18-2.47,7.46-4.41,10.53-6.22c-0.03-6.08,0.89-6.76,7.17-5.24
		c4.97-5.48,10.14-11.18,15.25-16.8c-3.09-3.43-6.09-6.4-8.68-9.69c-13.75-17.51-22.71-37.34-27.37-59
		c-3.82-17.75-6.81-35.68-10.2-53.53c-0.24-1.27-0.73-2.5-1.21-4.13C651.88,814.14,633.47,822.41,616.53,832.73z M698.73,958.82
		c-3.31,1.56-6.13,2.89-9.35,4.4c4.32,3.6,7.79,7.51,13.71,9.77C701.56,967.99,700.25,963.73,698.73,958.82z M706.25,953.75
		c2.01,1.95,3.96,3.84,6.54,6.34c-0.12-4.52-0.35-7.89-1.91-12.07C709.16,950.14,707.92,951.68,706.25,953.75z M720,938.08
		c-1.25,1.54-2.33,2.86-3.69,4.53c2.84,1.52,5.19,2.77,7.53,4.02c0.15-0.22,0.3-0.44,0.45-0.66
		C722.98,943.56,721.66,941.15,720,938.08z"/>
	<path class="st0" d="M648.38,502.87c4.78,1.56,9.06,3.01,13.37,4.36c13.15,4.12,26.2,8.66,39.51,12.17
		c12.5,3.29,25.22,5.98,37.98,8.05c20.31,3.29,40.81,4.5,61.4,3.67c1.51-0.06,3.03-0.09,4.54-0.11c2.31-0.04,4.53,0.2,5.09,2.99
		c0.48,2.41-1.05,3.63-2.98,4.67c-2.96,1.59-5.84,3.34-8.74,5.04c-0.12,0.07-0.16,0.29-0.44,0.86c0.91,0.21,1.72,0.5,2.54,0.56
		c2.52,0.18,5.07,0.1,7.56,0.44c3.3,0.45,4.98,1.91,5.07,4.04c0.12,2.71-1.86,3.78-3.91,4.66c-1.23,0.53-2.55,0.84-3.83,1.24
		c-1.23,0.39-2.46,0.77-4.11,1.29c2.43,1.39,4.49,2.49,6.47,3.72c1.9,1.17,3.76,2.52,3.34,5.15c-0.45,2.81-2.86,3.06-5.02,3.31
		c-3.15,0.36-6.33,0.52-10.14,0.81c0.99,1.14,1.73,1.9,2.35,2.75c2.16,2.96,4.7,5.75,6.32,8.99c2.04,4.06,0.21,6.39-4.45,6.34
		c-1.49-0.02-3.08-0.17-4.45-0.71c-5.75-2.28-11.91-3.66-16.87-7.73c-0.67-0.55-1.87-0.79-2.75-0.67
		c-18.66,2.45-36.88-1.19-55.23-3.64c-10.82-1.45-21.78-1.76-32.69-2.56c-6.88-0.51-13.75-1.1-20.64-1.43
		c-6.21-0.3-12.44-0.36-18.66-0.32c-1.09,0.01-2.32,0.93-3.24,1.71c-3.46,2.94-6.81,2.05-7.94-2.34c-0.41-1.6-0.52-3.34-0.46-5
		c0.58-16.83,1.11-33.65,1.91-50.47c0.23-4.85,1.26-9.67,1.97-14.49c0.15-0.99,0.48-1.96,0.79-2.92c0.6-1.85,1.53-3.65,3.8-3.3
		c2.31,0.36,2.49,2.43,2.54,4.35C648.41,499.66,648.38,501,648.38,502.87z M774.14,570.55c6.59-9.54,6.94-20.34,7.92-31.45
		c-3.04-0.15-5.88-0.17-8.69-0.44c-12.9-1.23-25.89-1.92-38.67-3.93c-26.68-4.18-52.4-12.15-77.73-21.39
		c-2.64-0.97-5.36-1.74-8.57-2.77c-0.9,17.61-1.66,34.61-0.98,51.2c9.61,0.6,18.51,1.15,27.4,1.72c4.2,0.27,8.41,0.86,12.6,0.77
		c16.94-0.36,33.59,2.1,50.2,4.92C749.79,571.24,761.99,572.05,774.14,570.55z M794.92,579.68c0.35-0.37,0.69-0.74,1.04-1.11
		c-3.53-2.62-7.05-5.25-10.9-8.11c-0.89,1.62-1.41,2.59-2.06,3.77C787.11,576.11,791.02,577.9,794.92,579.68z M789.19,554.36
		c2.18-0.85,3.54-1.39,5.97-2.34C790.04,551.15,790.04,551.15,789.19,554.36z M794.02,563.17c-1.94-0.61-3.86-1.76-5.87,0
		C790.1,563.17,792.06,563.17,794.02,563.17z"/>
	<path class="st0" d="M342.36,767.87c2.67,1.56,5.35,3.12,8.02,4.68c10.26,7.07,20.83,13.57,32.35,18.46
		c6.5,2.76,12.91,5.71,19.33,8.65c1.51,0.69,3.01,1.55,4.29,2.6c1.73,1.42,2.25,3.38,1.19,5.44c-0.95,1.85-2.71,2.6-4.67,2.2
		c-1.79-0.36-3.55-1.04-5.23-1.78c-17.57-7.72-34.83-15.95-50.56-27.17c-6.41-4.57-13.58-8.06-20.39-12.08
		c-1.98-1.17-4.56-2.1-3.62-5.21c0.57-1.87,2.72-2.28,6.21-1.01C333.68,764.27,338,766.12,342.36,767.87z"/>
	<path class="st0" d="M356.85,113.09c0.17-7.67,1.29-15.17,3.55-22.41c4.62-14.78,15.52-23.18,30.04-26.09
		c11.49-2.31,20.86,3.3,28.47,11.84c4.79,5.38,7.68,11.85,10.3,18.39c3.24,8.1,6.22,16.32,8.92,24.62c2.03,6.24,0.1,9-6.29,9.52
		c-9.04,0.73-18.1,1.55-27.17,1.66c-9.72,0.12-18.94,2.57-28.3,4.57c-3.27,0.7-6.6,1.39-9.93,1.57c-4.75,0.25-6.9-1.42-7.64-6.15
		C357.9,124.81,357.49,118.93,356.85,113.09z M428.66,120c-0.06-1.11,0.05-1.64-0.12-2.07c-4.06-9.96-7.93-20-12.31-29.82
		c-2.22-4.98-6.17-8.79-10.85-11.7c-4.47-2.78-9.53-4.3-14.48-2.78c-10.26,3.15-18.38,9.08-21.47,20.1
		c-2.83,10.04-2.95,20.26-1.79,30.54c0.14,1.26,0.62,2.48,1.18,4.63C388.18,120.64,408.63,121.86,428.66,120z"/>
	<path class="st0" d="M724.05,102.8c0,2.86,0.06,5.72-0.01,8.57c-0.15,5.42-2.6,7.71-8,7.09c-4.33-0.49-8.6-1.48-12.92-2.15
		c-6.13-0.96-12.29-1.71-18.39-2.79c-5.94-1.05-11.83-2.42-17.76-3.58c-4.28-0.84-8.56-1.7-12.87-2.33
		c-5.49-0.79-7.93-3.66-7.44-9.29c0.52-5.98,2.63-11.49,5.7-16.55c3.5-5.78,8.01-10.76,13.33-15.01c10.1-8.06,21.85-9.38,33.93-7.47
		c9.8,1.55,15.66,8.54,19.4,17.39C722.55,85.03,723.66,93.83,724.05,102.8z M654.9,97.36c6.33,1.44,11.84,2.82,17.41,3.93
		c5.42,1.08,10.9,1.88,16.34,2.82c5.78,1,11.55,2.03,17.32,3.04c2.54,0.45,5.07,0.91,7.97,1.43c0.08-10-0.33-19.16-3.94-27.9
		c-2.5-6.05-6.27-10.88-13.12-11.99c-5.85-0.95-11.96-1.04-17.42,1.19C667.06,74.93,659.52,84.63,654.9,97.36z"/>
	<path class="st0" d="M689.25,178.33c-5.99-1.36-11.91-3.15-17.97-3.96c-8.16-1.1-16.42-1.44-24.64-2.11
		c-3.35-0.27-6.71-0.5-10.06-0.83c-0.98-0.1-2.08-0.29-2.85-0.84c-0.72-0.5-1.52-1.56-1.45-2.31c0.06-0.73,1.07-1.76,1.84-1.96
		c1.78-0.46,3.66-0.61,5.5-0.68c16.75-0.68,33.32,0.45,49.48,5.25c2.87,0.85,5.9,1.64,8.41,3.18c3.02,1.85,2.48,3.95-1.46,5.81
		c2.35,2.16,2.55,4.44,1.09,7.33c-0.91,1.81-0.39,4.3-0.71,6.46c-1.36,9.36-5.03,17.94-10.52,25.44
		c-8.56,11.69-24.29,18.82-40.84,12.07c-7.29-2.97-12.48-7.99-14.25-15.86c-1.63-7.22-3.13-14.47-4.39-21.76
		c-1.03-5.98,2.19-10.13,7.88-10.83c13.68-1.67,27.46-2.6,41.22-3.63c4.5-0.34,9.04-0.05,13.56-0.05
		C689.13,178.81,689.19,178.57,689.25,178.33z M653.28,223.98c-0.55-1.47-1.15-2.81-1.55-4.2c-2.04-7.14,2.86-14.86,9.48-14.74
		c4.11,0.07,8.12,1.29,11.27,3.85c2.01,1.63,3.15,4.35,4.98,7.02c6.1-7.91,9.99-16.78,10.46-26.98c-7.42-3.31-42.51,0.7-54.06,2.27
		c1.67,7.2,3.16,14.42,5.05,21.54C640.82,219.86,645.27,223.21,653.28,223.98z"/>
	<path class="st0" d="M655.46,273.6c-4.41,1.36-7.87,1.09-11.31,0.45c-1.65-0.31-3.26-0.85-4.85-1.39
		c-12.27-4.24-24.75-7.58-37.58-9.71c-3.43-0.57-6.76-1.98-10.03-3.28c-1.76-0.7-3.26-2.1-2.41-4.34c0.82-2.16,2.74-2.23,4.68-1.94
		c17.85,2.65,35.52,5.94,51.91,14.01C648.97,268.93,652.38,270.03,655.46,273.6z"/>
	<path class="st0" d="M642.82,294.82c-2.56,1.65-4.6,0.6-6.37-0.6c-11.6-7.84-24.37-13.42-36.95-19.39
		c-3.51-1.66-4.52-2.99-3.92-4.95c0.63-2.08,2.94-2.99,6.49-1.85c13.36,4.28,25.89,10.21,36.69,19.35
		C640.93,289.22,642.91,291.3,642.82,294.82z"/>
	<path class="st0" d="M422.54,192.37c6.22,0,12.44,0.04,18.66-0.01c5.17-0.04,7.41,1.45,8.35,6.68c1.39,7.74,0.98,15.42-2.14,22.77
		c-4.01,9.43-10.77,16.21-20.28,19.99c-10.89,4.33-21.17,1.77-30.93-3.66c-11.56-6.43-17.78-16.59-19.57-29.53
		c-0.41-2.97-0.35-6.02-0.31-9.03c0.04-2.81,2.18-3.57,4.48-3.83c4.51-0.51,9.02-1.01,13.55-1.31c9.39-0.63,18.79-1.12,28.18-1.66
		C422.54,192.64,422.54,192.51,422.54,192.37z M440,200.62c-18.86-0.27-37.72,0.99-56.56,3.14c1.56,13.95,8.77,25.36,22.1,28.8
		c-0.18-1.26-0.43-2.38-0.5-3.52c-0.5-8.2,5.62-15.68,13.69-16.78c4.59-0.62,7.09,0.83,8.05,5.31c0.89,4.14,1.25,8.4,1.84,12.6
		C437.9,225.19,442.95,212.39,440,200.62z"/>
	<path class="st0" d="M422.96,174.99c4.34,0.42,8.68,0.84,13.02,1.27c0.5,0.05,1.01,0.11,1.49,0.24c2.81,0.77,4.57,2.69,4.41,4.77
		c-0.17,2.11-2.16,3.73-5.22,3.73c-2.84,0-5.7-0.33-8.52-0.7c-11.07-1.43-21.72,0.48-32.2,3.92c-3.03,1-6.04,2.03-9.07,3.02
		c-1.27,0.42-2.55,0.87-3.86,1.13c-2.97,0.59-4.84-0.2-5.5-2.17c-0.66-1.98,0.24-3.66,3.16-4.94
		C394.12,179.33,408.59,174.98,422.96,174.99z"/>
	<path class="st0" d="M422.62,285.96c2.53-5.38,6-8.53,10.06-10.95c9.38-5.58,18.76-11.17,28.35-16.37
		c6.77-3.67,13.87-6.75,20.86-10.01c1.35-0.63,2.9-1.22,4.33-1.15c1.13,0.05,2.74,0.9,3.15,1.83c0.4,0.9-0.12,2.64-0.85,3.5
		c-0.93,1.1-2.41,1.8-3.75,2.47c-19.79,9.97-39.59,19.91-59.4,29.84C424.82,285.4,424.17,285.5,422.62,285.96z"/>
	<path class="st0" d="M438.85,297.29c0.35-5.09,2.85-7.71,5.5-9.93c5.4-4.52,10.91-8.97,16.7-12.97c6.63-4.58,13.6-8.65,20.43-12.94
		c0.28-0.18,0.58-0.35,0.87-0.51c1.54-0.87,3.24-1.55,4.59,0c1.51,1.72,0.64,3.54-0.65,4.98c-1.34,1.49-2.76,2.99-4.41,4.11
		c-11.82,8.01-23.67,15.96-35.6,23.81C444.26,295.17,441.86,295.92,438.85,297.29z"/>
</g>
</svg>
