<?xml version="1.0" encoding="utf-8"?>
<!-- Generator: Adobe Illustrator 24.3.0, SVG Export Plug-In . SVG Version: 6.00 Build 0)  -->
<svg version="1.1" id="Capa_1" xmlns="http://www.w3.org/2000/svg" xmlns:xlink="http://www.w3.org/1999/xlink" x="0px" y="0px"
	 viewBox="0 0 1000 1000" style="enable-background:new 0 0 1000 1000;" xml:space="preserve">
<style type="text/css">
	.st0{fill:#FFFFFF;}
</style>
<g>
	<path class="st0" d="M982.2,703.2c1.1-2.5-8-3.7-11.4-4.8c-45.9-14.9-86.8-17.6-133.3-30.1c-44.3-12-86.7-29.9-131-42.2
		c-24.9-6.9-50.3-11.9-76.2-13c0,0,0,0,0,0c-0.5-16-1.1-32-2-48c-0.9-16.4-1.9-32.9-3.1-49.3c-1.1-14.9-2-29.8-7.8-43.7
		c1.2-2.8-0.3-7.2-4.3-7.7c-14.6-2-29.1-1.3-43.5,0.6c0.2-0.4,0.3-0.8,0.4-1.3c9.9-59.7,48.7-112.7,102.8-140.1
		c5.7-2.9,0.7-11.5-5-8.6c-26.7,13.5-50,33.2-68.1,56.8c-2.6-8.7-7.3-16.6-13.6-23.4c-4.4-4.7-11.5,2.4-7.1,7.1
		c7.1,7.6,11.3,16.8,12.8,27.1c0,0,0,0,0,0.1c-15.8,23.5-26.8,50.3-31.4,78.4c-0.4,2.2,0.5,3.9,1.9,5c-14.6,2.3-29.1,5.7-43.4,8.5
		c-0.7,0.1-1.4,0.3-2.1,0.4c6.3-34.6,36.3-56.5,63.4-75.5c5.2-3.7,0.2-12.3-5-8.6c-11.4,8-23.2,16.5-33.8,26.1
		c11.7-27.7,17.9-57.5,18.2-87.7c2.9-1.1,5.6-2.7,8.2-4.3c9.1-5.5,17.2-12.7,23.9-21c15-18.3,23.4-40.7,29.1-63.4
		c2.8-11.2,7.7-25.5,1.5-36.4c-3.1-5.4-9.1-8.8-15.1-8.7c-0.8-5.7-4.4-11-9.7-14c-9-5.1-19.5-1.9-27.8,3.3
		c-4.5-4.4-10.9-6.6-17.3-5.2c-4.7,1-8.4,3.8-11,7.5c-3.8-3.1-8.8-4.6-13.8-3.6c-4.8,1-8.4,4-10.6,7.8c-3.7-2.3-8.2-3.2-12.7-1.9
		c-5,1.4-8.5,5.4-10.2,10.1c-5.6-1.9-11.9-0.9-16,4.2c-5.4,6.8-3,16.3,3.6,20.8c0.5,30.2,13,59.6,33.8,81.3
		c-27.3,27.4-45.7,63.5-51.2,102.1c-3.6,0.1-6.9,3.6-4.3,7.2c7.9,10.6,18.1,19,27,28.7c8.9,9.6,14.8,20.9,17.5,33.6
		c-24.4,4.6-49,8.4-73.7,11c-10.4,1.1-20.9,2.1-31.4,2.8c0,0,0-0.1,0-0.1c-0.9-6.5-1.8-13-2.5-19.5c0.2-0.3,0.3-0.7,0.4-1.1
		c0.2-0.6,0.3-1.3,0.5-1.9c0.4-0.3,0.7-0.7,1.1-1.1c13.7-18.7,34.6-31,57.4-34.8c6.3-1,3.6-10.7-2.7-9.6c-19,3.2-36.5,12-50.4,24.9
		c3.5-12.5,7.5-24.8,12.2-36.9c6.8-17.6,15.9-34.6,29.8-47.6c4.7-4.4-2.4-11.5-7.1-7.1c-14.4,13.5-23.9,30.8-31.1,48.9
		c-5,12.4-9.2,25.2-12.9,38.1c-0.9-10.3-1.6-20.7-2.1-31.1c0.3-0.9,0.3-2-0.1-2.9c-0.1-1.5-0.1-2.9-0.2-4.4c0.3-0.4,0.6-1,0.8-1.6
		c6.3-19.5,16.4-37.7,29.7-53.3c6.5-7.6,13.7-14.6,21.5-20.9c8.3-6.7,18.4-14.8,29.7-13.8c6.4,0.6,6.4-9.4,0-10
		c-12.4-1.1-23.2,6.3-32.6,13.5c-8.9,6.8-17.2,14.4-24.6,22.9c-10.1,11.6-18.5,24.5-25.1,38.3c-0.5-48.9,3.4-97.8,12-145.7
		c3.4-18.8,8.5-38.5,23.1-51.9c4.8-4.4-2.3-11.4-7.1-7.1c-13.3,12.1-19.8,29.2-23.7,46.4c-4.5,20.3-7,41.2-9.2,61.9
		c-0.3,2.6-0.5,5.1-0.8,7.7c-14.2-10.2-32.6-13.6-49.6-8.4c-6.1,1.9-3.5,11.5,2.7,9.6c15.5-4.7,32.6-1.2,44.7,9.7
		c0.4,0.3,0.8,0.6,1.1,0.8c-2.8,32.5-3.6,65.1-2.6,97.7c-18.8-12.8-41.2-19.6-64.3-19c-6.4,0.2-6.4,10.2,0,10
		c23.4-0.6,46.5,7,64.8,21.8c0.1,1.7,0.2,3.4,0.2,5.1c1.3,24.4,3.7,48.8,7.1,73c-0.3,0-0.5,0-0.8,0c-9.7-21.6-27.1-38.2-49.2-46.9
		c-6-2.4-8.6,7.3-2.7,9.6c17.7,7,32.7,20.7,41.2,37.8c-26.9,1.1-53.9,0.8-80.8-1.4c-0.8-2.3-1.7-4.6-2.5-6.8
		c-2.1-29.5,15.5-57.7,43.5-68.5c5.9-2.3,3.4-12-2.7-9.6c-14.9,5.7-27.2,15.5-36,27.6c-3.9-30.5-13.3-59.7-23-88.7
		c28.7-15.1,34.6-50.8,50.3-77c8.3-13.8,19.5-27.6,19.9-44.4c0.2-6.9-1.5-15.3-7.6-19.5c-3-2.1-5.9-2.2-9.4-2.2c-2.7,0-3,0-4.1-2.5
		c-0.6-1.5-1.1-3.1-1.9-4.5c-5.8-10-19-11.7-28.1-6.1c-4-4.9-9.9-8-16.5-7.5c-5.8,0.4-10.9,3.5-14.3,8c-8.1-6.8-20.8-6.1-28,2
		c-11.7-6.6-27.3-0.1-30.1,13c-10.9-1.2-21.2,9.1-22.7,20c-1.2,9,1.6,17.9,4.6,26.3c3.1,8.7,6.5,17.3,10.3,25.8
		c13.2,28.8,34.5,56,65.3,66.1c-0.3,2.2,0.8,4.6,2.7,5.4c9.7,28.6,19.2,57.4,22.8,87.5c0.4,3.2,3.1,4.8,5.6,4.8
		c-4.5,7.8-7.7,16.3-9.4,25.3c-4.1-7.3-9-14.1-15.1-19.9c-7.5-7.1-16.6-11.3-25.4-16.5c-9.4-5.5-16.8-12.9-20.6-23.3
		c-2.2-6-11.8-3.4-9.6,2.7c3.3,9.1,8.7,17.2,16.3,23.3c8.4,6.7,18.7,10.4,27.4,16.8c12.7,9.3,20.3,23.6,26,38.2
		c0.1,1.1,0.2,2.2,0.3,3.3c-10.4-1.1-20.8-2.5-31.1-4.2c-6.2-1-12.4-2.2-18.5-3.4c-6.9-23.2-15.2-46.1-25.1-68.2
		c0.2-0.4,0.4-0.9,0.5-1.5c2.3-12.7,6.8-24.7,13.6-35.7c3.4-5.5,7.3-10.6,11.7-15.4c3.5-3.8,9.9-11.9,15.7-10.1
		c6.2,1.9,8.8-7.7,2.7-9.6c-7.7-2.4-14.4,2.1-19.8,7.1c-5.8,5.3-10.9,11.3-15.4,17.7c-7.1,10.1-12.4,21.3-15.7,33.2
		c-1.4-2.8-2.7-5.6-4.2-8.3c-11.8-23-27.9-45.6-52.6-55.3c3.5-74.8,10.4-149.5,20.9-223.7c2.1-14.9,4.3-29.9,6.7-44.8
		c0.8-4.8,3.2-12.4-2.4-15.5c-0.4-0.2-0.7-0.3-1.1-0.4c-1.1-1.6-2.9-2.7-5.3-2.3c-30.3,5.3-54.8,26.2-73.1,49.9
		c-20.3,26.2-35.3,56.6-45.3,88.1c-10.2,32.2-14.9,66.1-14,99.9c0.9,33.8,6.9,68.9,24.4,98.4c16.7,28.2,44.7,50.2,77.6,54.3
		c2.3,2.6,7.6,2,8.6-1.8c0.7-1.3,0.7-2.9,0.2-4.3c0.2-29.1,0.9-58.1,2.2-87.2c21.7,9.8,35.4,31.7,45.8,52.4
		c6.3,12.6,12.1,25.6,17.3,38.7c-10-5.2-21.5-7.6-32.7-6.8c-6.9,0.5-13.7,2.1-20.1,4.9c-5.9,2.6-12.8,6.3-12.5,13.7
		c0.3,6.4,10.3,6.4,10,0c-0.2-3.5,11-6.4,13.4-7c4.9-1.3,10-1.9,15.1-1.7c10.3,0.3,20.1,3.8,28.5,9.7c1.2,0.8,2.4,1.1,3.4,0.8
		c3.4,9.4,6.6,18.8,9.5,28.3c-22.7-5.2-45.1-12-66.8-20.6c-1.7-0.7-3-0.4-4.1,0.4c-1.2-2.2-3.9-3.7-6.7-1.9
		c-25.1,15.2-38,42.5-46.9,69.4c-11.2,34.1-18.6,69.5-23.8,105c-5.3,36.4-8.2,73.2-9.3,109.9c-1.1,34.3-1.7,69,1.2,103.2
		c3,34.1,11.1,68.2,33.3,95.1c1.6,1.9,3.6,2,5.3,1.1c12.1,5,25.1,7,38.2,7.8c16.6,1.1,33.2,1.3,49.8,1.7
		c33.6,0.8,67.3,0.9,100.9,0.5c67.6-0.9,135.1-4.4,202.5-10.4c38.1-3.4,76.1-7.6,114-12.5c4.2-0.6,5.6-5.2,4.2-8
		c0.6-0.7,1-1.6,1.2-2.8c3.7-32.4,6.7-64.9,8.9-97.5c0.3,0,0.5-0.1,0.8-0.2c92.7-26.6,188.7-41.1,279.6-73.8
		c25.5-9.2,41.4-17.2,65.4-29.6C975.7,714.9,984.6,705.2,982.2,703.2z M195.7,241.1c0-0.1,0-0.1-0.1-0.2c-2-6.5-4.1-14.9-0.1-21.1
		c2.8-4.3,8.5-7.4,13.1-4.3c2.9,1.9,8-0.5,7.5-4.3c-1.3-10.6,10.2-17.3,18.1-9.2c2.1,2.2,6.4,1.9,7.9-1c4.3-8.9,15.3-8.4,19.2,0.5
		c1.7,3.9,8.4,2.9,9.1-1.2c1.8-9.6,15-12.9,18.9-2.7c1.6,4.2,6.5,4.8,9.1,1.2c3.1-4.3,10.5-4.3,14.4-1.2c2.5,2,2.9,5.2,4.3,7.9
		c1.6,3.1,4.1,5.5,7.6,6.2c4.4,0.9,8.2-1.7,10.5,3.5c1.6,3.7,1.5,8.4,0.8,12.3c-0.2,1.3-0.5,2.6-0.9,3.9c-5-3.1-11.2-3.5-16.5-1.1
		c-4-6.2-10.7-10.4-18.2-11.6c-9.3-1.4-18.1,1.8-25.7,6.9c-9.6-11.4-27-10.3-36.1,0.7c-4.1-3.2-9.6-4.6-14.9-3.3
		c-6,1.5-10.6,6.5-12.3,12.3c-3.6-0.8-7.2-0.8-10.6,0.9C198.7,237.4,196.9,239.1,195.7,241.1z M273.1,334.5
		c-27.5-6.5-47.4-28.1-60.3-52.2c-5.1-9.6-9.6-19.8-13.4-30.1c2.7,0.3,5.4-1.3,5-4.7c-0.6-5.2,8-1.6,10.2-0.8
		c2.8,1.1,6.7-1.8,6.3-4.8c-1-9.1,9.9-12.9,14.1-4.6c2.1,4.2,7.8,2.5,9.1-1.2c4.3-11.6,19.5-11.4,25-1c1.6,3.1,5.5,2.9,7.9,1
		c9.6-7.8,29.8-13.4,34.8,2.7c1.1,3.5,5.6,5,8.4,2.2c3.1-3.2,7.9-3.2,11.1-0.2c-1.8,3.5-3.9,6.8-5.9,10.1
		c-4.8,7.8-9.8,15.4-13.7,23.6c-4.2,8.8-7.6,17.8-11.6,26.6c-5.9,12.8-13.8,26.1-26.1,33.6C273.7,334.7,273.4,334.6,273.1,334.5z
		 M136.1,352.1c-1,25.9-1.7,51.8-1.9,77.7c-26.4-4-49.6-21.4-64.2-43.3c-18.1-27.2-24.8-60.3-26.4-92.4
		c-3.2-62.8,14-126.5,49.5-178.5c17.1-25,40.2-48.2,70.3-55.4c0.4,1,1,1.7,1.8,2.3c-0.2,1.5-0.5,3-0.7,4.5c-0.4,2.6-0.8,5.2-1.2,7.8
		c-1,6.5-2,13-3,19.5c-1.8,12.1-3.5,24.3-5.1,36.4c-3.3,24.7-6.2,49.5-8.7,74.3C141.6,253.8,138.1,303,136.1,352.1z M604.4,206.5
		c2.3-2.2,6-0.6,7.9,1.4c2.9,3,2.9,7.9,2.4,11.9c-1.6-0.2-3.3-0.2-4.9,0c-1.8-4.7-5-8.9-9-11.9C602,207.9,603.3,207.5,604.4,206.5z
		 M547.4,198.1c0.4-9.3,12.1-12,16.8-4.2c1.3,2.1,4.6,3.4,6.8,1.8c5.2-3.8,12-8.1,18.8-6.5c4.5,1,9.3,6.4,6.8,11.2
		c-1,1.8-0.8,3.6,0.1,5c-1.8-0.9-3.8-1.5-5.8-1.8c-7.3-1.3-14.5,0.8-20,5.2c-3.6-6-10.2-10-17.6-10.5c-2-0.1-4,0-5.9,0.4
		C547.3,198.5,547.4,198.3,547.4,198.1z M524,201c-1.3-9.1,11.7-10.1,13.6-1.5c0.3,1.1,0.8,2,1.5,2.6c-3.2,2-6,4.7-8.4,7.7
		c-2.5-2-5.4-3.3-8.5-3.8C523.4,204.8,524.2,203.1,524,201z M486.8,216.3c-2.2-0.9-2.5-4.9-1-6.5c2.3-2.6,6.8-1,8.4,1.5
		c3,4.5,11,1.8,9.1-3.9c-2.7-8.2,8.6-12.1,11-3.8c0.3,0.9,0.7,1.6,1.2,2.2c-0.3,0-0.6,0.1-0.9,0.2c-7.3,1.5-12.6,6.8-15.9,13.2
		c-1.5-0.6-3-1.1-4.5-1.5c-2-0.5-3.6,0.1-4.7,1.2C489,217.8,488.1,216.8,486.8,216.3z M505.3,275.8c-8.3-14.9-13.1-31.5-13.9-48.6
		c0,0,0,0,0,0c2.7,0.7,4.9,1.7,7.3,3.1c2.8,1.7,6.5,0,7.3-3c1.4-4.9,4.5-10.1,9.8-11.5c4.5-1.2,8.9,0.8,10.9,4.9
		c1.6,3.3,7,3.2,8.6,0c3-5.9,7.9-11.5,14.9-12.5c6.3-0.9,13.2,3.6,13.3,10.3c0.1,4.9,6.8,6.8,9.3,2.5c7.9-13.2,26.3-8.4,28.5,6.2
		c0.5,3.5,4.8,4.2,7.3,3c1.5-0.7,2.9-0.8,4.3-0.6c-1.4,6.7-3.3,13.3-5.3,19.8c-5.4,18.2-13.3,36.2-26,50.6
		c-5.8,6.6-12.4,12.3-20,16.8c-1.6,1-3.2,2-4.9,2.7c-1.9-1-4.4-0.9-6,0.5c-0.3-0.1-0.7-0.2-1-0.4c-4.1-1.8-8-4.5-11.7-7
		c-3-2-5.8-4.3-8.5-6.6c8.7-7.7,18.2-14.5,28.3-20.3c5.6-3.2,0.6-11.8-5-8.6c-11,6.2-21.2,13.6-30.5,22
		C515.8,292,510,284.2,505.3,275.8z M497.1,440.4c-7.4-8.8-16.4-16.1-24.1-24.7c0-0.2,0.1-0.3,0.1-0.5
		c3.9-38.7,21.9-75.2,49.3-102.5c5.1,4.5,10.5,8.5,16.4,12.1c3.2,2,6.8,4.2,10.6,5.2c-0.4,33.6-8.5,66.8-23.7,96.9
		c-1.1,2.1-0.6,4.1,0.6,5.6c-7.1,8.7-12.9,18.3-16.5,29C506.7,453.8,502.4,446.8,497.1,440.4z M616.3,819.5
		c-2.2,32.8-5.2,65.6-9,98.3c-0.1,0.5,0,0.9,0,1.4c-64.5,8.3-129.3,14.4-194.3,18.1c-66.5,3.8-133.1,5.2-199.7,4.1
		c-18.5-0.3-36.9-0.8-55.4-1.5c-17.2-0.6-35-1.5-50.8-9c-0.4-0.2-0.7-0.3-1.1-0.4c-17.4-22.5-24.6-51-27.6-78.9
		c-3.4-32.2-2.9-65-2.2-97.3c1.5-69.9,8.7-140.1,27.9-207.5c8.5-29.8,19.4-63.6,47.5-80.6c0.1,0,0.1-0.1,0.2-0.1
		c0.5,1.2,1.4,2.1,2.9,2.7c24.1,9.5,48.8,16.8,73.8,22.1c1.1,0.8,2.6,1.1,4,0.8c19.2,3.9,38.6,6.7,58.2,8.5c1.5,1.1,3.6,1.1,5.2,0.5
		c70.4,5.9,142.2-0.9,211.3-13.9c33.1-6.2,66.8-16.4,100.7-13.2c-0.1,0.8,0.1,1.7,0.4,2.6c5.4,12.3,5.7,26.2,6.7,39.4
		c1.1,14.4,2,28.9,2.8,43.4c1.6,28.9,2.6,57.9,3,86.8C621.8,703.8,620.2,761.7,616.3,819.5z M702.3,790.5
		c-25.2,6-50.4,12.3-75.4,19.3c3.9-62.2,5.2-124.6,3.6-186.9c45.6,2.1,89.1,16.7,131.8,31.5c21.7,7.5,43.4,15.2,65.5,21.4
		c22.7,6.5,45.8,10.8,68.9,14.9c25.4,4.5,50.8,9,75.4,16.6C887.7,750.5,793.8,768.8,702.3,790.5z"/>
	<path class="st0" d="M537.2,656.5c-0.4,0-0.7,0.1-1.1,0.1c-26.9-3.3-54.3,6.5-70.8,28.9c-16.6,22.5-17.2,53.2-1,76.1
		c16,22.6,43.3,32.7,70.2,26.9c13.6-2.9,26.4-10,36.1-20c10.8-11.3,16.2-25.4,17.3-40.9c1.1-16.7-1.7-34.9-11.1-49
		C568.1,665.3,553.4,656.1,537.2,656.5z M566.9,757.7c-7.3,9.1-17.3,15.8-28.4,19.4c-22.1,7.1-46.1,1.6-61.7-15.9
		c-15.5-17.4-18.7-42.3-7.6-62.9c13.6-25.3,43.1-36.5,70.6-31c1.3,0.3,2.4,0.1,3.3-0.4c24.1,3.3,34.7,30.8,35.1,52.9
		C578.4,733.4,575.6,746.8,566.9,757.7z"/>
	<ellipse class="st0" cx="521.6" cy="722.6" rx="27.5" ry="28.2"/>
</g>
</svg>
