<?xml version="1.0" encoding="utf-8"?>
<!-- Generator: Adobe Illustrator 24.3.0, SVG Export Plug-In . SVG Version: 6.00 Build 0)  -->
<svg version="1.1" id="Capa_1" xmlns="http://www.w3.org/2000/svg" xmlns:xlink="http://www.w3.org/1999/xlink" x="0px" y="0px"
	 viewBox="0 0 1000 1000" style="enable-background:new 0 0 1000 1000;" xml:space="preserve">
<style type="text/css">
	.st0{fill:#FFFFFF;}
</style>
<g>
	<path class="st0" d="M775.34,717.01c-2.95,5.72-5.28,10.57-7.89,15.27c-8.42,15.15-17.22,30.09-25.34,45.4
		c-12.32,23.23-29.13,43.05-46.81,62.14c-8.52,9.2-18.34,17.21-27.63,25.68c-6.15,5.61-11.96,11.73-18.73,16.48
		c-15.85,11.14-32.55,20.99-49.87,29.71c-3.79,1.91-7.51,3.97-11.32,5.84c-26.97,13.22-55.45,17.74-85.22,14.52
		c-15.41-1.67-30.6-4.53-45.25-9.67c-6.39-2.24-12.73-4.82-18.71-7.99c-19.21-10.17-38.78-19.79-56.29-32.86
		c-9.12-6.8-17.95-14-26.69-21.29c-6.53-5.44-12.98-11.03-18.96-17.04c-8.86-8.91-17.64-17.95-25.79-27.5
		c-8.16-9.55-15.5-19.8-23.21-29.73c-7.51-9.66-15.11-19.25-22.54-28.97c-6.82-8.91-13.46-17.95-20.18-26.93
		c-0.68-0.91-1.39-1.79-2.87-3.71c0,3.09-0.05,5.02,0.01,6.95c0.62,23.11,0.98,46.23,2,69.33c0.69,15.61,2.27,31.17,3.57,46.75
		c1.47,17.61,3.51,35.18,2.67,52.92c-0.24,5.08,0.13,10.19,0.33,15.28c0.24,6.46,0.39,12.87-2.01,19.09
		c-0.86,2.23-2.19,3.38-4.48,3.4c-14.6,0.11-29.07,3.22-43.76,1.71c-12.84-1.33-25.72-2.27-38.58-3.37
		c-1.35-0.12-2.71-0.26-4.07-0.26c-9.84-0.05-19.69-0.05-29.53-0.09c-1.53-0.01-3.08,0-4.57-0.27c-4.71-0.84-6.8-3.05-7.3-7.76
		c-3.41-32.45-6.76-64.91-10.2-97.35c-2.38-22.48-5.17-44.92-7.23-67.43c-1.42-15.56-2.07-31.2-2.76-46.82
		c-0.99-22.25-1.96-44.5-2.43-66.76c-0.32-15.29,0.14-30.6,0.43-45.9c0.28-14.96,1.11-29.91,1.12-44.87
		c0.01-22.14,2.23-44.13,3.34-66.2c1.23-24.53,5.63-48.59,9.12-72.81c2.28-15.81,4.24-31.67,6.72-47.44
		c1.92-12.24,4.54-24.38,6.62-36.6c1.25-7.36,2-14.81,3.1-22.21c2-13.42,7.49-25.73,12.33-38.24c2.7-6.97,5.39-13.97,8.65-20.69
		c14.5-29.9,31.85-57.75,58.32-78.81c8.78-6.98,17.56-13.96,26.32-20.97c5.04-4.04,9.93-8.26,15.05-12.19
		c6.05-4.65,12.23-9.13,18.45-13.57c2.9-2.07,5.96-3.92,9.03-5.75c9.03-5.39,15.19-13.82,22.16-21.31
		c10.58-11.37,22.88-20.41,36.7-27.08c18.96-9.14,39.27-14.11,60.12-16.78c25.79-3.3,51.57-6.64,77.37-9.77
		c21.25-2.58,42.5-5.37,63.82-7.17c25.41-2.15,50.5,0.9,75.45,6.1c16.21,3.38,31.97,8.05,47.22,14.3c7.34,3.01,14.83,6.48,21,11.34
		c12.36,9.73,26.18,16.91,39.87,24.22c10.21,5.44,20.52,10.68,29.97,17.31c14.17,9.95,28.37,19.92,41.07,31.81
		c3.85,3.6,7.65,7.26,11.65,10.68c17.9,15.28,32.21,33.58,44.39,53.55c4.41,7.22,8.35,14.85,11.45,22.7
		c7.55,19.12,14.5,38.55,18.6,58.72c4.2,20.63,7.22,41.51,10.55,62.31c5.21,32.49,6.47,65.23,6.27,98.1
		c-0.17,27.88,0.6,55.76,0.81,83.64c0.14,17.68-0.3,35.37,0.09,53.05c0.7,31.27,1.41,62.56,2.9,93.8
		c1.87,39.22,4.95,78.39,6.7,117.61c0.91,20.52,0.42,41.14-0.08,61.69c-0.49,20.39-1.74,40.76-2.76,61.13
		c-0.24,4.74-0.95,9.45-1.36,14.19c-0.14,1.68-0.08,3.38,0.01,5.07c0.22,3.94-1.08,5.77-4.92,6.23c-2.35,0.28-4.75,0.2-7.13,0.2
		c-12.92,0.01-25.85-0.1-38.77,0.01c-16.83,0.14-33.65,0.4-50.39,2.49c-5.86,0.73-9.09-1.64-9.68-7.6
		c-0.78-7.95-1.35-15.93-1.57-23.91c-1.14-40.28-1.94-80.57-3.26-120.84c-0.68-20.55-2.19-41.08-3.35-61.62
		c-0.34-6.11-0.75-12.22-1.17-18.32C775.92,720.22,775.67,719.14,775.34,717.01z M887.38,941.85c0.44-5.78,0.97-10.84,1.2-15.91
		c0.96-20.71,1.9-41.43,2.7-62.15c0.88-22.6,1.3-45.2-0.38-67.79c-0.74-10-1.55-20-2.08-30.02c-1.53-28.86-3.08-57.72-4.35-86.59
		c-1.08-24.28-2.08-48.58-2.57-72.88c-0.48-23.62-0.21-47.26-0.37-70.9c-0.21-30.26-0.79-60.52-0.7-90.78
		c0.08-25.71-1.11-51.33-4.36-76.82c-1.89-14.83-4.56-29.55-6.8-44.34c-2.49-16.48-5.49-32.84-10.64-48.74
		c-2.31-7.11-4.92-14.13-7.04-21.29c-7.23-24.42-20.54-45.47-36.57-64.83c-14.57-17.59-31.58-32.78-49.57-46.81
		c-9.24-7.2-18.66-14.21-28.43-20.67c-7.62-5.04-15.95-8.99-23.87-13.59c-11.29-6.57-22.54-13.21-33.7-19.99
		c-3.3-2-6.03-4.96-9.39-6.81c-6.08-3.36-12.28-6.63-18.72-9.22c-15.95-6.4-32.45-10.92-49.36-14.2
		c-20.44-3.96-40.92-6.27-61.78-5.58c-22.82,0.76-45.29,4.61-67.93,6.99c-18.76,1.97-37.48,4.28-56.19,6.6
		c-18.37,2.27-36.72,4.39-54.75,9.04c-20.99,5.41-39.66,15.01-56.25,28.71c-7.18,5.93-13.82,12.5-20.74,18.73
		c-3.53,3.18-6.82,6.78-10.78,9.32c-12.33,7.93-23.85,16.86-34.69,26.72c-1.38,1.25-3.01,2.22-4.43,3.44
		c-11.75,10.06-23.65,19.94-35.14,30.28c-8.35,7.51-15.72,16.03-22,25.39c-12.52,18.64-24.57,37.54-32.3,58.82
		c-2.49,6.86-5.79,13.44-8.08,20.36c-2.61,7.87-4.79,15.92-6.65,24.01c-1.29,5.61-1.57,11.44-2.56,17.13
		c-2.12,12.22-4.63,24.37-6.57,36.61c-2.39,15.1-4.33,30.27-6.53,45.41c-3.68,25.39-8.16,50.65-9.47,76.36
		c-1.15,22.4-3.55,44.73-3.35,67.21c0.12,12.91-0.65,25.83-0.81,38.75c-0.21,17.85-0.65,35.71-0.21,53.54
		c0.55,22.6,2.16,45.17,2.82,67.76c0.71,24.51,3.44,48.82,6.01,73.16c1.52,14.37,3.13,28.72,4.61,43.09
		c1.25,12.17,2.28,24.37,3.57,36.53c1.81,17.06,3.77,34.11,5.69,51.16c0.13,1.12,0.5,2.21,0.78,3.4c9.26,0,18.25-0.25,27.23,0.06
		c12.72,0.44,25.45,0.95,38.12,2.05c10.5,0.91,20.94,2.19,31.51,1.23c6.59-0.6,13.21-0.94,19.81-1.45c0.79-0.06,1.56-0.38,2.64-0.65
		c-0.18-2.2-0.38-4.21-0.49-6.22c-0.42-7.46-1.33-14.93-1.11-22.37c0.47-15.34-0.74-30.58-1.94-45.83
		c-1.34-16.94-3.56-33.85-4-50.81c-0.93-35.86-1.67-71.71-4.58-107.49c-2.36-28.97-4.21-57.98-6.67-86.94
		c-1.71-20.15-4.37-40.21-6.09-60.36c-2.01-23.37-4.43-46.76-4.94-70.18c-0.92-41.8-0.65-83.64-0.65-125.46
		c0-11.73,0.98-23.4,3.78-34.9c1.71-7.03,6.17-10.68,12.79-12.39c1.31-0.34,2.58-0.86,3.88-1.22c6.74-1.84,11.19-6.9,16.03-11.39
		c9.97-9.25,21.44-9.77,33.74-6.06c3.55,1.07,7.18,1.95,10.82,2.64c3.74,0.71,6.97-0.44,9.77-3.13c3.61-3.48,7.89-5.87,12.81-7.03
		c4.13-0.97,8.25-1.99,12.38-2.94c9.43-2.16,18.89-4.19,28.29-6.49c6.26-1.53,12.35-3.86,18.66-5.11
		c9.86-1.94,19.37-1.44,26.88,6.67c0.79,0.86,1.82,1.54,2.85,2.12c3.49,1.95,7.81,1.67,10.21-1.37c4.27-5.39,10.04-6.6,16.3-6.86
		c10.18-0.42,20.37-0.72,30.55-1.16c14.94-0.65,29.88-1.4,44.82-2.09c4.9-0.23,9.25,1.08,13.51,3.69c4.02,2.45,8.48,4.31,12.94,5.88
		c4.17,1.47,5.17,0.92,7.53-2.75c1.6-2.49,3.75-3.95,6.63-4.15c2.7-0.18,5.43-0.23,8.14-0.11c9,0.4,17.99,1,26.98,1.34
		c8.49,0.33,16.99,0.57,25.49,0.58c6.14,0.01,10.49,2.14,12.38,8.36c0.47,1.54,1.48,3.11,2.67,4.21c2.32,2.14,4.64,1.7,6.27-0.99
		c0.79-1.3,1.39-2.72,1.94-4.14c2.55-6.51,5.31-8.48,12.2-8.68c16.48-0.5,32.96-0.88,49.44-1.57c6.74-0.29,12.44,1.18,16.61,6.83
		c0.6,0.81,1.43,1.45,2.18,2.14c2.43,2.21,5.25,2.49,8.03,1.05c1.76-0.91,3.42-2.24,4.74-3.72c3.53-3.97,7.94-5.57,13.12-5.73
		c8.04-0.25,15.94,0.79,23.77,2.47c2.54,0.55,4.96,1.67,7.02,2.39c-0.44,1.98-1.26,3.46-0.95,4.66c2.7,10.71,2.78,21.54,1.52,32.39
		c-2.84,24.36-3.53,48.86-3.55,73.3c-0.02,31.43,1.14,62.89,2.81,94.29c1.19,22.25,1.81,44.49,2.16,66.75
		c0.14,9.17,0.47,18.38,1.36,27.5c1.85,18.77,4.07,37.51,6.25,56.24c2.56,21.97,4,43.99,4.54,66.11c0.43,17.5,1.13,35.01,2.28,52.47
		c2.04,30.88,3.56,61.79,3.64,92.74c0.09,34.36,1.75,68.66,3.28,102.96c0.06,1.28,0.43,2.55,0.72,4.17
		c15.54-3.41,31.03-3.16,46.44-3.58C855.73,942.03,871.35,942.04,887.38,941.85z M474.62,477.42c-3-1.27-4.35-0.68-5.52,1.3
		c-2.95,4.97-6.04,9.85-9.18,14.71c-5.97,9.22-12.77,17.62-22.76,22.87c-7.37,3.88-14.66,7.9-22.01,11.8
		c-11.15,5.91-22.53,11.18-35.32,12.52c-2.69,0.28-5.35,0.92-8.01,1.48c-16.6,3.56-33.21,3.24-49.47-1.28
		c-16.77-4.66-32.17-12.76-47.32-21.22c-7.53-4.21-12.99-10.89-19.31-16.55c-6.15-5.51-11.08-11.98-14.43-19.55
		c-3.23-7.3-6.54-14.58-9.33-22.05c-3.96-10.6-6.28-21.51-4.72-32.97c1.1-8.08,1.94-16.19,3-24.28c2.38-18.18,9.7-34.53,21.08-48.5
		c15.15-18.61,33.9-33.36,55.03-44.8c12.7-6.88,26.11-12.31,39.68-17.25c11.22-4.09,22.9-4.74,34.68-4.29
		c1.63,0.06,4.21,0.35,4.67,1.33c1.34,2.84,3.93,2.39,6.01,3.1c2.88,0.99,5.92,1.5,8.82,2.43c13.9,4.45,25.29,13.14,36.23,22.3
		c13.67,11.45,24.47,25.42,33.58,40.74c6.42,10.78,10.99,22.21,13.13,34.58c1.15,6.66,2.11,13.35,3.21,20.4c20.62,0,41.09,0,61.55,0
		c3.06-16.93,10.14-32.19,19.03-46.52c5.07-8.17,10.65-16.25,18.73-22c28.67-20.4,60.52-25.96,94.56-19.29
		c12.81,2.51,24.89,7.86,36.91,13.04c6.05,2.61,11.26,6.25,15.61,11.17c2.36,2.67,4.64,5.45,7.22,7.9
		c6.1,5.79,13.78,9.99,17.95,18.07c1.47-16.77,2.1-33.32,3.27-49.83c1.17-16.54,4.46-32.92,3.17-49.58
		c-5.62-0.58-11.53-1.03-17.39-1.84c-6.91-0.96-12.72-0.19-17.98,5.5c-5.64,6.12-14.35,5.7-20.77,0.3
		c-1.04-0.87-2.14-1.76-2.92-2.84c-2.59-3.6-6.16-4.32-10.32-4.18c-11.04,0.37-22.09,0.51-33.14,0.82
		c-5.44,0.15-10.86,0.58-16.3,0.73c-3.2,0.09-4.94,1.48-5.72,4.63c-0.48,1.92-1.5,3.79-2.62,5.45c-3.29,4.87-7.27,6.12-12.81,4.19
		c-4.08-1.42-7.06-4.21-8.66-8.13c-1.42-3.49-3.57-4.75-7.34-4.82c-12.07-0.21-24.13-0.76-36.19-1.24
		c-6.28-0.25-12.56-0.66-18.84-0.95c-1.87-0.09-3.82-0.19-4.82,1.96c-2.89,6.21-8.21,6.83-13.81,5.28
		c-4.87-1.35-9.88-3.01-14.08-5.7c-5.73-3.66-11.67-4.17-18.02-3.76c-1.02,0.07-2.04,0.11-3.06,0.15
		c-21.73,1.01-43.46,2.01-65.19,3.02c-0.51,0.02-1.02,0.04-1.53,0.07c-4.18,0.28-7.83,1.32-10.7,4.9
		c-2.94,3.67-7.17,4.82-11.91,4.46c-4.83-0.37-8.86-2.36-12.26-5.61c-4.41-4.2-9.63-5.65-15.48-4.8c-3.68,0.53-7.38,1.27-10.94,2.33
		c-13.51,4.04-27.08,7.79-41.04,10.05c-8.44,1.37-16.59,3.47-23.11,9.71c-2.79,2.67-6.56,3.72-10.44,3.11
		c-5-0.78-10.09-1.43-14.9-2.93c-10.44-3.25-20.04-3.11-28.35,5.05c-1.33,1.31-2.79,2.49-4.18,3.75c-4.94,4.48-10.91,6.8-17.32,8.12
		c-1.79,0.37-3.65,0.4-5.77,0.62c-1.37,6.44-3.44,12.68-3.89,19.04c-1.05,14.57-1.87,29.19-1.8,43.79
		c0.21,43.86-0.43,87.74,2.85,131.53c1.27,16.95,2.79,33.88,4.33,50.8c2.19,24.03,4.69,48.03,6.73,72.07
		c2.09,24.73,3.92,49.48,5.56,74.24c0.37,5.51,1.33,10.27,6.09,13.62c0.67,0.47,1.15,1.25,1.67,1.92
		c16.68,21.47,33.52,42.83,49.99,64.47c13.31,17.48,27.21,34.4,43.19,49.51c6.55,6.19,13.25,12.22,20.17,17.99
		c8.34,6.97,16.83,13.78,25.53,20.3c17.07,12.79,36.13,22.28,54.88,32.23c6.12,3.25,12.65,5.83,19.2,8.11
		c13.54,4.69,27.61,7.13,41.83,8.65c28.55,3.06,55.88-1.22,81.7-14.07c3.65-1.82,7.22-3.8,10.87-5.62
		c16.61-8.27,32.51-17.79,47.76-28.27c6.66-4.58,12.3-10.67,18.32-16.16c9.05-8.24,18.54-16.07,26.9-24.97
		c10.11-10.76,19.38-22.33,28.71-33.8c4.16-5.12,7.86-10.69,11.25-16.37c7.15-11.96,14.01-24.09,20.88-36.22
		c8.28-14.63,16.75-29.18,22.59-45.04c0.29-0.78,0.63-1.77,1.26-2.17c2.44-1.56,2.25-3.86,2.23-6.27
		c-0.23-24.85-2.19-49.58-5.36-74.22c-2.95-22.93-5.92-45.86-6.42-69.02c-0.35-16.32-0.52-32.64-0.79-48.96
		c-0.03-1.76-0.23-3.52-0.41-6.24c-1.15,1.31-1.59,1.75-1.96,2.25c-3.75,5.04-7.5,10.09-11.24,15.15
		c-5.81,7.85-12.94,14.43-20.51,20.49c-14.67,11.75-32.24,14.8-50.25,15.51c-16.85,0.66-33.57-1.15-50.16-4.43
		c-9.3-1.84-18.32-4.46-26.15-9.57c-13.21-8.61-26.68-17.09-35.7-30.69c-1.44-2.17-3.6-3.85-5.43-5.76
		c-0.59,2.13-0.36,3.76-0.06,5.38c1.19,6.35,2.5,12.67,3.58,19.03c2.61,15.4,5.13,30.82,7.66,46.24c0.27,1.67,0.44,3.38,0.46,5.07
		c0.06,4.31-1.04,5.77-5.27,6.78c-1.93,0.46-3.95,0.58-6.24,0.89c1.01,2.03,2.01,3.79,2.77,5.64c4.31,10.43-2.16,19.61-13.29,18.97
		c-8.48-0.49-15.26-4.24-20.75-10.55c-5.11-5.88-5.71-12.54-3-19.56c2.69-6.97,9.25-9.24,15.86-5.7c1.24,0.67,2.41,1.47,3.62,2.21
		c-4.87-8-6.09-16.71-7.24-25.46c-0.53-4.04-1.31-8.05-1.96-12.07c-2.54-15.93-5.1-31.86-7.57-47.8c-0.64-4.13-0.98-8.31-1.49-12.77
		c-9.58,0.45-18.68,0.87-27.54,1.29c-0.32,0.87-0.49,1.17-0.55,1.49c-2.99,15.68-5.62,31.44-9.08,47.02
		c-2.69,12.09-6.42,23.95-9.7,35.9c-1.43,5.2-4.17,9.7-7.84,13.54c-1.71,1.79-3.9,3.43-6.19,4.31c-6.42,2.46-11.23-1.44-10.61-8.29
		c0.11-1.18,0.32-2.36,0.53-3.53c2.29-12.53,4.43-25.09,6.92-37.58C467.34,511.72,471.03,494.64,474.62,477.42z M760.81,483.05
		c0-6.26,0.16-12.04-0.03-17.8c-0.66-20.38-1.74-40.76-2.02-61.15c-0.09-6.87-1.28-13.09-4.74-18.87
		c-3.39-5.67-6.93-11.1-12.67-15.04c-4.7-3.23-8.93-7.36-12.71-11.67c-4.94-5.63-10.45-10.15-17.56-12.65
		c-1.92-0.67-3.69-1.76-5.6-2.46c-14.01-5.11-27.74-11.09-43.11-11.25c-11.41-0.12-22.72-0.39-33.9,2.63
		c-25.61,6.91-46.25,20.14-58.15,44.8c-4.87,10.1-9.47,20.24-12.51,31.14c-2.5,8.96-5.12,10.92-13.41,10.75
		c-1.02-0.02-2.04,0.01-3.06,0.04c-9,0.26-18.01,0.66-27.01,0.76c-10.52,0.12-21.05,0.1-31.57-0.1c-4.51-0.09-5.82-1.86-6.11-6.33
		c-0.28-4.4-0.7-8.8-1.27-13.17c-1.31-9.98-3.39-19.84-7.87-28.9c-12.55-25.36-30.36-46.21-54.26-61.58
		c-4.4-2.83-9.05-5.58-13.96-7.25c-10.27-3.48-20.78-6.25-31.22-9.19c-1.22-0.34-2.66-0.04-3.98,0.12
		c-8.89,1.1-16.88,4.92-25.14,8.05c-25.6,9.73-48.33,23.96-68.16,42.82c-7.65,7.28-14.62,15.09-19.89,24.41
		c-8.17,14.46-12.16,29.97-14.23,46.38c-2.12,16.8-0.78,32.56,6.23,48.23c6.2,13.87,13.37,26.57,25.2,36.49
		c5.62,4.71,11.01,9.59,17.63,12.84c6.86,3.37,13.78,6.62,20.63,10c17.57,8.68,36.17,11.51,55.51,9.44
		c6.9-0.74,13.67-2.62,20.54-3.7c6.62-1.04,12.88-3.05,18.81-6.11c9.36-4.83,18.6-9.89,28.04-14.55
		c8.63-4.26,15.61-10.27,20.67-18.39c4.11-6.58,9.32-12.51,11.83-20.06c0.36-1.07,1.74-2.13,2.88-2.53c1.73-0.6,3.65-0.75,5.5-0.84
		c22.57-1.12,45.15-2.2,67.73-3.3c3.05-0.15,6.11-0.58,9.16-0.56c3.28,0.03,4.41,1.17,5.37,4.31c0.59,1.94,1.16,3.92,2.08,5.71
		c4.01,7.89,8.17,15.69,15.41,21.27c1.19,0.92,2.22,2.14,3.08,3.39c6.3,9.16,15.02,15.64,24.06,21.75
		c4.49,3.03,9.04,6.02,13.75,8.69c8.58,4.86,18.15,6.9,27.74,8.02c13.14,1.54,26.39,2.67,39.61,2.88
		c10.86,0.17,21.66-1.7,31.78-6.19c13.62-6.03,23.78-16.21,32.81-27.64c4.94-6.25,9.33-12.94,14.07-19.35
		C757.97,485.75,759.52,484.41,760.81,483.05z M565.5,573.96c-0.24-1.8-0.35-3.44-0.7-5.04c-1.2-5.47-2.73-10.87-3.69-16.38
		c-1.72-9.86-2.88-19.81-4.69-29.65c-2.36-12.84-5.06-25.63-7.74-38.41c-0.75-3.57-1.91-7.05-2.9-10.65
		c-4.03,0.32-7.36,0.58-10.85,0.86c0,1.09-0.11,1.91,0.02,2.7c1.78,11.06,3.52,22.12,5.41,33.15c2.5,14.54,5.1,29.07,7.72,43.59
		c0.91,5.05,2.45,9.9,5.81,13.95C556.77,571.54,560.08,574.24,565.5,573.96z M480.61,476.78c-3.43,32.04-12.23,62.69-15.82,94.31
		c5.17-3.43,7.81-8.35,9.31-14.01c5.86-21.97,11.39-44.01,15.5-66.38c0.84-4.57,1.5-9.18,2.27-13.92
		C487.97,476.78,484.61,476.78,480.61,476.78z M552.02,599.02c3.88,0.14,5.04-1,5.15-4.73c0.11-3.75-1.87-6.52-4.56-8.67
		c-4.1-3.27-8.36-6.35-12.7-9.3c-3.22-2.19-5.92-1.18-6.94,2.6c-1.15,4.28-0.8,8.42,2.35,11.93
		C539.85,595.89,545.51,598.58,552.02,599.02z"/>
	<path class="st0" d="M516.16,761.48c-16.33-0.28-32.64-0.85-48.81-3.28c-10.24-1.54-20.4-3.61-30.57-5.54
		c-4.5-0.85-9.04-1.66-13.4-3c-12.66-3.87-20.8-13.09-27.09-24.1c-3.56-6.21-3.04-13.22-2.02-19.95
		c1.84-12.14,7.79-21.71,17.92-29.07c10.28-7.47,21.7-12.12,33.77-15c25.86-6.17,52.18-9.74,78.77-9.34
		c18.66,0.28,37.31,2.16,55.94,3.7c12.69,1.05,25.35,2.6,37.99,4.2c4.91,0.62,10.32,0.51,13.53,5.58c0.26,0.41,1.25,0.47,1.91,0.5
		c9.77,0.4,15.12,6.74,19.43,14.45c1.16,2.07,2.1,4.28,3.31,6.32c7.16,12.03,3.26,29.27-6.91,38.72
		c-11.3,10.5-24.64,17.19-39.02,22.37c-19.17,6.9-39.06,10.42-59.12,12.83c-9.72,1.17-19.67,0.48-29.51,0.61
		C520.24,761.5,518.2,761.48,516.16,761.48z M539.49,659.31c-13.27-0.91-26.48-0.39-39.7,0.93c-16.23,1.62-32.46,3.19-48.31,7.28
		c-12.9,3.33-25.2,7.88-35.87,16.33c-7.86,6.22-11.99,14.2-13.29,23.79c-0.61,4.51-1.22,9.32,1.2,13.5c5.2,9,11.69,16.8,22.25,19.73
		c5.55,1.54,11.25,2.52,16.87,3.77c17.76,3.97,35.66,7,53.91,7.45c6.62,0.17,13.24,0.47,19.86,0.73
		c11.54,0.45,23.12,1.44,34.62-0.11c19.37-2.61,38.53-6.21,57.01-12.91c12.89-4.67,24.95-10.6,35.16-19.97
		c8.04-7.38,11.15-20.31,5.27-29.68c-0.99-1.58-1.72-3.32-2.54-4.99c-3.14-6.43-7.98-10.77-14.96-12.85
		c-3.05-0.91-6.33-2.07-8.64-4.1c-1.81-1.59-3.42-2.44-5.64-2.63c-8.63-0.75-17.25-1.56-25.88-2.25
		C573.7,661.96,556.59,660.65,539.49,659.31z"/>
	<path class="st0" d="M462.05,598.38c0.63-1.73,1.33-5.17,3.02-8.01c3.02-5.09,6.42-10.01,10.08-14.67
		c3.49-4.46,8.1-7.23,14.11-6.72c0.17,0.01,0.35,0.07,0.51,0.03c3.02-0.84,6.06-1.61,8.35,1.45c2.64,3.51,4.3,7.5,3.53,11.88
		c-0.52,2.95-1.54,6.02-3.13,8.54c-4.72,7.47-11.02,13.3-19.33,16.76c-3.79,1.58-7.59,1.72-11.44,0.41
		C463.86,606.69,461.9,603.88,462.05,598.38z M469.84,601.03c2.2-0.11,4.48,0.28,6.37-0.41c7.27-2.62,12.8-7.56,16.83-14.1
		c2.82-4.57,1.93-8.95-1.1-13.12c-5.41,0.67-9.64,2.94-12.63,7.19c-2.53,3.6-4.97,7.29-7.17,11.11
		C470.66,594.29,469.34,597.09,469.84,601.03z"/>
	<path class="st0" d="M403.7,586.55c-3.42-1.15-7.32-1.93-10.68-3.71c-7.38-3.9-8.43-12.89-2.5-18.85
		c3.32-3.34,7.45-4.51,12.08-4.26c5.22,0.29,9.85,2.37,14.4,4.68c2.13,1.08,3.14,2.98,3.55,5.27c1.19,6.61-1.76,12.35-7.99,14.76
		C409.93,585.46,407.03,585.78,403.7,586.55z M413.18,569.25c-3.85-0.58-7.45-1.29-11.08-1.57c-1.4-0.11-3.04,0.46-4.28,1.2
		c-3.18,1.89-3.18,5.52,0.1,7.1c2.22,1.07,4.76,1.79,7.21,1.98C410.7,578.4,412.76,576.25,413.18,569.25z"/>
	<path class="st0" d="M318.56,671.66c-0.27-1.14-0.36-2.11-0.74-2.95c-0.38-0.86-1.03-1.6-1.58-2.42c4.79-2.5,7.68-1.31,9.54,3.61
		c4.02,10.66-3.06,23.71-14.29,26.13c-1.94,0.42-4.06,0.58-6.01,0.26c-6.04-0.97-9.09-5.42-7.79-11.37c0.5-2.28,1.35-4.57,2.49-6.61
		C304.6,670.43,309.88,668.51,318.56,671.66z M318.56,675.61c-9.12,0.03-14.16,5.27-12.56,12.68
		C313.45,689.39,318.15,684.77,318.56,675.61z"/>
	<path class="st0" d="M457.33,424.52c0.13,8.74-0.91,18.35-4.3,27.54c-1.57,4.27-3.17,8.78-5.86,12.34
		c-5.52,7.28-11.42,14.38-17.87,20.84c-7.74,7.76-17.9,11.81-28.24,14.59c-12.27,3.3-24.75,6.18-37.31,7.94
		c-13.07,1.83-26.11,0.72-38.22-5.63c-2.98-1.56-6.26-2.66-9.52-3.58c-7.38-2.09-13.68-5.89-19.09-11.26
		c-3.86-3.82-7.7-7.66-11.59-11.45c-3.81-3.71-6.48-8.17-9.24-12.69c-9.87-16.2-11.75-33.74-9.68-52.07
		c1.59-14.12,4.85-27.75,11.69-40.35c5.07-9.33,11.77-17.49,18.9-25.2c7.33-7.91,17.24-12.11,27.2-15.51
		c22.11-7.55,43.99-6.64,65.48,2.98c20.28,9.07,37.13,22.48,50.74,39.85C452,387.62,457.79,404.59,457.33,424.52z M449.11,417.66
		c-0.13-2.24-0.1-3.76-0.33-5.24c-2.06-13.39-7.16-25.54-15.81-35.96c-6.51-7.84-13.51-15.27-20.44-22.75
		c-2.06-2.22-4.4-4.39-7.02-5.84c-9.68-5.36-19.78-9.99-30.5-12.71c-23.66-6.01-45.88-2.04-66.3,11.25
		c-3.63,2.36-6.59,5.83-9.62,9.01c-1.98,2.08-3.37,4.71-5.28,6.86c-7.87,8.87-12.49,19.38-15.48,30.66
		c-1.28,4.85-1.98,9.85-3.11,15.67c2.14-1.14,3.34-1.71,4.47-2.4c11.88-7.21,24.52-12.43,38.26-14.82
		c4.35-0.76,8.71-1.48,13.07-2.17c13.46-2.12,26.94-3.92,40.55-1.36c5.84,1.1,11.67,2.27,17.47,3.56
		C410.43,396.2,430.72,403.52,449.11,417.66z M374.81,481.1c0.12,0.44,0.23,0.88,0.35,1.32c5.88-0.58,11.84-0.75,17.63-1.83
		c11.67-2.19,23.44-4.2,34.01-10.14c1.32-0.75,2.73-1.75,4.15-1.84c2.61-0.15,3.86-1.84,5.3-3.51c8.08-9.43,11.03-20.81,12.81-32.75
		c0.79-5.24-0.47-8.83-5.43-11.08c-2.3-1.04-4.35-2.65-6.56-3.9c-17.92-10.1-37.03-16.86-57.3-20.46
		c-10.05-1.79-20.07-3.77-30.35-2.52c-6.91,0.84-13.81,1.78-20.71,2.73c-14.59,2.02-28.61,5.83-41.42,13.39
		c-4.08,2.41-8.21,4.74-12.41,7.15c-2.44,19.91,4.56,36.74,17.13,52.35c3.58-2.39,6.86-1.14,10.08-0.12
		c7.45,2.34,14.89,4.7,22.28,7.23c12.18,4.16,31.01,6.42,44.42,4.99c-4.71-0.81-9.75-1.51-14.71-2.57
		c-7.79-1.67-14.86-5.05-20.64-10.55c-11.34-10.78-16.6-26.14-8.34-40.61c9.78-17.13,25.09-24.75,44.62-23.9
		c9.09,0.39,16.75,4.71,23,10.89c3.53,3.48,5.73,8.34,8.39,12.67c9.01,14.64,2.8,33.06-7.58,42.18
		C387.96,475.09,381.73,478.62,374.81,481.1z M367.38,412.14c-14.55,0.35-26.28,6.07-34.04,18.74c-3.82,6.25-4.73,12.91-1.79,19.98
		c2.49,5.99,6.12,10.9,11.49,14.58c8.35,5.72,17.72,7.51,27.6,7.29c1.48-0.03,3.01-0.53,4.42-1.07c6-2.3,11.16-5.95,15.09-10.97
		c6.44-8.23,8.51-17.24,3.75-27.14c-1.4-2.9-2.52-5.94-3.79-8.91c-1.36-3.18-3.12-6.09-6.25-7.81
		C378.76,414.03,373.54,411.51,367.38,412.14z M300.69,477.28c3.73,5.86,9.51,9.89,16.83,12.32c4.18,1.38,8.49,2.61,12.34,4.66
		c10.66,5.64,22.11,7.1,33.63,5.4c12.03-1.78,23.91-4.84,35.71-7.92c6.16-1.61,12.09-4.28,17.3-8.41
		c-19.04,5.73-38.5,6.75-58.21,6.71C338.24,490,319.74,483.74,300.69,477.28z"/>
	<path class="st0" d="M573.5,442.12c-0.92-21.76,7.24-39.18,19.56-54.97c3.54-4.53,7.71-8.59,11.77-12.69
		c7.31-7.4,16.42-12.04,25.86-15.96c8.52-3.54,17.56-3.62,26.61-2.8c4.55,0.41,8.87,0.74,13.46-1.05c5.38-2.1,10.8-0.24,15.41,3.06
		c10.48,7.52,20.74,15.19,29.42,25c14.33,16.19,20.41,35.24,22.34,56.24c1.59,17.32-2.69,32.96-12.12,47.37
		c-0.83,1.27-1.69,2.66-2.87,3.55c-6.79,5.08-13.21,10.96-20.66,14.81c-13.02,6.74-27.03,11.1-41.85,11.89
		c-19.57,1.04-37.62-4.37-53.24-15.7c-10.52-7.63-19.54-17.38-26.67-28.53c-4.8-7.51-6.76-15.88-7.01-24.7
		C573.44,445.42,573.5,443.21,573.5,442.12z M724.56,414.07c-0.87-2.27-1.28-3.48-1.79-4.66c-6.7-15.34-17.4-27.4-30.67-37.35
		c-2.45-1.83-4.79-3.83-7.38-5.44c-2.1-1.31-4.43-2.85-6.78-3.06c-8.1-0.74-16.24-0.97-24.36-1.35
		c-15.5-0.72-28.54,5.49-40.03,15.09c-11.21,9.37-19.92,20.84-25.85,34.3c-0.44,1-0.6,2.11-1.17,4.18
		c21.6-13.43,43.47-23.48,68.49-22.92C679.64,393.44,703,399.09,724.56,414.07z M686.59,442.58c0.17-5.11-1.14-9.81-3.75-14.14
		c-4.63-7.69-11.04-13.73-18.11-19.12c-3.39-2.58-7.26-2.95-11.15-1.72c-14.75,4.65-25.67,13.08-28.37,29.4
		c-0.44,2.68-1.11,5.33-1.4,8.03c-0.86,8.13,1.82,15.45,5.69,22.35c3.05,5.46,8.6,7.44,14.17,9.22c1.29,0.42,2.59,0.81,3.9,1.19
		c11.39,3.24,23.54-0.84,31.05-9.97C684.72,460.39,685.93,451.61,686.59,442.58z M682.94,477.53c18.25-3.3,34.52-9.88,46.53-25.04
		c1.15-6.7,0.06-13.77-1.2-20.77c-0.36-2.02-1.66-4.05-3.01-5.67c-6.7-8.05-15.51-13.06-25.13-16.72c-10.77-4.1-21.87-6.89-34-8.13
		c14.2,7.94,25.72,17.79,28.82,33.73C698,450.64,693.92,465.15,682.94,477.53z M647.98,401.16c-0.62-0.06-1.25-0.19-1.86-0.15
		c-1.52,0.11-3.06,0.19-4.55,0.47c-12.05,2.29-23.72,5.72-34.51,11.75c-7.11,3.97-14.25,7.87-21.44,11.68
		c-2.01,1.06-2.97,2.42-3.22,4.7c-0.97,8.83-0.66,17.61,0.62,26.38c0.15,1,0.34,2.06,0.83,2.92c0.54,0.96,1.28,1.95,2.19,2.52
		c9.26,5.77,19.32,9.79,29.63,13.22c3.33,1.11,6.72,2.05,11,3.34c-11.03-13.92-13.6-28.44-9.55-44.72
		C621.31,416.39,632.1,406.6,647.98,401.16z M594.12,475.21c0.04,0.94-0.01,1.15,0.07,1.24c2.41,2.6,4.94,5.09,7.25,7.78
		c14,16.26,32.49,23.22,53.15,23.99c23.64,0.89,44.06-8.14,61.5-23.87c4.14-3.74,6.79-8.67,8.67-15.03
		c-20.1,13.43-42.01,18.38-64.6,20.31C636.96,491.6,615.36,484.42,594.12,475.21z"/>
	<path class="st0" d="M706.04,519.38c2.19-1.76,4.39-3.52,6.59-5.27c17.15-13.67,30.72-30.11,39.2-50.51
		c0.45-1.09,0.84-2.27,1.55-3.19c1.48-1.91,4.26-1.45,4.66,0.89c0.33,1.92,0.16,4.12-0.45,5.97c-1.33,4.02-2.82,8.02-4.7,11.8
		c-5.36,10.73-12.56,20.16-21.19,28.44c-6.48,6.21-14.05,10.63-22.94,12.5c-0.65,0.14-1.33,0.1-2,0.11
		C706.65,520.13,706.56,519.94,706.04,519.38z"/>
	<path class="st0" d="M273.78,491.91c-2.65-1.39-5.46-2.52-7.9-4.2c-7.48-5.16-13.62-11.64-18.38-19.43
		c-4.7-7.69-5.65-16.2-5.74-24.93c-0.01-0.67-0.05-1.49,0.29-1.98c0.53-0.77,1.34-1.76,2.11-1.82c0.77-0.06,2.01,0.71,2.35,1.44
		c0.77,1.67,1.37,3.5,1.59,5.32c1.46,12.17,7.59,21.89,15.58,30.77c3.93,4.37,7.46,9.09,11.18,13.65
		C274.49,491.12,274.14,491.52,273.78,491.91z"/>
	<path class="st0" d="M366.98,463.35c-13.53-0.17-20.99-7.54-21.47-21.21c-0.43-11.99,8.62-22.18,20.52-23.12
		c8.11-0.64,18.05,5.71,20.04,13.63c0.95,3.77,0.21,7.98,0.17,11.99c-0.01,1.01-0.31,2.01-0.42,3.03
		C384.38,459.98,376.32,463.43,366.98,463.35z M378.72,441.67c-0.13-1.83-0.14-3.19-0.34-4.52c-1.38-8.87-9.07-12.58-16.94-8.2
		c-6.03,3.36-8.49,9.64-6.69,17.05c1.66,6.81,5.06,9.28,13.02,9.39c1.18,0.02,2.39,0,3.54-0.23c3.06-0.6,5.31-2.17,5.94-5.45
		C377.78,446.89,378.28,444.06,378.72,441.67z"/>
	<path class="st0" d="M635.47,447.95c0.21-8.76,3.43-15.75,11.43-20.16c7.24-3.99,18.96-3.84,24.71,6.52
		c1.48,2.66,3.44,5.07,4.7,7.82c3.27,7.12,2.12,12.96-3.29,18.65c-9.28,9.76-27.42,8.07-34.79-3.24
		C636.16,454.37,635.38,451.65,635.47,447.95z M657.43,433.73c-8.97,0.28-14.54,7.97-12.65,16.98c1,4.76,5.16,6.49,9.43,7.45
		c4.59,1.03,8.75,0.08,12.05-3.56c1.81-2,2.81-4.33,2.27-6.99c-0.54-2.64-1.29-5.25-2.24-7.78
		C664.64,435.43,662.05,433.75,657.43,433.73z"/>
</g>
</svg>
